<?xml version="1.0" encoding="utf-8"?>
<!-- Generator: Adobe Illustrator 16.0.0, SVG Export Plug-In . SVG Version: 6.00 Build 0)  -->
<!DOCTYPE svg PUBLIC "-//W3C//DTD SVG 1.1//EN" "http://www.w3.org/Graphics/SVG/1.1/DTD/svg11.dtd">
<svg version="1.1" id="Outline_Version" xmlns="http://www.w3.org/2000/svg" xmlns:xlink="http://www.w3.org/1999/xlink" x="0px"
	 y="0px" width="24px" height="24px" viewBox="0 0 24 24" enable-background="new 0 0 24 24" xml:space="preserve">
<path d="M23.077,3.438c-0.57-0.57-1.485-0.938-2.331-0.938c-0.637,0-1.176,0.202-1.558,0.585L1.172,21.101
	c-0.151,0.151-0.19,0.383-0.095,0.575c0.085,0.172,0.26,0.278,0.448,0.278c0.022,0,0.044-0.001,0.066-0.004l7.5-1
	c0.105-0.014,0.204-0.061,0.28-0.135L23.43,7.327c0.383-0.381,0.585-0.92,0.585-1.556C24.016,4.924,23.647,4.008,23.077,3.438z
	 M7.739,15.947l1.029-1.029l2.604,2.591l-1.063,1.02L7.739,15.947z M9.476,14.211l1.057-1.057l2.627,2.641l-1.066,1.022
	L9.476,14.211z M8.797,19.98l-5.874,0.783l4.109-4.109l0.781,0.785l-1.152,1.152c-0.195,0.195-0.195,0.512,0,0.707
	c0.098,0.098,0.226,0.146,0.354,0.146s0.256-0.049,0.354-0.146l1.15-1.15l1.069,1.074L8.797,19.98z M22.731,6.612l-8.85,8.49
	l-2.642-2.655l8.656-8.655C20.137,3.551,20.491,3.5,20.747,3.5c0.585,0,1.237,0.259,1.624,0.646s0.646,1.039,0.645,1.625
	C23.015,6.025,22.965,6.379,22.731,6.612z"/>
</svg>
