<?xml version="1.0" encoding="utf-8"?>
<!-- Generator: Adobe Illustrator 16.0.0, SVG Export Plug-In . SVG Version: 6.00 Build 0)  -->
<!DOCTYPE svg PUBLIC "-//W3C//DTD SVG 1.1//EN" "http://www.w3.org/Graphics/SVG/1.1/DTD/svg11.dtd">
<svg version="1.1" id="Outline_Version" xmlns="http://www.w3.org/2000/svg" xmlns:xlink="http://www.w3.org/1999/xlink" x="0px"
	 y="0px" width="24px" height="24px" viewBox="0 0 24 24" enable-background="new 0 0 24 24" xml:space="preserve">
<g>
	<path d="M22.5,7H16V4c0-0.551-0.448-1-1-1H9C8.448,3,8,3.449,8,4v3H1.5C0.673,7,0,7.673,0,8.5v14C0,23.327,0.673,24,1.5,24h21
		c0.827,0,1.5-0.673,1.5-1.5v-14C24,7.673,23.327,7,22.5,7z M15,4v1H9V4H15z M9,6h6v1H9V6z M23,22.5c0,0.276-0.225,0.5-0.5,0.5h-21
		C1.225,23,1,22.776,1,22.5v-14C1,8.224,1.225,8,1.5,8h21C22.775,8,23,8.224,23,8.5V22.5z"/>
	<rect x="3" y="11" width="18" height="1"/>
	<rect x="3" y="15" width="18" height="1"/>
	<rect x="3" y="19" width="18" height="1"/>
</g>
</svg>
