<?xml version="1.0" encoding="utf-8"?>
<!-- Generator: Adobe Illustrator 16.0.0, SVG Export Plug-In . SVG Version: 6.00 Build 0)  -->
<!DOCTYPE svg PUBLIC "-//W3C//DTD SVG 1.1//EN" "http://www.w3.org/Graphics/SVG/1.1/DTD/svg11.dtd">
<svg version="1.1" id="Outline_Version" xmlns="http://www.w3.org/2000/svg" xmlns:xlink="http://www.w3.org/1999/xlink" x="0px"
	 y="0px" width="24px" height="24px" viewBox="0 0 24 24" enable-background="new 0 0 24 24" xml:space="preserve">
<g>
	<path d="M10,16.857v0.776l-2.65,0.838l0.301,0.953l3-0.948C10.858,18.411,11,18.218,11,18v-0.634c0.319,0.104,0.65,0.176,1,0.176
		s0.681-0.072,1-0.176V18c0,0.218,0.142,0.411,0.35,0.477l3,0.948l0.301-0.953L14,17.634v-0.776c0.904-0.683,1.5-1.81,1.5-3.087
		C15.5,11.691,13.93,10,12,10s-3.5,1.691-3.5,3.771C8.5,15.048,9.096,16.175,10,16.857z M12,16.542c-1.354,0-2.453-1.2-2.492-2.69
		c0.886,0.268,2.018,0.158,2.912-0.465c0.316,0.312,0.737,0.518,1.213,0.588C13.749,13.991,13.865,14,13.98,14
		c0.175,0,0.342-0.025,0.504-0.063C14.405,15.387,13.327,16.542,12,16.542z M12,11c1.114,0,2.049,0.817,2.371,1.935
		c-0.158,0.053-0.365,0.082-0.593,0.051c-0.22-0.032-0.621-0.147-0.838-0.551c-0.075-0.14-0.211-0.235-0.367-0.259
		c-0.157-0.02-0.314,0.029-0.427,0.142c-0.731,0.73-1.822,0.787-2.492,0.527C10,11.773,10.916,11,12,11z"/>
	<path d="M20.5,4H15V3c0-1.654-1.346-3-3-3S9,1.346,9,3v1H3.5C3.224,4,3,4.224,3,4.5v19C3,23.776,3.224,24,3.5,24h17
		c0.276,0,0.5-0.224,0.5-0.5v-19C21,4.224,20.776,4,20.5,4z M10,3c0-1.103,0.897-2,2-2s2,0.897,2,2v4.5h-4V3z M14.5,8.5
		C14.776,8.5,15,8.276,15,8V7h3v14H6V7h3v1c0,0.276,0.224,0.5,0.5,0.5H14.5z M20,23H4V5h5v1H5.5C5.224,6,5,6.224,5,6.5v15
		C5,21.776,5.224,22,5.5,22h13c0.276,0,0.5-0.224,0.5-0.5v-15C19,6.224,18.776,6,18.5,6H15V5h5V23z"/>
	<circle cx="12" cy="2.995" r="1"/>
</g>
</svg>
