<?xml version="1.0" encoding="utf-8"?>
<!-- Generator: Adobe Illustrator 16.0.0, SVG Export Plug-In . SVG Version: 6.00 Build 0)  -->
<!DOCTYPE svg PUBLIC "-//W3C//DTD SVG 1.1//EN" "http://www.w3.org/Graphics/SVG/1.1/DTD/svg11.dtd">
<svg version="1.1" id="Outline_Version" xmlns="http://www.w3.org/2000/svg" xmlns:xlink="http://www.w3.org/1999/xlink" x="0px"
	 y="0px" width="24px" height="24px" viewBox="0 0 24 24" enable-background="new 0 0 24 24" xml:space="preserve">
<g>
	<g>
		<path d="M12,7c-1.93,0-3.5-1.57-3.5-3.5S10.07,0,12,0s3.5,1.57,3.5,3.5S13.93,7,12,7z M12,1c-1.379,0-2.5,1.122-2.5,2.5
			S10.621,6,12,6s2.5-1.122,2.5-2.5S13.379,1,12,1z"/>
	</g>
	<g>
		<path d="M13.5,19h-3c-0.276,0-0.5-0.224-0.5-0.5v-3.966C8.049,13.6,7,10.798,7,8.5C7,8.224,7.224,8,7.5,8h9
			C16.776,8,17,8.224,17,8.5c0,2.298-1.049,5.1-3,6.034V18.5C14,18.776,13.776,19,13.5,19z M11,18h2v-3.8
			c0-0.212,0.134-0.402,0.335-0.472c1.516-0.531,2.499-2.765,2.646-4.729H8.019c0.147,1.963,1.131,4.198,2.646,4.729
			C10.866,13.798,11,13.988,11,14.2V18z"/>
	</g>
	<g>
		<path d="M12,21.5c-2.785,0-7.5-0.474-7.5-2.25c0-0.882,1.146-1.531,3.407-1.927c0.256-0.045,0.531,0.134,0.578,0.406
			c0.048,0.272-0.134,0.531-0.406,0.579c-2.007,0.352-2.546,0.841-2.58,0.953C5.634,19.679,7.985,20.5,12,20.5
			s6.366-0.821,6.501-1.261c-0.034-0.09-0.571-0.579-2.568-0.931c-0.271-0.048-0.453-0.307-0.405-0.579
			c0.047-0.272,0.311-0.454,0.579-0.405c2.252,0.396,3.394,1.044,3.394,1.926C19.5,21.026,14.785,21.5,12,21.5z"/>
	</g>
	<g>
		<path d="M12,24c-5.817,0-12-1.577-12-4.5c0-2.376,4.099-3.752,7.935-4.248c0.278-0.031,0.524,0.158,0.561,0.432
			c0.035,0.274-0.158,0.524-0.432,0.56C3.426,16.843,1,18.335,1,19.5C1,21.155,5.518,23,12,23s11-1.845,11-3.5
			c0-1.165-2.426-2.657-7.062-3.256c-0.273-0.036-0.467-0.286-0.432-0.56c0.036-0.274,0.281-0.462,0.561-0.432
			C19.902,15.748,24,17.124,24,19.5C24,22.423,17.817,24,12,24z"/>
	</g>
</g>
</svg>
