<?xml version="1.0" encoding="utf-8"?>
<!-- Generator: Adobe Illustrator 16.0.0, SVG Export Plug-In . SVG Version: 6.00 Build 0)  -->
<!DOCTYPE svg PUBLIC "-//W3C//DTD SVG 1.1//EN" "http://www.w3.org/Graphics/SVG/1.1/DTD/svg11.dtd">
<svg version="1.1" id="Outline_Version" xmlns="http://www.w3.org/2000/svg" xmlns:xlink="http://www.w3.org/1999/xlink" x="0px"
	 y="0px" width="24px" height="24px" viewBox="0 0 24 24" enable-background="new 0 0 24 24" xml:space="preserve">
<g>
	<path d="M11.5,4H16v5.5c0,0.276,0.224,0.5,0.5,0.5S17,9.776,17,9.5v-6v-3C17,0.224,16.776,0,16.5,0h-5C11.224,0,11,0.224,11,0.5v3
		C11,3.776,11.224,4,11.5,4z M12,1h4v2h-4V1z"/>
	<path d="M23.881,9.177C23.787,9.064,23.647,9,23.5,9H21V6.5C21,6.224,20.776,6,20.5,6h-2C18.224,6,18,6.224,18,6.5S18.224,7,18.5,7
		H20v2.5v6V16H1v-5.5C1,8.57,2.57,7,4.5,7h10C14.776,7,15,6.776,15,6.5S14.776,6,14.5,6h-10C2.019,6,0,8.019,0,10.5v6
		C0,16.776,0.224,17,0.5,17H11v6.5c0,0.276,0.224,0.5,0.5,0.5s0.5-0.224,0.5-0.5V17h8.5c0.276,0,0.5-0.224,0.5-0.5V16h1.5
		c0.245,0,0.453-0.177,0.493-0.418l1-6C24.018,9.437,23.977,9.289,23.881,9.177z M22.077,15H21v-5h1.91L22.077,15z"/>
</g>
</svg>
