<?xml version="1.0" encoding="utf-8"?>
<!-- Generator: Adobe Illustrator 16.0.0, SVG Export Plug-In . SVG Version: 6.00 Build 0)  -->
<!DOCTYPE svg PUBLIC "-//W3C//DTD SVG 1.1//EN" "http://www.w3.org/Graphics/SVG/1.1/DTD/svg11.dtd">
<svg version="1.1" id="Outline_Version" xmlns="http://www.w3.org/2000/svg" xmlns:xlink="http://www.w3.org/1999/xlink" x="0px"
	 y="0px" width="24px" height="24px" viewBox="0 0 24 24" enable-background="new 0 0 24 24" xml:space="preserve">
<g>
	<path d="M9,18.07V17h0.5c0.276,0,0.5-0.224,0.5-0.5v-2c0-0.276-0.224-0.5-0.5-0.5h-5C4.224,14,4,14.224,4,14.5v2
		C4,16.776,4.224,17,4.5,17H5v1.07c-3.129,0.54-4.766,2.307-4.999,5.393c-0.01,0.139,0.038,0.275,0.133,0.377
		C0.228,23.942,0.361,24,0.5,24h13.074c0.139,0,0.272-0.058,0.366-0.16c0.095-0.102,0.143-0.239,0.133-0.377
		C13.84,20.381,12.18,18.614,9,18.07z M1.057,23c0.347-2.401,1.757-3.644,4.509-4.004C5.813,18.963,6,18.751,6,18.5v-2
		C6,16.224,5.776,16,5.5,16H5v-1h4v1H8.5C8.224,16,8,16.224,8,16.5v2c0,0.251,0.187,0.463,0.435,0.496
		c2.76,0.362,4.229,1.64,4.581,4.004H1.057z"/>
	<path d="M23.252,0.428c-0.195-0.195-0.512-0.195-0.707,0c-0.008,0.008-0.011,0.019-0.019,0.028L20,2.982V0.5
		c0-0.173-0.09-0.333-0.236-0.425c-0.147-0.091-0.333-0.1-0.485-0.023c-1.057,0.524-2.737,1.636-4.286,3.188
		c-1.438,1.437-2.556,3.102-3.146,4.687c-0.524,1.409-0.559,2.564-0.122,3.332l-1.304,1.304c-0.195,0.195-0.195,0.512,0,0.707
		c0.098,0.098,0.226,0.146,0.354,0.146s0.256-0.049,0.354-0.146l1.293-1.293c0.449,0.261,1.038,0.395,1.715,0.395
		c1.659,0,3.835-0.804,5.7-2.5c0.153-0.139,0.205-0.358,0.131-0.55C19.892,9.127,19.707,9,19.5,9h-4.104l1-1H21
		c0.276,0,0.5-0.224,0.5-0.5S21.276,7,21,7h-3.604l1-1h4.058c0.179,0,0.345-0.096,0.434-0.251
		C24.185,3.486,24.321,1.498,23.252,0.428z M12.784,8.275c0.533-1.432,1.596-3.01,2.915-4.329C16.838,2.806,18.067,1.91,19,1.348
		v2.635l-1.16,1.16c-0.004,0.003-0.007,0.007-0.01,0.01l-5.343,5.343C12.349,9.973,12.446,9.182,12.784,8.275z M18.059,10
		c-1.968,1.33-3.908,1.548-4.874,1.212L14.396,10H18.059z M22.16,5h-2.764l0.428-0.428c0.018-0.016,0.034-0.031,0.05-0.049
		l2.946-2.947C23.145,2.354,22.918,3.589,22.16,5z"/>
</g>
</svg>
