<?xml version="1.0" encoding="utf-8"?>
<!-- Generator: Adobe Illustrator 19.2.0, SVG Export Plug-In . SVG Version: 6.00 Build 0)  -->
<svg version="1.1" id="Layer_1" xmlns="http://www.w3.org/2000/svg" xmlns:xlink="http://www.w3.org/1999/xlink" x="0px" y="0px"
	 width="1600" height="900" style="enable-background:new 0 0 1600 900; -webkit-filter: grayscale(100%)" xml:space="preserve" opacity="0.14">
<linearGradient id="SVGID_1_" gradientUnits="userSpaceOnUse" x1="800" y1="11" x2="800" y2="441.2615">
	<stop  offset="0" style="stop-color:#4D7889"/>
	<stop  offset="0.5108" style="stop-color:#BBCAC7"/>
	<stop  offset="1" style="stop-color:#FFF9DE"/>
</linearGradient>
<rect style="fill:url(#SVGID_1_);" width="1600" height="450"/>
<linearGradient id="SVGID_2_" gradientUnits="userSpaceOnUse" x1="800" y1="903" x2="800" y2="448.9824">
	<stop  offset="0" style="stop-color:#234350"/>
	<stop  offset="0.6324" style="stop-color:#BCCFCF"/>
	<stop  offset="1" style="stop-color:#D7D4AB"/>
</linearGradient>
<rect y="450" style="fill:url(#SVGID_2_);" width="1600" height="450"/>
<path style="fill:#4C728E;" d="M1078.2,426.2c0,0,5.9-2.9,5.9-5.9s-2.1-5.9,0-6.1s4.8,5.9,6.4,4.3c1.6-1.6,3.7-5.3,4.5-7.2
	s4-4.5,4.8-2.1c0.8,2.4,1.9,1.3,2.1-1c0.3-2.2,5.1-4.4,7.7-4.4s5.6,1.6,6.7,3.2c1.1,1.6,1.1,3.7,6.4,3.7s7.7,0.8,10.4-1.1
	c2.7-1.9,7.2-2.7,7.7-4.5c0.5-1.9,2.4-0.5,4,1.6c1.6,2.1,4.8,4.8,8.2,8.2c3.5,3.5,7.2,7.4,10.6,9.8c3.5,2.4,2.7,5.6,6.9,7.2
	c4.3,1.6,9.6,6.7,12.8,10.4c3.2,3.7-23.1,12.7-31.9,15.5c-8.8,2.8-27.7,12.7-30.3,13.5c-2.7,0.8-12.5,0-16,0
	c-3.5,0-23.1-13.3-25-20.7c-1.9-7.4-6.7-11.7-8.5-15.7C1069.7,431,1076.1,427.5,1078.2,426.2z"/>
<path style="fill:#8AA8B7;" d="M797.8,477.4c0,0,6.2-12.6,8.7-15.1c2.5-2.5,4.3-6.7,6.6-9.2c2.3-2.5,9.2-13.3,10.5-14
	c1.2-0.7,1.4,4.6,2.7,3.9c1.2-0.7,4.6-4.6,6.7-6c2.1-1.4,4.8-0.2,4.8,1.3s3.7-1.6,4.6-3c0.9-1.4,2.8-1.4,4.8,0
	c2,1.4,4.3,3.9,5.1,2.7s1.8,1.2,4.1,0.5c2.3-0.7,4.3-1.6,5.9-2.5c1.6-0.9,5.3-3,6.6-1.8c1.2,1.2,1.8,5,2.8,4.4
	c1.1-0.5,1.8-3,3.2-2.8c1.4,0.2,2.8,3.2,4.1,3.4c1.2,0.2,7.1,12.2,7.4,13.8c0.4,1.6,5.9,3.5,7.3,2.6c1.4-0.9,2.7-1.6,5.5-1.6
	s6,2.5,7.3,3.7s13.8,3.5,14.7,2.8c0.9-0.7,3.2-5.3,5.7-7.1c2.5-1.8,4.1-7.4,5.7-7.4s3,3.9,3.5,3c0.5-0.9,4.1-4.8,4.1-7.8
	s0.4-6,1.4-6.7c1.1-0.7,2.1-3.7,3.4-3c1.2,0.7,1.8,5.5,3,4.4s3-5.4,3.7-4.5c0.7,0.8,1.1,3.3,3.4,3.5c2.3,0.2,4.3,5.1,5.5,5.3
	c1.2,0.2,2.3-3.4,3.4-3.2c1.1,0.2,2.3,3.4,3.5,3.7s5.5,2.8,6,2c0.5-0.9,2.8-2.5,4.3-0.7c1.4,1.8,3.4,2.5,3.9,2.1
	c0.5-0.4,7.8,0.4,8.3,0c0.5-0.4,2.1,3.2,3.7,2.1s2.5-3.4,4.6-3.5s4.3-0.7,5.3-0.2c1.1,0.5,2.1,3.2,3.2,2.8c1.1-0.4,2.1-2.1,3-2.1
	s2.5,2.5,3.7,2c1.2-0.5,3.9-1.6,4.8-1.1c0.9,0.5,3.7,0.9,5.1,0s4.1,0.4,5.7,0s6.7-2.3,7.4-4.1c0.7-1.8,3.5-2.1,4.4-1.2
	c0.9,0.9-1.4,3,0,2.8c1.4-0.2,3.9-3.6,3.9-4.6s4.3,0,4.3,0s3,2.3,4.1,2.3c1.1,0,5.3,2.8,10.3,3.2c5,0.4,14.2,8.9,17,9.6
	c2.8,0.7,8.7,10.5,11.9,13.1c3.2,2.7,7.4,11.5,10.1,11.5c2.7,0,8.2,1.6,3.4,3.4c-4.8,1.8-39.7,10.3-51.8,12.1
	c-12.1,1.8-38.5,3.4-56.6,2.8s-53.6,1.8-67.8,0.1c-14.2-1.7-61-3.3-81.2-4c-20.2-0.7-50.9,0.7-50.7-3.2S795,478.3,797.8,477.4z"/>
<path style="fill:#122335;" d="M0,264.8c0,0,5.5,6.2,8,4.2s7,3.8,7.5,0.4c0.5-3.4,3-13.9,9.5-18.4s9.5-7.5,9.5-7.5S42,233.5,48,232
	l7,6.5c0,0,7.5-0.5,9.5,1.5s9.5,1,9.5,1s3.5,10.5,5,10.2c1.5-0.2,4.5-9.2,6.5-9.7s10.5,0,12.5,0s6,7.5,8,9.7c2,2.3,6,16.7,10,19.2
	c4,2.5,18,38.5,16.5,51s34,44,43.5,55.5s41.5,68,49.5,80.5s-44,9-75,8.5s-63-6-94-5.5S0,466.8,0,466.8V264.8z"/>
<path style="fill:#234768;" d="M272.5,409c0,0,16-6.5,20.5-8.5s18.6-8.2,21.6-9.6s8.4-4.4,11.4-5.9s4-7.5,6-7.5s7,1.8,8.5,0
	s4.2-6,4.2-6s8.5,9,9.5,9s9-5.8,9.2-7s5.5,5,7.5,5.2s6.8,4.2,7.8,4.5s6.8,7,8.2,7s9,8.2,11,10.5s8,9,11.2,11s9,8.8,10.8,10.5
	s5.2,5.2,7.8,5.2s3.2,2.8,7.8,6.8s40.8,39.8,44.5,42s12.8,9.8,12,11.8s-26.8,7-34.8,7s-41.8,5.2-59,4.8s-38.8-0.8-71.8-4.2
	s-77-1.5-80-8.2s-11.8-19.2-7.8-26.2s16-36.5,21-41S272.5,409,272.5,409z"/>
<path style="fill:#4C728E;" d="M436.2,446.3c0,0,5.8-6.5,8.7-7.2c2.8-0.7,3.9-0.8,4.8-2c0.9-1.2,4.5-5.2,6.7-5.2
	c2.2,0,4.2,3.2,4.8,4.3c0.7,1.2,4,3.7,5.2,2c1.2-1.7,5-4.3,6.5-5.5c1.5-1.2,6.3-4.7,8.8-4.7s4.7,2.5,5.5,3.5c0.8,1,3.6,2.2,4.9,1.2
	c1.3-1,3.1-3.5,4-3.5s6.2-4.7,6.3-5.2c0.2-0.5,2.8,6,4.3,6s4.5,0.7,5.8,2c1.3,1.3,2.5,2.7,4.2,2.2c1.7-0.5,4-3.2,4.5-3.2
	s6.8,9.5,8.3,10.3s2,0.3,4.2-1.6c2.2-1.9,4.2-3.6,5.7-4.6s4.8-5.7,5.3-5.2s2.7,3.7,4,1.8c1.3-1.8,1.7-3.5,3.5-3.5
	c1.8,0,3,2.5,4.2,2.3c1.2-0.2,4,0.5,5.2,1.3s9.7,1.7,12.3,1.2c2.7-0.5,12.5,7.3,13.8,6.7c1.3-0.5,6.2,9.3,9.2,9.3s-18,20-27,24.3
	s-25.2,10.8-33,14.7c-7.8,3.8-22.8,8.7-29.3,8.3s-21.7,1.3-32.2-5s-24.2-7-31-14.3c-6.8-7.3-16.5-15.8-13.5-19.3
	S436.2,446.3,436.2,446.3z"/>
<path style="fill:#6D8FA3;" d="M980,486.3c0,0,20.2-12.2,29.8-20s11.7-6.9,14.9-11.7c3.2-4.8,6.1-9.4,13-16.8
	c6.9-7.4,12.6-7.9,12.8-10.9c0.2-2.9,4.2-11.4,6.1-12c1.9-0.5,3.2,1.3,6.7,1.6c3.5,0.3,4.5,1.9,7.4,5.1c2.9,3.2,3.5,6.7,7.7,7.7
	c4.3,1.1,10.1,2.1,14.6,2.7c4.5,0.5,7.4,2.9,11.2,2.4c3.7-0.5,7.4,3.5,9.8,5.6s4,4,10.6,9.3s21.3,10.9,26.1,16.2
	c4.8,5.3-11.2,8.8-17,11.2s-41.8,10.1-56.4,15.2s-47.4,6.7-58.8,6.4c-11.4-0.3-49.2-2.1-45.2-6.9S980,486.3,980,486.3z"/>
<path style="fill:#183B5B;" d="M373.8,454.5c0.8-0.5,19.8-14.5,23.8-15.9s5.8,0.1,8.8-2.1s11-1.5,13.8-1.5s5.4,2.6,9.5,1.5
	s6-2,10.5-0.2s6.8,5.2,10.5,5.5s7.8-0.2,9.8,1.5s7.8,5.2,10.2,6c2.3,0.8,5.3,5.8,8.3,5.2s9.5,3.2,10,2.2s3.2-3.4,5,0.2
	s13.2,12.1,13.8,16.3s4.8,9.5,9.2,12.8s5.8,8.8,11,12s16.5,5.8,15.5,7.5s-6,3-12.5,3s-29.8,0-43.8,0s-29.5,2.8-36.2,2.8s-4,0-24,0
	s-44.2,0.2-52,0s-18.2-4.2-18.8-8.5s1.5-20,3.5-25S370.5,456.6,373.8,454.5z"/>
<path style="fill:#234768;" d="M831.9,494.8c0.5-0.6,5.1-8.9,11.2-14c6-5.1,3.7-6.6,13.1-10.3c9.4-3.7,5.7-3.5,11.5-7.4
	s7.6-5.1,12.2-8.3c4.6-3.2,8-5.9,11.4-8.3c3.4-2.5,8-9.2,9-9.2s2.8-1.6,3.5-2.3c0.7-0.7,4.6,0.9,6.9,1.6c2.3,0.7,3.5,1.9,5.9,3.7
	s5.5,4.6,8.2,6.7c2.7,2.1,4.4,2.3,7.6,5.1s11.9,10.6,14.9,12.7s9.4,4.9,12.6,6.7c3.2,1.8,12.1,7.6,17.4,8.2
	c5.3,0.5,14.7,4.4,16.8,7.8c2.1,3.4,1.4,6.9,7.4,8.7c6,1.8,2.8,1.8-1.2,2s5.9-1.1-33.7,0c-39.6,1.1-86-0.9-96.1-0.7
	C860.4,497.4,830.4,496.7,831.9,494.8z"/>
<path style="fill:#122B42;" d="M958.6,493.9c-1.1-0.7-14.6-12.4-19.1-15.7c-4.5-3.3-9.8-10.6-15.2-13.4c-5.4-2.8-9.1-6.9-19-13
	c-9.9-6.1-7.3-10.2-21.9-15.4c-14.5-5.2-28.2-14.9-31.9-18s-14.6-12.2-19.6-13.7c-5-1.5-11.7-2-15.1-4.4
	c-3.4-2.4-15.5-13.9-16.6-15.6c0,0-3.3-0.6-4.5-1.6c-1.1-1-4.6-4.7-5.3-4.2c-0.7,0.5-2.1,1.9-3.8,1.3c-1.7-0.6-2.9,1.8-4.5,1.2
	s-3.7,2.8-4.7,2c-1-0.8-3.1-3.2-3.6-2.4c-0.5,0.9-4,8.8-5.7,8.1c-1.7-0.8-6.4-3.9-7.7-4.4c-1.3-0.4-3.4-1.7-5.3-2.8
	s-1.9,3.6-2.8,2.8c-1-0.8-8.1-9.7-8.3-10.3c-0.2-0.7-6.8,4.8-7.9,4.5c-1.1-0.3-3.9-0.7-5.2-1.1c-1.3-0.4-2.3-3.2-4.5-2.7
	c-2.2,0.5-3.7,0.5-5.5,0.2c-1.9-0.3-3.2,1.9-5.2,2.5c-2,0.6-5.8,6.1-8.2,6.3c-2.4,0.3-9.9,1.2-11.3,2s-5.6,6.7-8.1,7.8
	c-2.5,1.1-8.3,4.7-10.1,5.4s-6.1-0.4-7.7,1.1c-1.6,1.6-7.1,5.6-8.6,5.9c-1.5,0.2-10.7,2.4-12.8,1.2c-2.1-1.2-6-3.8-6-3.8
	s-2.7,1.8-4.5,2.5s-6.1,7.9-7,9c-0.9,1-4.1,3.5-6.2,4.8c-2.2,1.3-11.7,4.6-14,3.9s-4,4.3-6.1,4.3s-3.2,3.1-5.3,5.2s-7.2,8-7.9,8.3
	s-5.1-4.3-5.1-4.3s-5.7,4.6-5.8,6.1c-0.1,1.5-5.1,4.7-6.7,5.4c-1.6,0.7-4.9,1.2-8.3,0s-7.8,2.8-9,5.4c-1.2,2.6-5,4-5.9,7.6
	c-1,3.5-3.7,8.2-7.2,6.8s-8,6.2-11.2,9.1c-3.2,3-9.9,9.7-16.7,13.2c-6.8,3.4-12.7,7.4-18.7,9.9s-10.7,7.6-14.5,8.3
	c-3.8,0.7,26.7,0.6,52.7,0.7c26.1,0.1,69.2-1.2,88.7-1c19.5,0.2,124.3-2.4,135.8-3.2c11.5-0.8,75.5-0.2,106.7-1
	c31.2-0.8,96.5-2.3,96.4-5.4C962.9,496.2,958.6,493.9,958.6,493.9z"/>
<linearGradient id="SVGID_3_" gradientUnits="userSpaceOnUse" x1="721.7084" y1="511.6667" x2="721.7084" y2="598.4589" gradientTransform="matrix(-1.1011 3.413508e-02 4.314608e-02 0.5508 1495.2609 202.2165)">
	<stop  offset="0" style="stop-color:#122B42"/>
	<stop  offset="1" style="stop-color:#122B42;stop-opacity:0"/>
</linearGradient>
<path style="opacity:0.5;fill:url(#SVGID_3_);" d="M958.6,503c-1.1,0.4-14.1,6.8-18.5,8.6c-4.4,1.8-9.4,5.7-14.6,7.3
	c-5.2,1.6-8.8,3.8-18.5,7.2s-6.9,5.5-21.3,8.5c-14.3,3.1-27.6,8.5-31.2,10.2s-14.1,6.7-19,7.6c-5,0.9-11.6,1.4-14.9,2.7
	c-3.3,1.3-14.9,7.6-16,8.5c0,0-3.3,0.4-4.4,0.9c-1.1,0.5-4.4,2.6-5.2,2.3c-0.7-0.2-2.2-0.9-3.9-0.6c-1.7,0.4-2.9-0.8-4.6-0.5
	s-3.9-1.3-4.8-0.9c-0.9,0.4-2.9,1.7-3.5,1.3c-0.5-0.4-4.4-4.4-6-4c-1.7,0.4-6.3,2.2-7.5,2.5c-1.3,0.3-3.3,1-5.1,1.6
	c-1.8,0.6-2-1.8-2.9-1.3s-7.7,5.2-7.9,5.6c-0.2,0.3-7-2.2-8.1-2.1c-1.1,0.2-3.9,0.5-5.1,0.7c-1.3,0.3-2.2,1.7-4.4,1.5
	c-2.2-0.2-3.7-0.1-5.5,0.1c-1.8,0.2-3.3-0.9-5.3-1.1c-2-0.2-6-2.9-8.4-3c-2.4-0.1-9.9-0.3-11.4-0.7s-5.9-3.3-8.4-3.8
	c-2.6-0.5-8.4-2.1-10.3-2.5c-1.8-0.3-6.1,0.4-7.7-0.3s-7.3-2.7-8.8-2.7c-1.5-0.1-10.8-0.9-12.9-0.2c-2,0.7-5.9,2.1-5.9,2.1
	s-2.8-0.8-4.6-1.1c-1.8-0.3-6.4-3.9-7.3-4.4c-0.9-0.5-4.2-1.7-6.4-2.2c-2.2-0.6-11.9-2-14.1-1.6s-4.2-2.1-6.2-2
	c-2,0.1-3.3-1.5-5.5-2.5c-2.2-1-7.5-3.9-8.2-4c-0.7-0.2-5,2.4-5,2.4s-5.9-2.2-6-2.9s-5.3-2.3-7-2.6c-1.7-0.3-5-0.5-8.3,0.3
	c-3.3,0.7-7.9-1.2-9.2-2.5c-1.3-1.3-5.1-1.9-6.2-3.7s-4-4.1-7.5-3.3c-3.5,0.8-8.3-2.9-11.6-4.3c-3.3-1.4-10.3-4.7-17.2-6.2
	s-13-3.4-19.1-4.5c-6.1-1.1-11-3.6-14.9-3.8c-3.9-0.2,26.6-1.1,52.7-2c26.1-0.9,69.2-1.6,88.7-2.3s124.3-2.6,135.9-2.6
	c11.6,0.1,75.5-2.2,106.7-2.8c31.2-0.6,96.6-1.8,96.6-0.2C962.8,501.7,958.6,503,958.6,503z"/>
<path style="fill:#131E28;" d="M775.3,528.4c0,0,13.8-2.2,18.6-4.2s7.1-6.4,12-6.8s3.5,1.1,8.6-2.5s6.3-2.6,13.7-5.5
	c7.5-3,6.2-4.2,10.2-5.5c4-1.3,5.5-4,9.3-4c3.8,0,8.1,4.7,10.8,4.9c2.7,0.2,4.5,0.4,8.9,2.7s2.7,5.3,8.6,4.9c6-0.4,6.9-0.4,11.7-0.4
	s7.8,3.8,11.1,3.8s12.6,1.4,14.6,1.8c2,0.4,13.5,4,15.9,4.8s6.9,2.9,6.2,4.7c-0.7,1.8-2.9,3.8-2.9,3.8s-46.7-2.7-80.8-1.8
	C817.8,529.7,770.7,531.2,775.3,528.4z"/>
<linearGradient id="SVGID_4_" gradientUnits="userSpaceOnUse" x1="855.3283" y1="530.0905" x2="855.3283" y2="544.2264">
	<stop  offset="0" style="stop-color:#131E28"/>
	<stop  offset="1" style="stop-color:#131E28;stop-opacity:0"/>
</linearGradient>
<path style="opacity:0.25;fill:url(#SVGID_4_);" d="M776.6,528.8c0,0,13.5,0.9,18.3,1.8s7,2.7,11.8,2.9c4.8,0.2,3.5-0.5,8.5,1
	c5,1.5,6.1,1.1,13.5,2.3c7.3,1.3,6.1,1.8,10,2.3c3.9,0.6,5.4,1.7,9.1,1.7c3.7,0,8-2,10.6-2s4.4-0.2,8.8-1.1s2.6-2.2,8.5-2
	c5.9,0.2,6.7,0.2,11.5,0.2c4.8,0,7.6-1.6,10.9-1.6s12.4-0.6,14.4-0.8c2-0.2,13.3-1.7,15.7-2c2.4-0.4,6.7-1.2,6.1-2
	c-0.7-0.7-2.8-1.6-2.8-1.6s-45.9,1.1-79.5,0.7C818.4,528.2,772.1,527.6,776.6,528.8z"/>
<path style="fill:#131E28;" d="M0,526c0,0,105,4.7,218.3-0.7C331.7,520,356.5,521,372,519s48-5.5,62-5.5s33.5,3,36,0
	s-7-10.5-14.5-14s-17.5-8-25-11S408,477,406,474s-14.5-11.5-17-16s-9.5-18-11.5-21.5s-2-8-8.5-9s-21-2.5-25-6s-11-13-16.5-17
	s-19-14.5-24-17s-18-10.5-24.5-17S264.5,358,262,354s-7.5-6-9-6.5s-14.1-5.5-17.8-9c-3.7-3.5-11.2-12.5-14.2-15s-8-3.5-11.5-6
	s-7-5-10.5-7s-7.5,0-11-7.5s-5.5,2-8,0s-8.5-1.4-11.5-2.9c-3-1.6-6-3.6-9.5-6.1s-10-7.5-13-9s-10.5-8.5-13-9.5s-5.5-4.5-7-5.5
	s-4.5,1.5-6,0s-3.5-1.5-5-0.2c-1.5,1.2-8,10.7-12,15.7s-14,13.5-15,26S78,336,73,342s-9,14-19.5,14.5s-23-0.5-28.5-6
	S12.5,329,10.5,325S0,311,0,311V526z"/>
<linearGradient id="SVGID_5_" gradientUnits="userSpaceOnUse" x1="235.204" y1="512.7437" x2="235.204" y2="612.8032">
	<stop  offset="0" style="stop-color:#131E28"/>
	<stop  offset="1" style="stop-color:#131E28;stop-opacity:0"/>
</linearGradient>
<path style="opacity:0.5;fill:url(#SVGID_5_);" d="M0,506.9c0,0,105-2.2,218.3,0.3c113.3,2.6,138.2,2.1,153.7,3.1
	c15.5,1,48,2.6,62,2.6s33.5-1.4,36,0c2.5,1.4-7,5.1-14.5,6.7s-17.5,3.9-25,5.3c-7.5,1.4-22.5,5.5-24.5,7s-14.5,5.5-17,7.7
	s-9.5,8.7-11.5,10.4s-2,3.9-8.5,4.3c-6.5,0.5-21,1.2-25,2.9s-11,6.3-16.5,8.2s-19,7-24,8.2c-5,1.2-18,5.1-24.5,8.2s-14.5,6-17,7.9
	c-2.5,1.9-7.5,2.9-9,3.1s-14.1,2.6-17.8,4.3c-3.7,1.7-11.2,6-14.2,7.2c-3,1.2-8,1.7-11.5,2.9c-3.5,1.2-7,2.4-10.5,3.4
	c-3.5,1-7.5,0-11,3.6c-3.5,3.6-5.5-1-8,0s-8.5,0.7-11.5,1.4s-6,1.7-9.5,2.9c-3.5,1.2-10,3.6-13,4.3s-10.5,4.1-13,4.6
	c-2.5,0.5-5.5,2.2-7,2.6c-1.5,0.5-4.5-0.7-6,0s-3.5,0.7-5,0.1c-1.5-0.6-8-5.2-12-7.6s-14-6.5-15-12.5c-1-6-10-11.8-15-14.7
	c-5-2.9-9-6.7-19.5-7c-10.5-0.2-23,0.2-28.5,2.9c-5.5,2.6-12.5,10.4-14.5,12.3c-2,1.9-10.5,6.7-10.5,6.7V506.9z"/>
<path style="fill:#122335;" d="M1600,295c0,0-9.6-7.2-12-10.6c-2.4-3.5-9.3-7.7-12.8-7.7c-3.5,0-6.9,5.3-8,6.4
	c-1.1,1.1-8-2.4-10.1-3.5c-2.1-1.1-13-1.1-15.2-1.1s-1.3-2.9-4.5-3.7c-3.2-0.8-8-3.2-12.8-3.7c-4.8-0.5-13.8,5.6-14.9,6.1
	s-7.7-0.3-10.6-0.3s-10.1,0.3-14.1,1.1c-4,0.8-4.5-2.7-5.6-4.3c-1.1-1.6-6.7,1.1-9.8,0.5c-3.2-0.5-7.4-12.2-8.2-13s-4.5,1.3-6.9,2.4
	c-2.4,1.1-8.5,14.9-12,15.2c-3.5,0.3-6.1-10.9-7.4-6.7c-1.3,4.3-4.3,3.7-6.4,5.6s-10.1,0.8-14.9,2.7c-4.8,1.9-6.4,5.6-9.6,6.9
	s-8-0.5-12,1.6c-4,2.1-8,0.3-13,0.8s-10.4-6.1-11.4-5.9c-1.1,0.3-7.4,8.8-10.6,12.2c-3.2,3.5-12.8,12.8-16,14.1s-3.5,3.2-7.7,5.1
	c-4.3,1.9-6.1-2.7-6.1-2.7c-2.7,4.3-33.8,36.7-35.1,38.6c-1.3,1.9-2.1-1.6-6.4-1.6c-4.3,0-4.5,4-8,6.1c-3.5,2.1-9.8,0.5-12.8,1.6
	s-7.7,11.2-13,14.9c-5.3,3.7-12.8,10.6-17,12.5c-4.3,1.9-6.7,4.5-9.6,5.6s-8.5,8-10.6,5.9c-2.1-2.1-9-4-11.7-2.4
	c-2.7,1.6-10.9,16.2-13.8,17.7s-4.5,3.6-11.4,8.9s-6.4,5.6-15.4,10.6s-9,8.8-17.6,16.2c-8.5,7.4-14.1,10.4-18.4,12.2
	c-4.3,1.9-10.4,7.2-15.7,9.7c-5.3,2.5-14.9,3.4-20.8,3.9c-5.9,0.5-12.8-3.2-14.9-3.7s-5.3,0-10.4,2.5c-5.1,2.5-13.3,10-14.9,10
	c-1.6,0-3.7-1.3-7.4-3.3c-3.7-2-7.1,2.9-10.7,0.9c-3.6-2-5-0.6-7.1,1.6s-9,3.7-12.5,5.9c-3.5,2.1-15.2,6.4-15.2,6.4
	c-2.6,2-10.4,4.8-14.4,5.6c-4,0.8-5.1,4.4-6.7,6.1c-1.6,1.7,70.8-2,87.3-1.4c16.5,0.6,65.4,3.2,134.1,3.8
	c64.4,0.5,365.9-7.4,402.8-8.4V295z"/>
<path style="fill:#131E28;" d="M1600,356.5c-6.7-4.8-13.9-10.5-17.7-14.8c-7.7-8.7-16.7-13.3-20.4-18.3c-3.7-5-18.1-19-20.7-23.3
	c-2.7-4.3-8-5.7-10.7-6c-2.7-0.3-3.3-3-3.3-4s-2.7-5-8-7.7c-5.4-2.7-5.4-7.3-7.4-7.3c-2,0-8.4-2-14-4c-5.7-2-10,3.7-15.1,10.7
	c-5,7-9.7,7.3-16.7,12.3c-7,5-15.1,14.7-25.8,24c-10.7,9.3-31.4,34.3-51.2,47.3c-19.7,13-28.1,18.3-43.5,24.1
	c-15.4,5.7-26.4,10.3-45.8,20.3c-19.4,10-21.7,14.7-26.4,18.9c-4.7,4.3-29.1,24.1-36.1,28.1s-14.7,1.3-17.4,1.3
	c-2.7,0-11.4-3.3-15.7-2.7c-4.3,0.7-9,2.7-13.4,4.3c-4.3,1.7-8.4,0-14,0s-19.4,5.8-22.2,7.2c-2.8,1.3-6.9,7.7-9.9,9.1
	s-15.6,4.5-18.2,5.5c-2.7,1-12.4,2.5-14.2,2.7c-1.8,0.2-5.4,2-10.2,4.3c-4.8,2.3-12.5,0.8-13.4-1.2c-0.8-2-6.4,0.8-7.4-1
	c-1-1.8-4.3,0.2-7.2,1.7c-2.8,1.5-4.7-4.2-5.7-5c-1-0.8-2,2.7-2.3,6c-0.3,3.3-2.8,2.8-4.2,2.8c-1.3,0-4.5,2.3-7.5,5
	s-4.2,2.7-4.5,4.8c-0.3,2.2-2,1-4,1.3c-2,0.3-2.7-1.3-4.7-1.3c-2,0-3,3.5-5.7,5c-2.7,1.5-3.2-2.7-4.2-2.7s-2.1,1.2-2.6,3.5
	c-0.5,2.3-1.7,0-3.7-1.3c-2-1.3,0,0-4.3,3.2c-4.3,3.2-14.2,3.5-14.2,3.5c-5.9,5.3,50,2.2,68.6,6.7s40.6,4,85.8,8
	c45.2,4,85.3,7.5,143.5,10c41.6,1.8,205.8-11.6,296-19.4V356.5z"/>
<linearGradient id="SVGID_6_" gradientUnits="userSpaceOnUse" x1="1302.8702" y1="517" x2="1302.8702" y2="598.0062">
	<stop  offset="0" style="stop-color:#131E28"/>
	<stop  offset="1" style="stop-color:#131E28;stop-opacity:0"/>
</linearGradient>
<path style="opacity:0.5;fill:url(#SVGID_6_);" d="M1600,585.4c-6.7,2.1-13.9,4.7-17.7,6.6c-7.7,3.9-16.7,6-20.4,8.2
	c-3.7,2.2-18.1,8.5-20.7,10.4c-2.7,1.9-8,2.5-10.7,2.7c-2.7,0.1-3.3,1.3-3.3,1.8s-2.7,2.2-8,3.4c-5.4,1.2-5.4,3.3-7.4,3.3
	c-2,0-8.4,0.9-14,1.8c-5.7,0.9-10-1.6-15.1-4.8c-5-3.1-9.7-3.3-16.7-5.5c-7-2.2-15.1-6.6-25.8-10.7c-10.7-4.2-31.4-15.4-51.2-21.2
	c-19.7-5.8-28.1-8.2-43.5-10.8c-15.4-2.6-26.4-4.6-45.8-9.1c-19.4-4.5-21.7-6.6-26.4-8.5c-4.7-1.9-29.1-10.8-36.1-12.6
	s-14.7-0.6-17.4-0.6c-2.7,0-11.4,1.5-15.7,1.2c-4.3-0.3-9-1.2-13.4-1.9s-8.4,0-14,0s-19.4-2.6-22.2-3.2c-2.8-0.6-6.9-3.4-9.9-4.1
	c-3-0.7-15.6-2-18.2-2.5c-2.7-0.4-12.4-1.1-14.2-1.2c-1.8-0.1-5.4-0.9-10.2-1.9s-12.5-0.4-13.4,0.5c-0.8,0.9-6.4-0.4-7.4,0.4
	c-1,0.8-4.3-0.1-7.2-0.7c-2.8-0.7-4.7,1.9-5.7,2.2c-1,0.4-2-1.2-2.3-2.7c-0.3-1.5-2.8-1.3-4.2-1.3c-1.3,0-4.5-1-7.5-2.2
	c-3-1.2-4.2-1.2-4.5-2.2c-0.3-1-2-0.4-4-0.6s-2.7,0.6-4.7,0.6c-2,0-3-1.6-5.7-2.2c-2.7-0.7-3.2,1.2-4.2,1.2s-2.1-0.5-2.6-1.6
	s-1.7,0-3.7,0.6c-2,0.6,0,0-4.3-1.4c-4.3-1.4-14.2-1.6-14.2-1.6c-5.9-2.4,50-1,68.6-3s40.6-1.8,85.8-3.6
	c45.2-1.8,85.3-3.4,143.5-4.5c41.6-0.8,205.8,5.2,296,8.7V585.4z"/>
<linearGradient id="SVGID_7_" gradientUnits="userSpaceOnUse" x1="928.3276" y1="900" x2="928.3276" y2="636.2407" gradientTransform="matrix(-1 0 0 1 1116 0)">
	<stop  offset="0" style="stop-color:#0D1014"/>
	<stop  offset="1" style="stop-color:#131E28"/>
</linearGradient>
<path style="fill:url(#SVGID_7_);" d="M0.2,900h374.9c0,0-22.8-10.7-36.5-10.7c-2.2,0-1.5,0-5.5,0s-6.6,4.5-9.9-1.2
	c-3.3-5.7-7.6-8.5-7.8-7.1c-0.2,1.4-3.5,4.2-3.5-2.3c0-6.5-1.5-9.3-3.7-11.6c-2.2-2.3-2.9,0.9-6.6-2.3c-3.7-3.2-4.4-6.5-8.4-10.2
	s-4.2-23.5-6.4-29.1s-33.8-25.1-36.7-27.4s-8-8.8-8.8-11.1c-0.7-2.3-5.8,0-6.6-2.3s-11.3-9.7-12-14.4c-0.7-4.6-7.3-13.9-7.3-13.9
	s-2.2,1.4-3.3-1.9c-1.1-3.2,1.8-6.5-3.3-12.5c-5.1-6-7.3-8.3-8.4-12c-1.1-3.7-13-9.6-13-14.2c0-4.6-17.6-14.5-19.8-20.5
	c-2.2-6,14.9-20.6,15.4-23.8c1.3-9.4-15.6-18.5-19.6-29.2c-4-10.7,8.2-14.3,6.3-24.9c-1.8-10.7,2.2-14.8,2.9-20.8
	c0.7-6,3.3-13.4-1.5-16.2s39.1-12,39.3-16.1c0.7-12.9-51.9-7.5-69.6-27c-7.9-8.7-17.5-12-35-16.2S72.5,516,67,512.3s-9.1,2-16.8-7.8
	c-7.7-9.8-11.7-31.3-25.9-38.9l-24.1-9.3V900z"/>
<linearGradient id="SVGID_8_" gradientUnits="userSpaceOnUse" x1="-481.4224" y1="900" x2="-481.4224" y2="611.1478" gradientTransform="matrix(1 0 0 1 1870.4581 0)">
	<stop  offset="0" style="stop-color:#0D1014"/>
	<stop  offset="1" style="stop-color:#131E28"/>
</linearGradient>
<path style="fill:url(#SVGID_8_);" d="M1600,900h-421.9c0,0,124.2-8.6,124.8-11.7c0.6-3,25.3,0,28.4,0s18.7,4.9,21.2-1.4
	c2.5-6.3,5.8-9.3,6-7.8c0.2,1.5,2.7,4.6,2.7-2.5c0-7.1,1.1-10.1,2.8-12.7c1.7-2.5,2.2,1,5-2.5c2.8-3.6,3.4-7.1,6.4-11.2
	s4.2-8.6,7-13.2s3.9-8.1,5.6-14.2c1.7-6.1-0.3-13.7,1.4-15.7c1.7-2,4.2-9.1,6.2-9.1c2,0,4.5-1.5,5,2.5s3.4,2.5,3.9-0.5
	c0.6-3,1.7-9.1,3.9-11.7s6.2-9.6,6.7-12.2c0.6-2.5,4.5,0,5-2.5c0.6-2.5,4.5-2,5.3-6.1c0.8-4.1,3.4-4.6,3.9-9.6s5.6-15.2,5.6-15.2
	s1.7,1.5,2.5-2c0.8-3.6-1.4-7.1,2.5-13.7c3.9-6.6,5.6-9.1,6.4-13.2s40.7-8.4,40.7-13.5c0-5.1,29.8-18.8,31.4-25.4s-10.4-6-10.1-13.1
	c0.3-7.1,29.3-31.5,23.5-35.9c-15.5-12-73.5-3-70.5-14.6c3.1-11.7,7-9.1,8.4-20.8c1.4-11.7-1.7-16.2-2.2-22.8s-2.5-14.7,1.1-17.8
	c3.6-3-4-12.9-30.1-17.6c-3.6-0.7,46.1-22,53.3-29.6c7.3-7.6,13.4-13.2,26.9-17.8s25.7-5.6,29.9-9.6s7,2.2,12.9-8.6
	c5.9-10.7,9-34.3,19.9-42.5l18.5-10.1V900z"/>
</svg>
