<?xml version="1.0" encoding="utf-8"?>
<!-- Generator: Adobe Illustrator 16.0.0, SVG Export Plug-In . SVG Version: 6.00 Build 0)  -->
<!DOCTYPE svg PUBLIC "-//W3C//DTD SVG 1.1//EN" "http://www.w3.org/Graphics/SVG/1.1/DTD/svg11.dtd">
<svg version="1.1" id="Outline_Version" xmlns="http://www.w3.org/2000/svg" xmlns:xlink="http://www.w3.org/1999/xlink" x="0px"
	 y="0px" width="24px" height="24px" viewBox="0 0 24 24" enable-background="new 0 0 24 24" xml:space="preserve">
<g>
	<path d="M14.513,5h-5.5c-0.276,0-0.5,0.224-0.5,0.5S8.736,6,9.013,6h5.5c0.276,0,0.5-0.224,0.5-0.5S14.789,5,14.513,5z"/>
	<path d="M14.513,8h-5.5c-0.276,0-0.5,0.224-0.5,0.5S8.736,9,9.013,9h5.5c0.276,0,0.5-0.224,0.5-0.5S14.789,8,14.513,8z"/>
	<path d="M14.513,11h-5.5c-0.276,0-0.5,0.224-0.5,0.5s0.224,0.5,0.5,0.5h5.5c0.276,0,0.5-0.224,0.5-0.5S14.789,11,14.513,11z"/>
	<path d="M14.513,14h-5.5c-0.276,0-0.5,0.224-0.5,0.5s0.224,0.5,0.5,0.5h5.5c0.276,0,0.5-0.224,0.5-0.5S14.789,14,14.513,14z"/>
	<path d="M21.013,0c-0.114,0-0.222,0.021-0.333,0.034C20.627,0.015,20.572,0,20.513,0h-12c-1.93,0-3.5,1.57-3.5,3.5V17h-1.5
		c-1.93,0-3.5,1.57-3.5,3.5s1.57,3.5,3.5,3.5h12c1.93,0,3.5-1.57,3.5-3.5V4h4.5c0.276,0,0.5-0.224,0.5-0.5
		C24.013,1.439,22.779,0,21.013,0z M3.513,23c-1.378,0-2.5-1.121-2.5-2.5s1.122-2.5,2.5-2.5h9.553
		c-0.649,0.636-1.053,1.521-1.053,2.5s0.403,1.864,1.053,2.5H3.513z M18.013,20.5c0,1.379-1.122,2.5-2.5,2.5s-2.5-1.121-2.5-2.5
		s1.122-2.5,2.5-2.5c0.276,0,0.5-0.224,0.5-0.5s-0.224-0.5-0.5-0.5h-9.5V3.5c0-1.378,1.122-2.5,2.5-2.5h10.28
		c-0.479,0.532-0.78,1.229-0.78,2V20.5z M19.013,3c0-1.103,0.897-2,2-2c1.058,0,1.808,0.785,1.968,2H19.013z"/>
</g>
</svg>
