<?xml version="1.0" standalone="no"?>
<!DOCTYPE svg PUBLIC "-//W3C//DTD SVG 20010904//EN"
 "http://www.w3.org/TR/2001/REC-SVG-20010904/DTD/svg10.dtd">
<svg version="1.0" xmlns="http://www.w3.org/2000/svg" width="400.000000pt" height="400.000000pt" viewBox="0 0 400.000000 400.000000" preserveAspectRatio="xMidYMid meet" fill="#1d283a">
<g transform="translate(0.000000,400.000000) scale(0.100000,-0.100000)" stroke="none">
<path d="M2915 3740 c-143 -5 -482 -13 -754 -19 l-493 -11 -140 -39 c-77 -22
-151 -48 -166 -57 -15 -10 -96 -72 -182 -138 -85 -67 -173 -134 -196 -151 -24
-16 -61 -43 -83 -59 l-41 -28 -35 31 c-64 55 -70 50 -185 -164 -51 -93 -93
-171 -94 -172 -1 -2 -88 -19 -192 -38 -152 -29 -192 -40 -206 -56 -10 -12 -18
-27 -18 -33 0 -7 45 -85 100 -173 l100 -161 0 -237 0 -237 39 -87 c22 -47 80
-171 131 -276 148 -306 145 -300 164 -475 10 -85 23 -161 29 -170 15 -19 116
-138 140 -165 10 -11 33 -37 50 -58 39 -48 49 -53 228 -120 79 -30 270 -103
424 -162 154 -59 314 -120 356 -135 41 -15 98 -37 125 -48 132 -54 117 -52
417 -51 155 0 365 4 467 8 l185 7 135 52 c150 59 260 103 260 106 0 1 30 67
66 147 166 363 162 354 173 446 47 413 52 444 97 553 l43 106 -19 92 c-38 182
-44 196 -109 275 l-61 74 -45 224 c-54 273 -123 469 -233 662 l-70 124 5 244
c6 254 1 305 -35 349 -23 29 -47 30 -377 20z m245 -365 l0 -265 40 -80 c22
-44 38 -80 36 -80 -4 0 -158 -40 -296 -76 -98 -26 -209 -55 -377 -99 -532
-139 -685 -179 -729 -193 -44 -15 -84 -47 -270 -220 -121 -112 -224 -213 -230
-225 -6 -12 -30 -87 -54 -167 -23 -80 -58 -194 -76 -254 -19 -60 -34 -113 -34
-118 0 -5 27 -48 60 -96 33 -48 71 -117 85 -154 l24 -67 -28 -21 c-16 -11 -33
-20 -38 -20 -4 1 -35 37 -68 81 -33 44 -100 117 -149 162 l-89 82 -116 0 c-64
0 -134 -2 -156 -5 l-40 -5 -42 74 c-50 88 -78 156 -127 306 -35 106 -36 117
-47 340 -12 254 -3 217 -97 382 -23 39 -43 77 -44 83 -3 11 247 100 282 100
13 0 37 30 77 96 65 107 67 111 106 172 21 33 32 42 45 36 9 -4 29 -9 44 -11
27 -5 30 -3 216 138 64 48 181 129 187 129 2 0 24 13 47 29 205 139 234 147
603 161 127 5 340 13 475 19 135 5 295 11 355 11 61 1 166 5 235 9 69 4 140 9
158 9 l32 2 0 -265z m210 -686 c46 -94 92 -175 101 -180 9 -4 21 -28 27 -51
20 -84 55 -359 46 -368 -9 -8 -100 -49 -374 -165 -142 -61 -50 -45 -1190 -204
-316 -45 -602 -85 -635 -90 -33 -5 -62 -7 -64 -5 -2 1 24 94 57 206 33 112 62
214 65 228 4 14 39 57 79 96 128 123 357 334 364 334 3 0 49 12 102 26 54 14
174 45 267 70 94 24 220 57 280 73 61 16 225 59 365 96 140 37 284 76 320 85
108 30 95 40 190 -151z m265 -731 c2 -7 23 -65 46 -130 l42 -116 -24 -76 -23
-75 -111 -41 c-179 -65 -152 -74 -287 88 l-117 140 57 28 c31 15 133 65 225
111 93 46 173 83 178 83 5 0 11 -6 14 -12z m-527 -296 c63 -87 153 -256 167
-313 7 -28 15 -26 -223 -66 -57 -9 -77 -69 -33 -93 23 -12 308 27 338 46 14 9
27 32 34 59 6 25 15 47 19 50 15 9 252 57 257 52 5 -5 -6 -100 -42 -357 -11
-84 -23 -117 -90 -266 l-78 -170 -161 -91 -161 -92 -170 -29 c-93 -17 -188
-33 -210 -36 -46 -6 -165 3 -429 34 -170 20 -188 24 -380 91 -110 39 -230 81
-266 94 -36 13 -137 48 -225 79 -284 98 -320 112 -344 128 -13 9 -49 27 -80
39 -81 32 -97 45 -167 127 -73 86 -96 144 -113 292 -7 52 -19 123 -28 158 -9
34 -13 65 -10 69 4 3 55 5 114 4 l107 -2 66 -61 c36 -34 103 -112 150 -173 54
-70 93 -111 106 -113 32 -5 184 112 184 141 0 12 -13 56 -29 97 -35 89 -47 79
129 105 69 10 212 32 318 50 106 17 196 27 199 23 3 -5 15 -13 27 -18 15 -5
39 -46 81 -140 56 -124 63 -135 117 -176 31 -23 78 -53 104 -64 l46 -22 102
20 c55 11 142 28 191 37 50 9 100 23 113 31 12 8 42 45 67 82 l45 67 22 177
c17 137 26 178 38 182 44 12 57 5 98 -52z m-215 31 c3 -5 -4 -73 -15 -153 -17
-129 -22 -151 -53 -200 l-33 -55 -114 -22 c-62 -12 -141 -27 -175 -33 l-62
-12 -60 37 c-33 20 -66 45 -74 54 -23 25 -117 246 -117 273 0 23 4 24 148 43
119 15 516 69 544 74 4 0 9 -2 11 -6z"/>
<path d="M3330 2460 c-96 -10 -154 -29 -277 -93 -72 -37 -72 -38 -14 -129 l36
-57 68 40 c86 52 159 76 249 84 40 4 78 8 85 10 20 6 -34 155 -55 153 -10 0
-51 -4 -92 -8z"/>
<path d="M2565 2253 c-91 -7 -260 -43 -363 -77 -56 -19 -106 -37 -110 -40 -7
-4 22 -142 32 -153 2 -2 36 9 77 23 105 36 245 62 382 70 l117 7 10 36 c5 20
16 57 24 83 7 26 11 49 8 52 -5 6 -86 5 -177 -1z"/>
</g>
</svg>
