<?xml version="1.0" standalone="no"?>
<!DOCTYPE svg PUBLIC "-//W3C//DTD SVG 20010904//EN"
 "http://www.w3.org/TR/2001/REC-SVG-20010904/DTD/svg10.dtd">
<svg version="1.0" xmlns="http://www.w3.org/2000/svg"
 width="300.000000pt" height="300.000000pt" viewBox="0 0 300.000000 300.000000"
 preserveAspectRatio="xMidYMid meet" id="logo" fill="#00addc">
<metadata>
Created by potrace 1.13, written by Peter Selinger 2001-2015
</metadata>
<g transform="translate(0.000000,300.000000) scale(0.100000,-0.100000)" stroke="none">
<path d="M1534 2877 c-128 -33 -203 -109 -333 -337 l-92 -162 89 -157 c50 -86
96 -156 102 -156 7 0 64 90 126 200 63 110 127 213 143 228 35 35 90 49 153
37 59 -12 62 -13 338 -168 165 -93 240 -142 281 -182 65 -62 85 -113 69 -169
-8 -30 -122 -238 -207 -380 -18 -30 -33 -58 -33 -63 0 -4 85 -8 188 -8 l188 0
45 77 c169 296 184 336 176 457 -6 95 -29 154 -91 235 -44 57 -142 142 -223
194 -77 49 -437 253 -497 281 -154 72 -316 100 -422 73z"/>
<path d="M644 2310 c-95 -7 -121 -13 -177 -39 -124 -59 -204 -173 -244 -346
-16 -70 -18 -126 -18 -430 0 -400 8 -461 75 -600 67 -139 167 -213 315 -235
79 -11 320 -12 379 -2 38 7 41 10 131 167 51 88 91 161 90 163 -2 2 -109 3
-239 2 -136 0 -254 4 -276 10 -22 6 -51 25 -69 45 -53 61 -60 107 -63 440 -3
336 3 382 62 442 45 46 91 53 344 53 124 0 226 2 226 4 0 10 -185 321 -195
328 -12 9 -189 8 -341 -2z"/>
<path d="M2333 1410 l-143 -5 117 -200 c125 -214 138 -253 114 -328 -16 -49
-108 -131 -212 -190 -46 -26 -129 -75 -184 -108 -220 -131 -308 -163 -395
-139 -44 12 -90 53 -117 105 -8 17 -46 82 -83 145 -37 63 -79 134 -93 158
l-24 44 -87 -151 c-47 -83 -86 -153 -86 -156 0 -13 176 -304 207 -342 44 -55
108 -99 181 -124 119 -42 299 -7 488 96 539 294 702 435 745 643 21 99 -2 173
-113 367 -106 187 -113 196 -147 193 -14 -1 -90 -5 -168 -8z"/>
</g>
</svg>
