<?xml version="1.0" standalone="no"?>
<!DOCTYPE svg PUBLIC "-//W3C//DTD SVG 20010904//EN"
 "http://www.w3.org/TR/2001/REC-SVG-20010904/DTD/svg10.dtd">
<svg version="1.0" xmlns="http://www.w3.org/2000/svg"
 width="256.000000pt" height="256.000000pt" viewBox="0 0 256.000000 256.000000"
 preserveAspectRatio="xMidYMid meet">
<g transform="translate(0.000000,256.000000) scale(0.100000,-0.100000)" stroke="none" id="logo">
<path d="M1350 1984 l0 -181 287 -324 287 -324 -462 -5 -461 -5 107 -122 107
-123 654 0 c618 0 653 1 640 17 -8 10 -266 288 -573 618 -307 330 -565 607
-573 615 -11 12 -13 -14 -13 -166z"/>
<path d="M86 1598 c21 -24 284 -306 584 -627 l545 -584 3 177 2 177 -285 322
-285 322 460 3 c253 1 460 5 460 8 0 3 -48 59 -107 124 l-106 120 -655 0 -654
0 38 -42z"/>
<path d="M1880 615 l-125 -125 281 0 280 0 80 92 c43 51 92 108 108 125 l28
33 -264 0 -263 0 -125 -125z"/>
</g>
</svg>
