<?xml version="1.0" encoding="UTF-8" standalone="no"?>
<svg width="876px" height="876px" viewBox="0 0 876 876" version="1.1" xmlns="http://www.w3.org/2000/svg" xmlns:xlink="http://www.w3.org/1999/xlink" id="logo">
    <!-- Generator: Sketch 39.1 (31720) - http://www.bohemiancoding.com/sketch -->
    <title>cat 2</title>
    <desc>Created with Sketch.</desc>
    <defs></defs>
    <g id="Page-1" stroke="none" stroke-width="1" fill="none" fill-rule="evenodd">
        <g id="cat">
            <path d="M0.65,0.05 C0.88,0.36 1.34,0.97 1.57,1.27 C125.9,83.98 250.07,166.93 374.35,249.71 C375.37,250.56 376.71,250.5 377.96,250.51 C408.97,250.47 439.97,250.51 470.98,250.5 C481.01,250.17 491.25,251.13 501.15,250.03 C625.61,167.18 749.93,84.1 874.42,1.28 C874.66,0.97 875.14,0.36 875.38,0.06 C874.04,20.41 871.58,40.71 870.09,61.07 C869.23,65.25 869.66,69.57 868.74,73.74 C866.98,95.77 864.87,117.79 862.74,139.78 C862.49,143.14 862.51,146.55 861.82,149.87 C859.73,175.55 857.26,201.22 854.84,226.86 C853.03,248.92 850.92,270.97 848.83,292.99 L848.75,293.09 C847.1,315.34 844.84,337.57 842.73,359.77 C842.54,362.85 842.42,365.95 842.08,369.03 C840.44,384.95 839.25,400.92 837.57,416.84 L837.58,417.03 C837.41,419.95 837.28,422.89 836.73,425.78 C834.88,450.59 832.08,475.35 830.19,500.17 C828.12,520.03 826.64,539.97 824.58,559.84 L824.59,560.08 C824.41,562.98 824.25,565.9 823.73,568.78 C821.93,591.38 819.77,613.96 817.58,636.53 C817.57,636.88 817.55,637.6 817.54,637.95 C816.95,643.92 816.62,649.92 815.82,655.87 C815.06,666.57 814.13,677.29 812.85,687.94 C773.97,707.72 734.81,727.01 695.82,746.6 C611.54,788.76 527.23,830.85 442.97,873.06 C440.96,873.83 439.13,875.62 436.87,875.38 C432.14,873.12 427.52,870.62 422.83,868.27 C419.52,866.56 416.19,864.88 412.86,863.21 C412.25,862.92 411.03,862.34 410.42,862.05 L410.4,861.82 C313.82,813.31 217.08,765.1 120.43,716.72 C101.36,707.08 82.09,697.77 63.14,687.92 C61.86,677.28 60.97,666.56 60.18,655.87 C59.48,652.54 59.51,649.14 59.27,645.78 C58.7,642.91 58.57,639.99 58.44,637.09 L58.45,636.87 C56.86,621.22 55.43,605.54 54.15,589.86 C53.48,586.53 53.48,583.12 53.27,579.75 C52.53,576.14 52.53,572.44 52.28,568.79 C50.44,550.16 48.62,531.5 47.19,512.83 C46.49,509.52 46.49,506.13 46.27,502.78 C43.79,477.14 41.36,451.46 39.27,425.78 C37.41,407.17 35.67,388.51 34.17,369.86 C33.61,367.2 33.51,364.48 33.4,361.78 C33.33,360.81 33.25,359.85 33.16,358.89 C30.55,332.67 28.42,306.36 25.83,280.15 C24.14,258.23 21.68,236.37 20.07,214.44 C17.95,192.94 15.91,171.4 14.18,149.86 C13.48,146.54 13.51,143.14 13.27,139.77 C11.1,117.5 8.98,95.19 7.18,72.89 C5,50.92 3.06,28.89 1.09,6.89 C0.64,4.64 0.6,2.34 0.65,0.05 L0.65,0.05 Z" id="Shape" fill="#1A2836"></path>
            <path d="M55.29,92.37 C56.78,93.29 57.87,94.84 59.44,95.72 C151.23,156.82 242.9,218.1 334.72,279.15 C331.19,289.25 327,299.1 323.28,309.13 C321.53,313.43 319.82,317.75 318.27,322.13 C317.59,323.77 316.93,325.42 316.3,327.08 C315.6,328.73 314.97,330.41 314.31,332.09 C313.29,334.74 312.23,337.39 311.32,340.09 C311.04,340.81 310.46,342.25 310.17,342.97 C309.78,343.66 309.51,344.39 309.34,345.16 C308.78,346.38 308.22,347.61 307.74,348.87 C306.54,352.21 305.3,355.54 303.95,358.82 C303.75,359.45 303.35,360.71 303.15,361.34 L302.76,361.69 C302.16,363.42 301.48,365.11 300.79,366.81 C300.42,367.83 300.05,368.84 299.68,369.86 C299.05,371.54 298.4,373.2 297.75,374.87 C297.1,376.56 296.43,378.25 295.72,379.93 C294,384.27 292.49,388.7 290.61,392.98 C290.55,393.27 290.43,393.85 290.37,394.15 C289.8,395.39 289.27,396.66 288.73,397.92 C286.43,403.92 284.18,409.94 281.77,415.9 C273.82,436.56 265.8,457.18 257.8,477.82 C257.16,479.5 256.52,481.18 255.86,482.86 C254.63,485.94 253.43,489.03 252.31,492.15 C251.77,493.39 251.22,494.63 250.65,495.87 C250.6,496.16 250.5,496.74 250.44,497.03 C248.59,501.33 246.97,505.73 245.32,510.12 C244.8,511.38 244.31,512.66 243.81,513.94 C243.62,514.33 243.23,515.11 243.04,515.5 C242.9,515.49 242.61,515.47 242.47,515.46 L242.36,515.85 C242.42,518.44 241.05,520.72 240.27,523.13 C239.09,526.04 238.01,529 236.81,531.91 C234.45,537.89 232.25,543.93 229.82,549.88 C229.18,551.55 228.53,553.22 227.87,554.9 C226.86,557.58 225.86,560.26 224.78,562.92 C224.14,564.57 223.49,566.23 222.83,567.89 C222.29,569.31 221.72,570.73 221.21,572.17 C220.7,573.39 220.2,574.61 219.69,575.84 C217.95,578.45 218.64,581.31 220.13,583.84 C220.66,585.27 221.22,586.7 221.74,588.15 C222.97,591.03 224.09,593.95 225.31,596.84 C225.56,597.55 225.84,598.27 226.14,598.99 C227.13,601.62 228.14,604.26 229.21,606.87 C230.03,608.94 230.91,611 231.68,613.11 C232.21,614.35 232.73,615.59 233.26,616.85 C233.76,618.29 234.3,619.72 234.8,621.17 C235.63,623.06 236.41,624.97 237.19,626.89 C237.87,628.63 238.57,630.37 239.28,632.11 C240.14,634.46 241.05,636.79 241.99,639.12 C242.17,639.62 242.54,640.64 242.72,641.14 C243.31,642.4 243.88,643.67 244.48,644.95 C244.51,645.24 244.58,645.81 244.61,646.1 C245.19,647.32 245.77,648.56 246.33,649.81 C246.91,651.5 247.53,653.18 248.18,654.86 C248.89,656.56 249.59,658.28 250.3,660 C250.83,661.37 251.38,662.75 251.93,664.13 C253.23,667.47 254.54,670.81 255.83,674.16 C260.93,686.76 265.84,699.44 270.86,712.08 C273.04,717.31 274.94,722.66 277.14,727.9 C278.36,730.99 279.63,734.06 280.75,737.2 C281.26,738.42 281.79,739.65 282.33,740.88 C282.42,741.15 282.59,741.68 282.67,741.95 C283.03,743 283.73,745.08 284.08,746.12 C225.51,716.9 166.98,687.56 108.42,658.33 C106.93,657.66 107.2,655.6 106.64,654.32 C106.44,647.24 105.59,640.18 104.84,633.15 C100.95,588.83 96.98,544.5 92.73,500.22 C92.55,497.13 92.42,494.04 92.1,490.96 C90.34,472.64 88.56,454.29 87.1,435.93 C86.44,432.6 86.45,429.2 86.23,425.82 C83.79,403 82.14,380.04 79.73,357.21 C79.51,353.84 79.51,350.44 78.83,347.13 C77.69,331.6 76.06,316.11 74.66,300.61 L74.32,300.7 C74.37,300.29 74.49,299.46 74.54,299.04 C74.46,296.71 74.22,294.39 73.93,292.08 C73.35,288.15 73.57,284.13 72.74,280.23 C72.52,276.87 72.5,273.47 71.84,270.15 C70.43,251.78 68.48,233.44 66.93,215.08 C66.4,211.4 66.56,207.65 65.83,204 L65.76,203.98 C64.64,186.6 62.56,169.3 61.22,151.93 C60.42,147.06 60.67,142.08 59.73,137.23 C59.51,133.86 59.51,130.47 58.83,127.15 C57.85,115.55 57.22,103.84 55.29,92.37 L55.29,92.37 Z" id="Shape" fill="#B92929"></path>
            <path d="M820.04,92.88 C820.33,92.57 820.68,92.44 821.12,92.48 L820.06,93.41 C819.07,105.2 818.07,117.08 816.79,128.86 C816.49,132.44 816.42,136.03 816.07,139.6 C815.39,142.98 815.28,146.46 815.61,149.9 L815.47,150.66 C815.28,151.23 814.92,152.36 814.73,152.93 C812.99,171.62 811.39,190.33 809.55,208.99 C809.49,211.61 809.34,214.23 808.81,216.8 C807.61,232.84 805.97,248.85 804.49,264.87 L804.51,264.98 C804.07,270.72 803.36,276.43 803.09,282.18 C798.9,325.82 795.02,369.49 791.15,413.16 C788.4,442.45 785.6,471.78 783.19,501.12 C780.87,523.67 779.11,546.33 776.8,568.88 C776.49,572.51 776.53,576.19 775.82,579.79 C774.56,597.6 772.43,615.35 771.16,633.16 C770.48,636.47 770.47,639.86 770.27,643.23 C769.24,648.1 769.82,653.16 768.48,657.99 C710.89,686.47 653.55,715.45 596.03,744.07 C593.84,745.14 591.65,746.21 589.63,747.57 L589.25,747.52 L589.17,747.06 C592.75,740.03 595.08,732.46 598.21,725.23 C602.65,713.74 607.29,702.33 611.75,690.85 C613.7,686.31 615.37,681.66 617.21,677.08 C618.02,675.01 618.9,672.97 619.7,670.9 C620.91,667.98 622.01,665.02 623.14,662.08 C623.81,660.42 624.47,658.76 625.15,657.1 C625.82,655.44 626.5,653.79 627.2,652.16 C628.17,649.44 629.21,646.76 630.28,644.09 C630.94,642.4 631.64,640.72 632.35,639.05 C632.97,637.4 633.63,635.76 634.32,634.15 C634.92,632.45 635.55,630.75 636.22,629.07 C636.88,627.39 637.56,625.72 638.26,624.06 C639.47,621 640.73,617.95 641.89,614.87 C642.53,613.2 643.18,611.54 643.82,609.88 C646.6,603.27 649.09,596.55 651.74,589.9 C653.04,586.28 655.11,582.82 655.7,579.03 C654.63,575.66 653.17,572.43 651.88,569.15 C650.3,565.02 648.67,560.92 647.18,556.76 C646.39,554.91 645.65,553.03 644.9,551.17 C644.24,549.47 643.59,547.79 642.95,546.11 C640.37,539.07 637.44,532.17 634.86,525.14 C634.31,523.71 633.75,522.29 633.23,520.87 C632.54,519.2 631.87,517.54 631.22,515.88 C630.53,514.21 629.9,512.52 629.27,510.84 C628.88,509.84 628.52,508.84 628.18,507.84 C627.51,506.2 626.87,504.58 626.25,502.94 C625.53,501.28 624.91,499.59 624.25,497.92 C623.16,495.26 622.19,492.56 621.21,489.87 C620.51,488.22 619.87,486.57 619.24,484.91 C618.12,482.26 617.1,479.57 616.07,476.89 C614.87,473.53 613.51,470.24 612.26,466.92 C611.72,465.66 611.19,464.4 610.68,463.16 C610.16,461.71 609.63,460.27 609.13,458.83 C607.95,455.88 606.87,452.88 605.55,449.99 C605.51,449.72 605.43,449.17 605.39,448.9 C604.8,447.65 604.24,446.4 603.69,445.16 C602.74,442.43 601.76,439.71 600.61,437.08 C600.53,436.76 600.37,436.14 600.3,435.83 C599.73,434.57 599.19,433.32 598.66,432.07 C596.35,426.08 594.13,420.05 591.73,414.1 C588.2,404.78 584.48,395.53 580.97,386.21 C576.37,374.45 571.75,362.7 567.32,350.88 C566.78,349.64 566.24,348.41 565.7,347.19 C565.62,346.88 565.47,346.26 565.39,345.95 C564.22,343.31 563.2,340.6 562.26,337.87 C561.72,336.63 561.19,335.39 560.65,334.17 C560.6,333.86 560.49,333.24 560.44,332.94 C559.83,331.67 559.29,330.39 558.74,329.12 C557.58,326.03 556.35,322.97 555.28,319.86 C554.75,318.59 554.25,317.33 553.73,316.08 C552.96,314 552.1,311.96 551.33,309.89 C550.81,308.64 550.33,307.4 549.82,306.16 C549.3,304.7 548.78,303.27 548.3,301.82 C547.76,300.57 547.25,299.32 546.73,298.09 C545.95,295.97 545.09,293.89 544.28,291.8 C543.78,290.55 543.32,289.3 542.83,288.06 C542.32,286.64 541.79,285.23 541.32,283.81 C540.78,282.74 540.2,281.7 539.64,280.66 C549.08,273.57 559.21,267.48 568.92,260.78 C648.71,207.61 728.48,154.41 808.26,101.24 C812.2,98.47 816.5,96.17 820.04,92.88 L820.04,92.88 Z" id="Shape" fill="#2980B9"></path>
            <path d="M378.1,297.48 C417.43,297.35 456.77,297.46 496.1,297.43 C496.91,299.97 497.75,302.51 498.7,305.02 C502.41,311.59 503.55,319.25 507.3,325.82 C508.81,331.81 511.72,337.26 513.77,343.06 C515.63,349.47 519.12,355.22 520.92,361.65 C522.48,366.99 525.67,371.7 526.94,377.15 C528.27,381.96 531.17,386.14 532.36,390.99 C533.53,396.08 536.58,400.43 538.12,405.39 C539.44,408.94 539.87,412.84 541.88,416.11 C544.74,420.73 545.41,426.29 547.94,431.08 C550.39,435.91 551.43,441.3 553.76,446.18 C556.52,452.01 557.94,458.37 560.9,464.11 C562.53,468.38 563.96,472.73 565.64,476.99 C568.14,481.91 569.36,487.37 571.68,492.37 C574.93,498.62 575.62,505.92 579.42,511.92 C581.6,517.29 582.49,523.22 585.82,528.09 C587.41,532.87 588.49,537.9 591.09,542.28 C593.57,546.78 593.95,552.1 596.42,556.61 C597.51,558.61 598.38,560.73 599.37,562.8 C544.91,563.14 490.44,562.85 435.98,562.95 C382.36,562.92 328.74,563 275.12,562.91 C275.94,560.45 276.8,557.97 278.34,555.87 C280.38,551.11 281.01,545.8 283.71,541.33 C286.55,536.46 286.92,530.59 289.74,525.71 C292.3,521.31 292.98,516.15 295.01,511.53 C298.73,505.63 299.44,498.45 302.6,492.28 C305.18,487.07 306.14,481.15 309.15,476.15 C309.29,475.59 309.58,474.47 309.73,473.91 C311.53,469.13 313.23,464.31 315.35,459.66 C317.49,453.81 319.52,447.91 322.22,442.29 C322.5,441.25 322.8,440.21 323.11,439.19 C325.12,433.06 328.43,427.43 329.95,421.13 C331.21,418.05 333.01,415.23 334.26,412.14 C335.53,404.35 340.05,397.74 342.23,390.25 C342.46,389.19 342.71,388.13 342.96,387.08 C345.85,382.42 347.33,377.11 349,371.93 C352.81,365.69 353.57,358.15 357.31,351.91 C360.02,343.15 364.19,334.97 366.9,326.22 C368.37,322.38 370.46,318.8 371.54,314.82 C373.13,308.8 376.7,303.56 378.1,297.48 L378.1,297.48 Z" id="Shape" fill="#FBFBFB"></path>
            <path d="M292.49,638.6 C302.33,640.85 312.23,642.85 322.12,644.9 C335.04,647.62 347.97,650.34 360.89,653.04 C368.66,654.6 376.37,656.38 384.14,657.88 C386.03,658.35 387.96,658.66 389.86,659.14 C398.44,660.85 406.99,662.66 415.53,664.57 C415.54,673.16 415.5,681.75 415.55,690.34 C388.65,708.84 362.03,727.75 334.99,746.02 C333.71,740.67 330.08,736.27 329.12,730.81 C328.77,729.8 328.44,728.8 328.13,727.81 C323.97,721.61 323.13,713.96 319.53,707.5 C318.16,704.36 317.03,701.14 316.05,697.87 C315.73,696.87 315.42,695.89 315.11,694.91 C312.09,690.34 310.94,684.9 308.8,679.93 C305.46,673.15 303.76,665.72 300.32,658.98 C298.38,651.91 294.7,645.56 292.49,638.6 L292.49,638.6 Z" id="Shape" fill="#FFFFFF"></path>
            <path d="M579.15,639.15 C580,638.88 580.85,638.64 581.72,638.41 C581.15,640.23 580.55,642.04 580.02,643.88 C576.31,650.13 575.13,657.43 571.74,663.82 C569.83,668.06 568.79,672.62 566.91,676.88 C563.83,682.62 562.67,689.19 559.35,694.83 C557.29,700.2 555.91,705.87 553.05,710.92 C550.87,716.88 549.08,722.98 545.94,728.53 C544.47,734.25 541.76,739.45 539.53,744.88 L538.25,744.81 C512.33,727.1 486.67,708.99 460.79,691.22 C459.79,690.49 458.44,689.55 458.84,688.09 C458.78,680.21 458.86,672.32 458.81,664.44 C487.81,658 516.97,652.21 546.02,646.01 C557.09,643.82 568.08,641.26 579.15,639.15 L579.15,639.15 Z" id="Shape" fill="#FFFFFF"></path>
            <path d="M434.47,740.66 C435.78,739.87 437.51,738.2 439,739.61 C461.68,755.26 484.37,770.9 506.92,786.74 C504.62,787.81 502.37,788.97 500.12,790.12 C496.39,792.07 492.58,793.85 488.84,795.78 C484.41,797.95 480.2,800.53 475.8,802.74 C471.2,805.15 466.49,807.33 461.89,809.73 C457.9,811.78 453.84,813.71 449.84,815.73 C445.94,818.4 441.61,820.29 437.56,822.7 C432.74,820.78 428.28,818.13 423.85,815.47 C411.18,809.1 398.41,802.93 386,796.08 C379.96,793.03 373.9,790.03 367.89,786.95 C389.99,771.39 412.33,756.16 434.47,740.66 L434.47,740.66 Z" id="Shape" fill="#FFFFFF"></path>
        </g>
    </g>
</svg>