<?xml version="1.0" encoding="UTF-8" ?>
<!DOCTYPE svg PUBLIC "-//W3C//DTD SVG 1.1//EN" "http://www.w3.org/Graphics/SVG/1.1/DTD/svg11.dtd">
<svg width="167pt" height="118pt" viewBox="0 0 167 118" version="1.1" xmlns="http://www.w3.org/2000/svg" id="logo" fill="#2f71bb">
<path d=" M 129.54 11.72 C 131.04 8.45 131.54 4.74 133.75 1.80 C 135.27 3.43 136.42 5.41 138.13 6.85 C 141.58 9.17 145.76 10.29 148.77 13.28 C 146.40 15.47 143.33 16.84 141.33 19.43 C 139.49 21.87 139.05 24.97 138.41 27.87 C 143.52 27.41 148.73 25.94 153.81 27.62 C 153.68 31.01 151.88 33.74 148.99 35.41 C 150.69 37.82 150.76 40.71 150.73 43.54 C 148.76 44.72 146.72 45.76 144.59 46.62 C 145.04 47.99 145.50 49.36 145.96 50.72 C 143.26 52.94 140.87 55.49 139.01 58.46 C 137.53 58.00 136.05 57.52 134.57 57.07 C 133.94 62.39 133.31 67.70 133.34 73.07 C 132.32 78.17 131.54 84.63 126.21 87.10 C 121.87 89.86 116.28 89.44 111.91 87.01 C 109.42 84.65 109.42 80.92 108.03 77.96 C 107.27 75.31 103.73 74.89 102.95 72.17 C 101.18 69.42 101.60 66.10 101.43 63.00 C 101.40 60.06 100.59 57.23 100.03 54.36 C 101.23 53.61 102.44 52.87 103.65 52.15 C 105.09 57.78 104.79 63.65 105.52 69.36 C 107.61 71.57 110.22 73.21 113.07 74.25 C 114.15 68.76 114.68 63.24 113.34 57.73 C 111.21 57.60 109.07 57.48 106.95 57.23 C 107.01 52.33 111.90 50.19 115.93 49.06 C 118.84 49.29 121.73 49.73 124.62 50.16 C 124.61 51.38 124.62 52.60 124.63 53.83 C 123.17 54.63 121.69 55.40 120.22 56.17 C 120.71 59.56 120.16 63.14 121.41 66.38 C 123.47 67.83 125.58 69.19 127.71 70.52 C 132.40 64.06 131.12 55.69 130.73 48.22 C 134.38 48.85 138.07 48.99 141.77 48.67 C 139.74 47.10 137.61 45.66 135.72 43.92 C 139.59 41.89 144.20 43.42 147.90 40.88 C 145.33 38.70 141.30 38.20 139.74 34.98 C 138.61 32.84 136.32 31.73 134.78 29.95 C 134.82 23.88 137.15 18.16 141.16 13.64 C 138.97 12.28 136.82 10.85 134.67 9.43 C 130.73 15.36 129.33 22.45 126.06 28.70 C 119.31 26.98 110.74 27.17 106.12 33.16 C 104.97 34.11 104.08 36.06 102.31 35.63 C 96.36 30.78 92.29 24.13 88.12 17.78 C 85.97 20.20 83.97 22.74 81.82 25.16 C 84.95 25.96 88.21 27.12 89.97 30.05 C 92.72 34.45 95.14 39.06 97.96 43.43 C 96.70 43.86 95.54 45.23 94.12 44.83 C 90.88 43.88 87.66 42.86 84.34 42.22 C 84.30 42.83 84.23 44.05 84.19 44.66 C 86.63 44.75 89.08 44.79 91.53 44.78 C 91.56 45.71 91.64 47.58 91.67 48.51 C 88.19 49.64 85.13 51.77 83.50 55.13 C 86.93 56.35 90.27 55.11 93.49 53.94 C 93.12 56.01 92.67 58.08 92.23 60.14 C 93.88 59.11 95.55 58.10 97.24 57.13 C 98.49 58.92 99.39 60.91 99.77 63.08 C 96.61 63.31 93.57 64.27 90.44 64.60 C 88.09 63.96 88.11 61.37 87.60 59.44 C 84.80 59.66 81.80 59.30 80.35 56.55 C 80.05 53.63 82.29 51.23 83.59 48.80 C 81.64 47.13 78.47 45.16 79.79 42.14 C 80.45 36.49 87.34 39.14 90.99 39.43 C 89.31 36.46 87.38 33.57 84.88 31.21 C 82.31 28.90 76.69 31.94 75.58 27.95 C 79.95 22.46 83.89 16.63 86.84 10.24 C 87.49 10.25 88.81 10.28 89.47 10.29 C 89.95 14.50 92.79 17.72 94.87 21.23 C 97.13 24.52 99.69 27.62 102.54 30.43 C 105.94 28.55 109.13 26.16 112.97 25.21 C 116.56 24.00 120.41 24.43 124.13 24.48 C 125.64 20.10 127.93 16.06 129.54 11.72 Z" />
<path d=" M 49.75 37.74 C 51.53 32.81 53.42 27.18 58.37 24.57 C 60.45 29.67 61.52 35.34 65.57 39.40 C 64.72 40.68 63.92 41.98 63.11 43.27 C 59.09 41.05 59.28 35.42 55.54 33.04 C 53.63 36.26 52.94 39.96 52.29 43.59 C 46.94 42.63 40.92 41.00 35.88 43.94 C 33.10 45.19 32.14 48.34 30.31 50.55 C 27.52 47.99 25.31 44.91 22.85 42.04 C 22.12 46.17 22.52 50.67 20.03 54.28 C 19.17 52.74 17.47 51.26 18.17 49.32 C 19.39 44.23 19.82 39.04 19.59 33.82 C 20.57 33.57 21.55 33.31 22.53 33.06 C 24.76 36.75 27.15 40.36 29.71 43.84 C 32.54 41.89 35.29 39.68 38.59 38.56 C 42.21 37.47 46.03 37.82 49.75 37.74 Z" />
<path d=" M 140.45 32.61 C 142.72 30.28 145.86 29.93 148.93 30.41 C 146.42 32.09 143.50 33.07 140.45 32.61 Z" />
<path d=" M 121.59 37.26 C 124.07 37.23 127.72 37.97 127.81 41.03 C 128.37 44.35 123.09 46.18 121.27 43.45 C 120.02 41.51 121.10 39.26 121.59 37.26 Z" />
<path d=" M 63.14 46.38 C 65.67 42.71 69.74 39.40 74.39 39.30 C 74.28 40.87 74.80 43.24 72.79 43.78 C 69.70 45.07 66.62 46.92 63.14 46.38 Z" />
<path d=" M 105.26 47.23 C 104.06 43.90 106.19 41.28 108.94 39.69 C 109.90 40.87 110.97 41.98 111.77 43.29 C 111.72 44.71 111.44 46.11 111.21 47.51 C 109.22 47.45 107.24 47.35 105.26 47.23 Z" />
<path d=" M 62.75 47.95 C 68.25 47.32 73.82 47.71 79.25 48.74 C 78.63 50.03 78.00 51.32 77.37 52.60 C 75.36 52.26 73.38 51.81 71.36 51.58 C 73.64 53.56 78.66 53.35 78.55 57.06 C 75.78 59.19 72.36 56.03 69.24 56.12 C 71.80 58.37 74.96 59.73 78.21 60.63 C 78.29 62.73 78.30 64.84 78.20 66.94 C 74.37 66.52 70.67 65.24 67.21 63.57 C 66.44 67.18 65.78 70.87 64.29 74.27 C 62.88 77.38 58.88 78.56 58.11 82.02 C 57.05 85.55 54.84 89.43 50.91 90.18 C 47.00 91.10 43.08 89.45 40.29 86.73 C 37.22 83.48 31.39 85.28 29.03 81.09 C 26.15 77.82 27.68 73.20 27.46 69.28 C 28.63 69.30 29.79 69.35 30.96 69.42 C 30.88 72.61 29.97 76.18 31.91 79.03 C 35.25 81.69 39.15 79.10 42.72 78.49 C 43.26 76.68 44.06 74.91 44.23 73.02 C 43.75 70.93 42.01 69.50 40.74 67.88 C 40.98 67.34 41.45 66.26 41.68 65.72 C 45.00 64.93 48.38 64.05 51.82 64.41 C 51.19 67.39 50.14 70.26 49.31 73.18 C 48.65 75.48 51.42 76.45 53.21 76.59 C 56.68 76.98 60.96 75.59 61.91 71.84 C 63.10 68.78 62.62 65.55 61.81 62.48 C 61.12 60.35 63.17 58.53 62.88 56.38 C 62.17 55.51 61.42 54.67 60.64 53.86 C 61.46 51.93 62.15 49.96 62.75 47.95 Z" />
<path d=" M 6.50 48.54 C 11.47 49.53 17.46 50.85 19.72 55.99 C 15.00 55.69 10.73 53.54 6.32 52.03 C 6.37 51.16 6.45 49.41 6.50 48.54 Z" />
<path d=" M 48.88 49.29 C 50.33 49.89 52.55 50.07 52.24 52.20 C 52.48 54.61 52.44 57.03 52.40 59.44 C 51.44 59.47 49.51 59.53 48.55 59.56 C 48.49 56.13 48.76 52.71 48.88 49.29 Z" />
<path d=" M 39.74 51.58 C 40.51 51.52 42.06 51.39 42.83 51.32 C 42.71 54.79 42.69 58.26 42.65 61.72 C 41.54 61.78 40.43 61.81 39.32 61.82 C 39.20 58.40 39.24 54.97 39.74 51.58 Z" />
<path d=" M 9.59 56.26 C 13.01 56.17 16.32 57.13 19.64 57.81 C 19.71 60.30 19.80 62.79 19.78 65.28 C 17.40 65.34 14.99 65.53 12.61 65.24 C 11.07 62.47 10.74 59.20 9.59 56.26 Z" />
<path d=" M 144.47 66.60 C 145.76 66.46 147.04 66.33 148.33 66.21 C 148.37 69.12 148.30 72.03 148.41 74.93 C 152.98 76.26 157.72 75.75 162.38 75.30 C 163.48 76.68 164.65 78.02 165.57 79.53 C 165.83 81.50 165.69 83.49 165.73 85.47 C 163.18 87.62 159.93 89.84 156.44 88.62 C 152.86 87.55 153.28 82.93 152.62 79.99 C 150.57 79.46 148.53 78.86 146.50 78.28 C 143.75 81.35 140.96 84.44 137.57 86.83 C 136.71 86.34 135.00 85.37 134.14 84.89 C 136.39 81.58 140.09 79.74 142.67 76.74 C 145.23 74.02 143.99 69.96 144.47 66.60 Z" />
<path d=" M 16.87 68.81 C 18.87 68.24 20.86 67.63 22.88 67.15 C 22.38 71.06 22.30 75.21 20.01 78.61 C 18.96 78.56 17.91 78.52 16.86 78.49 C 16.74 77.89 16.50 76.69 16.39 76.09 C 18.30 74.56 20.23 73.05 22.14 71.52 C 20.05 71.58 17.96 71.63 15.87 71.66 C 16.21 70.71 16.55 69.76 16.87 68.81 Z" />
<path fill="#fff" d=" M 117.82 68.71 C 120.29 70.80 121.88 73.58 121.49 76.91 C 120.08 76.70 118.67 76.50 117.27 76.29 C 117.30 73.75 117.46 71.22 117.82 68.71 Z" />
<path fill="#fff" d=" M 121.95 81.74 C 123.80 78.22 125.15 73.92 129.49 72.83 C 128.93 76.51 128.16 80.59 125.18 83.15 C 122.51 85.37 118.71 85.05 115.52 84.53 C 112.93 83.34 113.16 80.12 112.48 77.80 C 115.41 79.59 118.47 81.33 121.95 81.74 Z" />
<path fill="#fff" d=" M 46.97 79.04 C 49.57 79.61 52.21 80.01 54.83 80.50 C 53.48 82.33 53.08 85.29 50.64 85.98 C 48.19 87.00 45.43 85.90 43.39 84.48 C 42.33 82.03 45.72 80.72 46.97 79.04 Z" />
<path fill="#fff" d=" M 156.21 82.82 C 157.40 81.31 158.81 80.02 160.25 78.75 C 161.26 80.24 162.02 81.87 162.79 83.49 C 161.98 84.11 160.36 85.36 159.55 85.99 C 158.41 84.96 157.26 83.94 156.21 82.82 Z" />
<path d=" M 25.43 87.64 C 28.47 88.42 29.57 91.33 31.51 93.45 C 38.67 98.91 48.01 98.29 56.50 98.59 C 56.48 99.47 56.42 101.24 56.39 102.12 C 50.68 103.02 44.93 101.20 39.17 101.48 C 39.83 104.21 40.76 106.86 41.36 109.61 C 34.94 109.14 28.80 106.89 22.35 106.54 C 23.37 102.05 27.79 100.11 31.29 97.85 C 29.55 96.54 27.19 95.76 26.20 93.68 C 25.22 91.82 25.36 89.67 25.43 87.64 Z" />
<path fill="#fff" d=" M 29.39 102.50 C 31.26 101.52 33.10 100.47 34.97 99.48 C 35.51 101.09 36.21 102.69 36.27 104.42 C 33.90 104.50 31.54 104.42 29.18 104.43 C 29.23 103.95 29.34 102.99 29.39 102.50 Z" />
<path d=" M 29.40 109.57 C 30.61 110.42 32.45 109.84 33.38 111.15 C 33.26 112.28 33.03 113.40 32.67 114.49 C 31.49 114.61 30.30 114.75 29.13 114.92 C 29.26 113.14 29.32 111.35 29.40 109.57 Z" />
</svg>
