<svg width="214px" height="225px" viewBox="149 58 214 225" version="1.1" xmlns="http://www.w3.org/2000/svg" xmlns:xlink="http://www.w3.org/1999/xlink" id="logo">
    <g id="nwUxaqO6" stroke="none" stroke-width="1" fill="none" fill-rule="evenodd" transform="translate(149.000000, 58.000000)">
        <path d="M70.94,4.07 C83.51,0.49 96.71,0.7 109.65,1.17 C127.82,2.75 145.76,7.65 162.11,15.77 C166.33,17.74 169.98,20.8 174.33,22.46 C179.98,23.41 186.27,22.55 190.83,18.85 C193.28,16.81 195.94,15.04 198.96,13.96 C198.05,19.97 192.49,23.35 187.28,25.29 C183.37,26.72 179.14,26.76 175.02,26.76 C136.98,26.66 98.94,26.86 60.9,26.65 C61.87,19.61 64.11,12.73 67.63,6.55 C68.29,5.24 69.53,4.4 70.94,4.07 L70.94,4.07 Z" id="Shape" fill="#63A045"></path>
        <path d="M38.19,23.18 C43.22,17.05 49.75,12.33 56.63,8.46 C54.31,15.1 51.83,21.88 52.26,29.04 C51.76,37.79 56.35,46.64 63.92,51.11 C68.69,54.11 74.41,55.11 79.97,55.27 C112.66,55.25 145.35,55.25 178.05,55.26 C186.08,55.13 194.06,57.79 200.64,62.34 C208.81,68.05 214.33,77.92 213.71,88.01 C213.75,94.36 211.04,100.38 207.57,105.56 C202.39,112.82 195.24,118.53 187.31,122.54 C190.44,114.81 192.6,106.51 191.55,98.11 C190.7,90.25 185.77,82.89 178.7,79.29 C174.5,77.11 169.71,76.21 165,76.22 C132.67,76.28 100.34,76.21 68.01,76.25 C58.13,76.08 47.9,73.3 40.45,66.54 C34.28,61.18 30.31,53.22 30.27,45 C29.92,37.03 33.27,29.3 38.19,23.18 L38.19,23.18 Z" id="Shape" fill="#BBD432"></path>
        <path d="M133.52,10.47 C136.87,9.34 140.78,13.31 138.9,16.57 C137.91,19.76 133.06,20.25 131.46,17.34 C129.62,14.98 131.07,11.69 133.52,10.47 L133.52,10.47 Z" id="Shape" fill="#141514"></path>
        <path d="M7.23,117.25 C12.36,110.61 19.17,105.44 26.55,101.53 C23.06,110.26 20.89,119.82 22.85,129.19 C24.62,136.31 29.82,142.5 36.55,145.44 C42.01,147.84 48.07,148.47 53.98,148.32 C85.33,148.26 116.68,148.32 148.03,148.29 C157.05,147.97 165.98,151.42 172.94,157.05 C181.32,163.96 185.44,175.54 183.01,186.17 C179.89,199.33 169.33,209.51 157.44,215.22 C160.75,206.56 163,197.13 160.94,187.89 C159.33,181.8 155.5,176.19 150,172.98 C144.65,169.66 138.19,168.91 132.03,168.77 C100,168.78 67.97,168.76 35.94,168.78 C25.79,168.93 15.49,164.95 8.46,157.54 C3.2,152.13 -0.17,144.63 0.26,137 C-0.1,129.8 3.12,122.96 7.23,117.25 L7.23,117.25 Z" id="Shape" fill="#BBD432"></path>
        <path d="M36.12,102.18 C39.74,101.99 43.37,101.81 47.01,101.8 C89.01,101.82 131,101.81 173,101.81 C176.51,101.8 180.02,101.93 183.53,102.11 C183.76,109.54 181.01,116.47 178.01,123.1 C128.96,123.41 79.9,123.14 30.84,123.24 C30.49,115.82 33.04,108.8 36.12,102.18 L36.12,102.18 Z" id="Shape" fill="#63A045"></path>
        <path d="M36.38,198.51 C75.5,198.02 114.64,198.38 153.78,198.32 C152.09,205.55 150.12,212.87 146.22,219.26 C145.3,220.93 143.24,221.15 141.61,221.67 C118.53,227.13 94.28,224.08 71.9,217.02 C59.21,212.74 46.78,207.06 36.38,198.51 L36.38,198.51 Z" id="Shape" fill="#63A045"></path>
    </g>
</svg>