
<svg width="136px" height="150px" viewBox="32 0 136 150" version="1.1" xmlns="http://www.w3.org/2000/svg" xmlns:xlink="http://www.w3.org/1999/xlink" id="logo">
    <!-- Generator: Sketch 3.8.3 (29802) - http://www.bohemiancoding.com/sketch -->
    <desc>Created with Sketch.</desc>
    <defs></defs>
    <g id="Group" stroke="none" stroke-width="1" fill="none" fill-rule="evenodd" transform="translate(32.000000, 0.000000)">
        <polygon id="Path-58" fill="#649D3D" points="1.52214607 33.8047259 68.5498159 0.753119885 135.177271 34.0054726 134.963738 115.214556 68.4628682 148.989873 0.954429214 115.696604"></polygon>
        <polygon id="Path-59" fill="#322418" points="1.95944149 50.474376 18.7428908 63.5599939 29.7417655 67.1708777 35.5391264 73.8364362 45.600757 78.838482 52.4082447 73.8632876 61.7014116 83.0720642 69.8450798 84.7764935 76.3840528 78.8934636 85.6363032 78.8934636 90.4516673 80.1567615 117.365794 66.6568637 120.88973 57.6360475 126.318842 57.2946502 135.158091 56.7269333 134.944558 113.240333 63.7203867 146.720284 0.390548282 115.500972"></polygon>
        <polygon id="Path-60" fill="#2D461B" points="103.929688 63.9658203 103.376953 50.4951172 117.583984 49.6376953 120.633789 61.9345703 107.621094 72.1787109"></polygon>
        <polygon id="Path-61" fill="#2D461B" points="80.7289217 84.7773438 61.3779297 81.4509889 61.8415726 58 97 58 94.5196846 80.8710283"></polygon>
        <polygon id="Path-62" fill="#2D461B" points="109.087891 59.5498047 127.55957 42.2275391 134.928711 42.0537109 135.536133 50.8994141 107.84082 64.6162109"></polygon>
        <g id="mhs">
            <path d="M43.68,13.21 C51.69,8.91 60.02,5.23 68,0.88 C70.58,2.25 73.2,3.57 75.84,4.82 C74.85,6 73.85,7.17 72.86,8.35 C75.51,8.3 78.15,8.05 80.75,7.56 C82.92,8.44 85.11,9.37 86.95,10.84 C89.37,12.79 91.87,14.62 94.48,16.31 C94.15,16.85 93.51,17.93 93.18,18.47 C95.95,18.42 98.7,18.18 101.46,18.12 C108.38,20.68 114.87,24.42 121.39,27.88 C120.31,28.41 119.25,28.98 118.21,29.57 C114.72,28.04 111.13,25.85 107.18,26.24 C103.46,27.47 100.71,30.67 96.9,31.69 C95.35,31.53 93.96,30.78 92.55,30.2 C90.22,28.75 87.53,28.49 84.92,29.28 C85.65,30.27 86.39,31.26 87.14,32.24 C86.51,33.31 85.91,34.38 85.3,35.45 C87.67,35.25 90.03,34.96 92.37,34.55 C95.24,36 98.2,37.24 101.14,38.54 C99.72,39.21 98.28,39.82 96.88,40.51 C95.72,41.12 94.56,41.72 93.39,42.29 C90.94,41.71 88.26,40.54 85.8,41.73 C81.74,43.32 81.48,48.7 77.74,50.7 C73.66,52.91 68.7,55.5 64.08,53.23 C65.45,52.13 66.81,51.02 68.17,49.91 C64.9,48.81 61.59,47.82 58.25,46.94 C57.07,48.18 55.89,49.42 54.71,50.66 C54.07,49.16 53.43,47.66 52.78,46.17 C55.36,44.99 57.9,43.75 60.44,42.48 C58.37,41.77 56.2,40.23 53.95,41.13 C51.33,41.87 48.89,43.32 46.14,43.6 C44.02,43.17 42.09,42.13 40.12,41.25 C40.99,40.13 41.88,39.02 42.8,37.93 C37.33,38.2 31.07,34.9 26.31,38.76 C30.81,39.27 35.41,39.24 39.77,40.59 C32.95,42.96 25.68,42.47 18.66,41.45 C18.44,40.77 18.21,40.09 17.97,39.41 L17.71,38.72 C20.38,37.3 23.09,35.95 25.82,34.66 C24.86,33.77 23.89,32.88 22.92,31.99 C25.57,30.67 28.14,29.2 30.66,27.64 C28.77,27.18 26.77,26.1 24.82,26.92 C21.42,28.06 17.88,30.09 14.28,28.35 C20.7,24.29 27.62,20.9 34.61,17.98 C38.41,17.91 42.32,17.94 45.93,19.25 C48.39,19.93 50.93,21.46 53.53,20.55 C57.46,19.38 61.05,17.34 64.62,15.35 C58.35,13.7 51.87,14.57 45.52,15.16 C44.91,14.51 44.3,13.86 43.68,13.21 L43.68,13.21 Z" id="Shape" fill="#649D3D"></path>
            <path d="M75.84,4.82 C77.49,5.71 79.12,6.63 80.75,7.56 C78.15,8.05 75.51,8.3 72.86,8.35 C73.85,7.17 74.85,6 75.84,4.82 L75.84,4.82 Z" id="Shape" fill="#97C076"></path>
            <path d="M86.95,10.84 C91.97,12.86 96.94,15.14 101.46,18.12 C98.7,18.18 95.95,18.42 93.18,18.47 C93.51,17.93 94.15,16.85 94.48,16.31 C91.87,14.62 89.37,12.79 86.95,10.84 L86.95,10.84 Z" id="Shape" fill="#81A760"></path>
            <path d="M34.61,17.98 C37.5,16.14 40.6,14.69 43.68,13.21 C44.3,13.86 44.91,14.51 45.52,15.16 C51.87,14.57 58.35,13.7 64.62,15.35 C61.05,17.34 57.46,19.38 53.53,20.55 C50.93,21.46 48.39,19.93 45.93,19.25 C42.32,17.94 38.41,17.91 34.61,17.98 L34.61,17.98 Z" id="Shape" fill="#85B559"></path>
            <path d="M63.75,19.06 C67.57,16.84 72.01,15.1 76.31,17.19 C73.65,19.05 70.81,20.61 67.91,22.04 C66.52,21.05 65.13,20.06 63.75,19.06 L63.75,19.06 Z" id="Shape" fill="#87B75B"></path>
            <path d="M80.49,19.77 C83.56,17.68 87.21,16.98 90.85,16.81 C90.27,17.86 89.69,18.92 89.11,19.97 C90.75,21.06 92.38,22.15 93.99,23.27 C89.12,24.4 84.43,22.54 80.49,19.77 L80.49,19.77 Z" id="Shape" fill="#80B053"></path>
            <path d="M68.87,25.22 C72.47,23.53 76.33,21.48 80.39,22.92 C78.17,24.9 74.68,25.8 73.32,28.55 C75.5,30.01 77.85,31.18 80.14,32.44 C76.18,34.61 72.05,36.43 67.86,38.1 C69.28,39.09 70.67,40.13 72.09,41.13 C69.67,41.61 67.24,42.06 64.81,42.45 C62.53,39.51 59.25,37.72 56.02,36.04 C58.8,34.65 61.82,35.57 64.74,35.76 C66.98,35.05 68.83,33.53 70.77,32.27 C70.21,31.54 69.64,30.82 69.08,30.1 C69.64,29.43 70.19,28.77 70.75,28.1 C70.08,27.17 69.45,26.21 68.87,25.22 L68.87,25.22 Z" id="Shape" fill="#89B95E"></path>
            <path d="M47.57,28.73 C50.73,25.61 55.15,22.86 59.6,25.22 C57.63,27.42 55.32,29.94 52.13,29.98 C50.56,29.76 49.08,29.16 47.57,28.73 L47.57,28.73 Z" id="Shape" fill="#8EBD62"></path>
            <path d="M93.78,25.04 C95.85,24.08 98.13,24.13 100.19,25.09 C99.4,26.53 98.18,27.66 97.02,28.79 C95.81,27.67 94.31,26.69 93.78,25.04 L93.78,25.04 Z" id="Shape" fill="#8FC265"></path>
            <path d="M24.82,26.92 C26.77,26.1 28.77,27.18 30.66,27.64 C28.14,29.2 25.57,30.67 22.92,31.99 C19.81,33.56 16.77,35.27 13.73,36.98 C15.07,37.54 16.41,38.09 17.71,38.72 L17.97,39.41 C11.91,40.93 6.72,36.91 1.66,34.27 C5.57,32.12 9.58,30.18 13.56,28.16 L14.28,28.35 C17.88,30.09 21.42,28.06 24.82,26.92 L24.82,26.92 Z" id="Shape" fill="#71A64B"></path>
            <path d="M96.9,31.69 C100.71,30.67 103.46,27.47 107.18,26.24 C111.13,25.85 114.72,28.04 118.21,29.57 C116.82,30.38 115.46,31.21 114.09,32.04 C114.98,33.12 115.87,34.2 116.76,35.29 C114.59,35.31 112.41,35.32 110.24,35.33 C111.18,34.01 112.12,32.68 113.05,31.34 C109.11,30.06 105.42,31.91 102.23,34.1 C103.14,35.02 104.07,35.94 105,36.85 C103.7,37.38 102.41,37.94 101.14,38.54 C98.2,37.24 95.24,36 92.37,34.55 C91.21,33.95 90.05,33.33 88.9,32.71 C90.1,31.86 91.32,31.03 92.55,30.2 C93.96,30.78 95.35,31.53 96.9,31.69 L96.9,31.69 Z" id="Shape" fill="#599332"></path>
            <path d="M84.92,29.28 C87.53,28.49 90.22,28.75 92.55,30.2 C91.32,31.03 90.1,31.86 88.9,32.71 C90.05,33.33 91.21,33.95 92.37,34.55 C90.03,34.96 87.67,35.25 85.3,35.45 C85.91,34.38 86.51,33.31 87.14,32.24 C86.39,31.26 85.65,30.27 84.92,29.28 L84.92,29.28 Z" id="Shape" fill="#80BB59"></path>
            <path d="M121.39,27.88 C125.92,29.55 130.07,32.1 134.35,34.32 C133.03,34.95 131.71,35.57 130.41,36.21 C126.73,33.8 122.42,31.82 118.01,33.48 C118.86,34.77 119.72,36.07 120.59,37.35 C117.59,38.84 114.29,39.59 110.94,39.09 C107.16,38.37 104.15,41.09 101.09,42.81 C99.68,42.05 98.28,41.28 96.88,40.51 C98.28,39.82 99.72,39.21 101.14,38.54 C102.41,37.94 103.7,37.38 105,36.85 C104.07,35.94 103.14,35.02 102.23,34.1 C105.42,31.91 109.11,30.06 113.05,31.34 C112.12,32.68 111.18,34.01 110.24,35.33 C112.41,35.32 114.59,35.31 116.76,35.29 C115.87,34.2 114.98,33.12 114.09,32.04 C115.46,31.21 116.82,30.38 118.21,29.57 C119.25,28.98 120.31,28.41 121.39,27.88 L121.39,27.88 Z" id="Shape" fill="#81B358"></path>
            <path d="M34.69,34.82 C37.01,32.78 39.5,30.32 42.81,30.26 C44.57,30.5 45.95,31.77 47.47,32.6 C43.55,34.68 39.12,36.55 34.69,34.82 L34.69,34.82 Z" id="Shape" fill="#8DBA5F"></path>
            <path d="M13.73,36.98 C16.77,35.27 19.81,33.56 22.92,31.99 C23.89,32.88 24.86,33.77 25.82,34.66 C23.09,35.95 20.38,37.3 17.71,38.72 C16.41,38.09 15.07,37.54 13.73,36.98 L13.73,36.98 Z" id="Shape" fill="#94C569"></path>
            <path d="M118.01,33.48 C122.42,31.82 126.73,33.8 130.41,36.21 C123.48,39.76 116.46,43.12 109.49,46.57 C106.96,45.89 104.37,45.56 101.76,45.49 C102.77,46.68 103.79,47.86 104.81,49.05 C103.72,49.6 102.63,50.12 101.54,50.65 C98.95,49.58 96.15,49.45 93.45,50.15 C94.35,51.25 95.27,52.34 96.19,53.42 C93.64,54.71 91.09,55.98 88.52,57.21 C87.76,54.75 86.69,52.39 85.25,50.26 C86.16,49.85 87.07,49.42 87.97,48.99 C89.76,48.12 91.54,47.2 93.31,46.27 C91.83,45.69 90.35,45.12 88.87,44.56 C90.12,43.98 91.33,43.34 92.55,42.71 C95.31,43.8 98.36,44.28 101.09,42.81 C104.15,41.09 107.16,38.37 110.94,39.09 C114.29,39.59 117.59,38.84 120.59,37.35 C119.72,36.07 118.86,34.77 118.01,33.48 L118.01,33.48 Z" id="Shape" fill="#679F40"></path>
            <path d="M0.99,33.9 L1.66,34.27 C6.72,36.91 11.91,40.93 17.97,39.41 C18.21,40.09 18.44,40.77 18.66,41.45 C18.76,41.74 18.97,42.32 19.07,42.61 C21.43,44.2 24.06,45.3 26.61,46.51 C31.04,48.71 35.33,51.17 39.73,53.44 C40.7,53.93 41.66,54.42 42.64,54.89 C43.99,60.48 50.07,62.95 51.56,68.45 C51.39,70.26 51.18,72.05 50.97,73.86 C49.76,73.67 48.56,73.49 47.35,73.31 C46.89,74.71 46.43,76.12 45.96,77.52 C44.2,75.42 43.01,72.95 42.19,70.35 C41.23,69.87 40.27,69.4 39.31,68.94 C38.99,70.24 38.67,71.53 38.36,72.83 C37.4,72.45 36.44,72.07 35.48,71.69 C35.24,67.02 35.98,61.39 31.57,58.36 C31.15,60.42 30.75,62.48 30.34,64.54 C28.87,63.14 26.33,62.25 26.26,59.92 C25.89,56.99 26.02,54.03 26.02,51.09 C24.68,50.66 23.34,50.25 22,49.84 C21.88,54.86 21.86,59.89 21.92,64.92 C20.71,64.27 19.49,63.63 18.27,63 C18.08,61.48 17.98,59.93 17.59,58.44 C15.72,56.64 13.15,55.72 11.36,53.82 C9.92,51.19 8.93,48.26 6.67,46.17 C6.34,48.04 6.04,49.93 5.74,51.81 C4.21,51.16 2.68,50.53 1.14,49.9 C0.83,44.57 0.91,39.23 0.99,33.9 L0.99,33.9 Z" id="Shape" fill="#4A6F30"></path>
            <path d="M134.35,34.32 L135.05,33.98 C135.04,37.25 135.02,40.53 134.94,43.8 C133.55,44.68 132.16,45.56 130.79,46.46 C130.02,48.43 129.66,50.68 128.26,52.34 C126.54,53.86 124.42,54.82 122.43,55.92 C122.21,54.24 122,52.57 121.77,50.89 C120.49,51.52 119.21,52.13 117.92,52.74 C113.45,50.33 108.35,50.77 103.56,51.74 C104.61,55.78 105.58,59.93 105.26,64.13 C105.11,65.99 104.86,67.83 104.65,69.67 C103.53,70.11 102.42,70.54 101.3,70.98 C101.15,67.62 101,64.26 100.82,60.9 C99.89,61.48 98.96,62.06 98.04,62.64 C97.3,65.72 96.02,68.7 93.48,70.73 C93.16,67.18 92.98,63.62 92.9,60.06 C91.71,60.56 90.53,61.08 89.36,61.6 C88.61,67.58 88.79,73.65 90.26,79.51 C88.72,79.08 87.18,78.67 85.64,78.25 C85.21,77.17 84.78,76.1 84.35,75.02 C81.54,76.33 78.75,77.69 75.98,79.09 C75.86,77.13 75.68,75.17 75.48,73.22 C72.68,76.31 70.93,80.14 68.51,83.5 C68.35,81.34 68.18,79.17 68.13,77 C68.09,73.79 68.12,70.58 68.14,67.37 C72.26,65.46 76.28,63.38 80.28,61.25 C81.59,60.57 82.91,59.91 84.24,59.26 C85.66,58.57 87.09,57.89 88.52,57.21 C91.09,55.98 93.64,54.71 96.19,53.42 C97.98,52.5 99.74,51.56 101.54,50.65 C102.63,50.12 103.72,49.6 104.81,49.05 C106.38,48.25 107.93,47.4 109.49,46.57 C116.46,43.12 123.48,39.76 130.41,36.21 C131.71,35.57 133.03,34.95 134.35,34.32 L134.35,34.32 Z" id="Shape" fill="#2D461B"></path>
            <path d="M26.31,38.76 C31.07,34.9 37.33,38.2 42.8,37.93 C41.88,39.02 40.99,40.13 40.12,41.25 C42.09,42.13 44.02,43.17 46.14,43.6 C48.89,43.32 51.33,41.87 53.95,41.13 C56.2,40.23 58.37,41.77 60.44,42.48 C57.9,43.75 55.36,44.99 52.78,46.17 C53.43,47.66 54.07,49.16 54.71,50.66 C55.89,49.42 57.07,48.18 58.25,46.94 C61.59,47.82 64.9,48.81 68.17,49.91 C66.81,51.02 65.45,52.13 64.08,53.23 C61.41,52.11 58.54,51.57 55.65,51.99 C59.57,55.08 64.19,56.97 68.57,59.27 C69.82,60.1 71.03,60.98 72.25,61.87 C69.47,63.07 66.67,64.23 63.85,65.36 C59.76,63.43 55.69,61.46 51.71,59.31 C52.87,58.57 54.04,57.82 55.2,57.07 C52.66,55.61 49.81,55.26 47.27,56.95 C45.74,56.24 44.18,55.59 42.64,54.89 C41.66,54.42 40.7,53.93 39.73,53.44 C40.54,52.64 41.35,51.84 42.15,51.05 C41.29,50.2 40.43,49.34 39.58,48.47 C40.74,47.55 41.9,46.65 43.08,45.75 C37.59,45.44 31.96,44.89 26.61,46.51 C24.06,45.3 21.43,44.2 19.07,42.61 C18.97,42.32 18.76,41.74 18.66,41.45 C25.68,42.47 32.95,42.96 39.77,40.59 C35.41,39.24 30.81,39.27 26.31,38.76 L26.31,38.76 Z" id="Shape" fill="#83B258"></path>
            <path d="M80.19,36.24 C81.83,36.85 83.19,37.99 84.58,39.01 C81.92,39.86 79.12,39.84 76.47,38.96 C77.66,37.99 78.86,37.02 80.19,36.24 L80.19,36.24 Z" id="Shape" fill="#9BCE70"></path>
            <path d="M85.8,41.73 C88.26,40.54 90.94,41.71 93.39,42.29 L92.55,42.71 C91.33,43.34 90.12,43.98 88.87,44.56 C87.56,45.16 86.26,45.77 84.97,46.41 C85.97,47.27 86.97,48.12 87.97,48.99 C87.07,49.42 86.16,49.85 85.25,50.26 C82.53,51.53 79.74,52.68 77.24,54.35 C77.96,57.28 82,57.68 84.24,59.26 C82.91,59.91 81.59,60.57 80.28,61.25 C77.54,59.94 74.78,58.64 72.04,57.33 C70.88,57.97 69.72,58.62 68.57,59.27 C64.19,56.97 59.57,55.08 55.65,51.99 C58.54,51.57 61.41,52.11 64.08,53.23 C68.7,55.5 73.66,52.91 77.74,50.7 C81.48,48.7 81.74,43.32 85.8,41.73 L85.8,41.73 Z" id="Shape" fill="#57902F"></path>
            <path d="M93.39,42.29 C94.56,41.72 95.72,41.12 96.88,40.51 C98.28,41.28 99.68,42.05 101.09,42.81 C98.36,44.28 95.31,43.8 92.55,42.71 L93.39,42.29 L93.39,42.29 Z" id="Shape" fill="#A2D377"></path>
            <path d="M63.46,44.11 C66.41,42.98 69.54,43.04 72.48,44.16 C69.68,46.18 66.23,46.23 63.46,44.11 L63.46,44.11 Z" id="Shape" fill="#93C567"></path>
            <path d="M130.79,46.46 C132.16,45.56 133.55,44.68 134.94,43.8 C134.85,48.57 136.24,53.75 134.54,58.27 C132.09,60.96 129.68,63.68 127.32,66.46 C127.21,63.89 125.69,61.64 125.62,59.06 C123.77,60.05 121.91,61.04 120.07,62.06 C120.81,63.78 121.54,65.51 122.28,67.23 C110.34,72.69 98.27,77.87 86.26,83.19 C85.53,82.02 84.79,80.86 84.05,79.7 C81.4,81.06 78.75,82.42 76.12,83.8 C76.08,82.23 76.04,80.66 75.98,79.09 C78.75,77.69 81.54,76.33 84.35,75.02 C84.78,76.1 85.21,77.17 85.64,78.25 C87.18,78.67 88.72,79.08 90.26,79.51 C88.79,73.65 88.61,67.58 89.36,61.6 C90.53,61.08 91.71,60.56 92.9,60.06 C92.98,63.62 93.16,67.18 93.48,70.73 C96.02,68.7 97.3,65.72 98.04,62.64 C98.96,62.06 99.89,61.48 100.82,60.9 C101,64.26 101.15,67.62 101.3,70.98 C102.42,70.54 103.53,70.11 104.65,69.67 C104.86,67.83 105.11,65.99 105.26,64.13 C106.8,63.47 108.33,62.79 109.87,62.1 C110.16,63.79 110.44,65.49 110.71,67.18 C112.95,63.87 115.17,60.55 117.55,57.34 C117.68,55.81 117.8,54.27 117.92,52.74 C119.21,52.13 120.49,51.52 121.77,50.89 C122,52.57 122.21,54.24 122.43,55.92 C124.42,54.82 126.54,53.86 128.26,52.34 C129.66,50.68 130.02,48.43 130.79,46.46 L130.79,46.46 Z" id="Shape" fill="#261C12"></path>
            <path d="M26.61,46.51 C31.96,44.89 37.59,45.44 43.08,45.75 C41.9,46.65 40.74,47.55 39.58,48.47 C40.43,49.34 41.29,50.2 42.15,51.05 C41.35,51.84 40.54,52.64 39.73,53.44 C35.33,51.17 31.04,48.71 26.61,46.51 L26.61,46.51 Z" id="Shape" fill="#649C3C"></path>
            <path d="M84.97,46.41 C86.26,45.77 87.56,45.16 88.87,44.56 C90.35,45.12 91.83,45.69 93.31,46.27 C91.54,47.2 89.76,48.12 87.97,48.99 C86.97,48.12 85.97,47.27 84.97,46.41 L84.97,46.41 Z" id="Shape" fill="#9FD174"></path>
            <path d="M101.76,45.49 C104.37,45.56 106.96,45.89 109.49,46.57 C107.93,47.4 106.38,48.25 104.81,49.05 C103.79,47.86 102.77,46.68 101.76,45.49 L101.76,45.49 Z" id="Shape" fill="#9CCA76"></path>
            <path d="M6.67,46.17 C8.93,48.26 9.92,51.19 11.36,53.82 C13.15,55.72 15.72,56.64 17.59,58.44 C17.98,59.93 18.08,61.48 18.27,63 C15.43,61.76 12.6,60.52 9.77,59.25 C10.01,62.26 9.75,65.43 10.88,68.27 C13.78,71.09 17.43,73.38 18.62,77.52 C15.63,76.41 12.69,75.19 9.75,73.95 C9.83,75.52 9.9,77.1 9.98,78.67 C12.32,81.64 14.46,84.77 16.35,88.04 C17.47,86.53 18.61,85.03 19.73,83.52 C20.81,85.82 21.87,88.13 22.88,90.46 C23.96,90.99 25.05,91.51 26.14,92.03 C26.66,85.99 23.92,80.55 21.64,75.17 C23.09,75.79 24.56,76.39 25.99,77.05 C27.63,77.92 29.24,78.84 30.88,79.69 C31.81,84.96 35.14,89.23 38.37,93.31 C38.62,89.93 38.78,86.55 39.15,83.18 C39.32,81.84 39.51,80.51 39.69,79.18 C41.89,80.03 44.09,80.88 46.3,81.73 C46.71,80.71 47.12,79.68 47.54,78.66 C48.47,78.49 49.4,78.33 50.33,78.16 C50.9,77.05 51.49,75.94 52.08,74.84 C57.43,79.19 58.64,86.65 63.88,90.99 C63.84,93.61 63.61,96.23 63.46,98.86 C62.02,100.19 59.64,101.31 59.96,103.65 C62.18,105.78 65.08,106.93 67.83,108.2 C68.03,104.81 68.22,101.4 68.11,98 C69.4,97.38 70.7,96.76 71.99,96.13 C72.41,102.09 71.31,108.1 67.81,113.04 C66.72,112.88 65.63,112.71 64.54,112.55 C64.01,113.8 63.47,115.06 62.93,116.32 C61.18,114.23 60.07,111.72 59.34,109.12 C56.54,107.46 53.61,106.02 50.65,104.66 C50.79,107.6 50.44,110.69 51.45,113.51 C52.47,115.15 54.01,116.38 55.36,117.74 C56.13,119.75 56.89,121.78 57.62,123.81 C59.46,122.45 61.45,121.3 63.32,119.99 C63.81,119.23 64.31,118.49 64.81,117.74 C65.92,117.42 67.03,117.1 68.14,116.77 C68.3,118.6 68.48,120.43 68.66,122.26 C67.22,122.39 65.79,122.51 64.35,122.64 C64.06,123.84 63.76,125.03 63.47,126.23 C62.49,125.79 61.51,125.39 60.52,124.99 C60.19,126.12 59.87,127.26 59.54,128.4 C58.36,128.41 57.18,128.43 56,128.44 C56.02,129.85 56.05,131.26 56.11,132.67 C57.36,133.49 58.61,134.31 59.87,135.13 C59.79,136.59 59.72,138.05 59.66,139.51 C57.15,138.25 54.62,137.01 52.1,135.76 C51.3,137.11 50.48,138.45 49.66,139.78 C47.61,138.81 45.56,137.83 43.52,136.85 L43.32,136.03 C42.7,134.09 42.59,131.59 40.62,130.46 C35.93,127.57 30.78,125.52 25.95,122.89 C25.91,124.56 25.85,126.23 25.77,127.91 C24.37,127.21 22.97,126.52 21.57,125.84 L21.38,125.14 C20.19,120.09 18.13,115.2 14.56,111.37 C14.33,113.21 14.11,115.05 13.9,116.9 C12.53,116.32 11.15,115.74 9.78,115.17 C9.79,116.75 9.8,118.33 9.81,119.92 C8.46,119.24 7.1,118.57 5.75,117.91 C5.92,115.48 5.82,112.97 6.59,110.63 C9.02,107.18 12.66,104.85 15.64,101.92 C17.27,104.96 19.04,108 21.8,110.16 C24.79,112.41 26.08,116 28.25,118.9 C30.28,120.58 33.01,121.04 35.44,121.91 C33.91,117.94 32.2,114.06 30.62,110.12 C36.14,112.22 41.35,115.06 46.8,117.36 C47.02,114.23 47.21,111.1 47.38,107.97 C44.7,106.57 42.01,105.19 39.34,103.77 C39.01,105.78 38.68,107.79 38.32,109.81 C36.47,107.4 34.99,104.74 33.43,102.15 C31.92,99.64 28.8,99.01 26.35,97.78 C25.99,99.16 25.63,100.53 25.28,101.91 C24.54,101.46 23.8,101.02 23.06,100.57 C22.05,98.19 21.87,94.9 19.19,93.74 C17.55,92.84 15.8,92.17 14.07,91.45 C13.95,94.42 13.73,97.38 13.63,100.35 C12.69,100.54 11.75,100.74 10.81,100.93 C10.32,101.59 9.84,102.25 9.36,102.91 C7.75,104.14 6.07,105.28 4.48,106.54 C3.31,106.42 2.15,106.29 0.98,106.15 C0.95,102.98 0.96,99.82 1.09,96.65 C4.36,96.07 8.86,95.6 9.83,91.73 C10.91,86.51 6.72,82.21 5.83,77.27 C5.71,74.05 6.2,70.75 5.4,67.59 C4.15,66.29 2.61,65.31 1.15,64.28 C0.79,59.49 1.04,54.69 1.14,49.9 C2.68,50.53 4.21,51.16 5.74,51.81 C6.04,49.93 6.34,48.04 6.67,46.17 L6.67,46.17 Z" id="Shape" fill="#4B3424"></path>
            <path d="M43.17,50.77 C45.75,48.88 48.66,49.05 51.32,50.65 C49.87,51.58 48.42,52.51 46.98,53.45 C45.72,52.54 44.45,51.65 43.17,50.77 L43.17,50.77 Z" id="Shape" fill="#5F9637"></path>
            <path d="M93.45,50.15 C96.15,49.45 98.95,49.58 101.54,50.65 C99.74,51.56 97.98,52.5 96.19,53.42 C95.27,52.34 94.35,51.25 93.45,50.15 L93.45,50.15 Z" id="Shape" fill="#98C26F"></path>
            <path d="M22,49.84 C23.34,50.25 24.68,50.66 26.02,51.09 C26.02,54.03 25.89,56.99 26.26,59.92 C26.33,62.25 28.87,63.14 30.34,64.54 C30.75,62.48 31.15,60.42 31.57,58.36 C35.98,61.39 35.24,67.02 35.48,71.69 C36.44,72.07 37.4,72.45 38.36,72.83 C38.67,71.53 38.99,70.24 39.31,68.94 C40.27,69.4 41.23,69.87 42.19,70.35 C43.01,72.95 44.2,75.42 45.96,77.52 C46.43,76.12 46.89,74.71 47.35,73.31 C48.56,73.49 49.76,73.67 50.97,73.86 C51.18,72.05 51.39,70.26 51.56,68.45 C54.02,70.55 55.7,73.3 57.21,76.11 C58.51,78.65 61.36,79.63 63.68,80.99 C63.83,79.39 63.99,77.79 64.15,76.2 C65.48,76.46 66.8,76.73 68.13,77 C68.18,79.17 68.35,81.34 68.51,83.5 C70.93,80.14 72.68,76.31 75.48,73.22 C75.68,75.17 75.86,77.13 75.98,79.09 C76.04,80.66 76.08,82.23 76.12,83.8 C78.75,82.42 81.4,81.06 84.05,79.7 C84.79,80.86 85.53,82.02 86.26,83.19 C82,85.28 77.12,86.45 73.52,89.66 C70.47,92.97 73.41,98.96 77.88,98.63 C81.19,98.24 84.15,96.53 87.17,95.21 C99.83,89.41 112.64,83.97 125.38,78.34 C127.1,77.5 128.98,76.71 130.16,75.13 C132.01,72.46 130.79,68.22 127.73,67.04 C125.96,66.4 124.06,66.93 122.28,67.23 C121.54,65.51 120.81,63.78 120.07,62.06 C121.91,61.04 123.77,60.05 125.62,59.06 C125.69,61.64 127.21,63.89 127.32,66.46 C129.68,63.68 132.09,60.96 134.54,58.27 C135.98,70.11 134.51,82.06 134.91,93.95 C135.18,99.63 135.24,105.32 134.91,110.99 C132.66,111.78 130.46,112.97 128.04,113.09 C125.89,112.91 123.91,111.96 121.89,111.27 C121.86,109.95 121.83,108.63 121.81,107.32 C123.16,106.1 124.51,104.88 125.86,103.67 C125.55,102.26 125.24,100.86 124.93,99.46 C127.44,98.24 130.34,97.32 132.12,95.03 C134.22,92.13 132.4,87.46 128.88,86.76 C126.31,86.32 123.84,87.49 121.52,88.43 C107.76,94.82 93.8,100.77 79.91,106.86 C77.6,107.99 74.64,109.3 74.3,112.2 C74.32,114.21 75.21,116.08 75.83,117.96 C73.65,121.73 71.26,125.4 68.38,128.68 C66.75,127.84 65.13,126.99 63.47,126.23 C63.76,125.03 64.06,123.84 64.35,122.64 C65.79,122.51 67.22,122.39 68.66,122.26 C68.48,120.43 68.3,118.6 68.14,116.77 C68.02,115.53 67.91,114.28 67.81,113.04 C71.31,108.1 72.41,102.09 71.99,96.13 C70.7,96.76 69.4,97.38 68.11,98 C68.03,96.19 67.89,94.39 67.74,92.59 C66.45,92.07 65.15,91.56 63.88,90.99 C58.64,86.65 57.43,79.19 52.08,74.84 C51.49,75.94 50.9,77.05 50.33,78.16 C49.4,78.33 48.47,78.49 47.54,78.66 C47.12,79.68 46.71,80.71 46.3,81.73 C44.09,80.88 41.89,80.03 39.69,79.18 C39.51,80.51 39.32,81.84 39.15,83.18 C36.37,82.08 33.56,81.03 30.88,79.69 C29.24,78.84 27.63,77.92 25.99,77.05 C26.17,74.21 26.71,71.31 26.2,68.48 C25.45,67.08 24.15,66.09 23.09,64.95 C22.35,67.95 21.71,70.99 21.17,74.03 C20.35,73.73 19.53,73.42 18.71,73.12 C18.42,69.76 18.25,66.38 18.27,63 C19.49,63.63 20.71,64.27 21.92,64.92 C21.86,59.89 21.88,54.86 22,49.84 L22,49.84 Z" id="Shape" fill="#392A1C"></path>
            <path d="M103.56,51.74 C108.35,50.77 113.45,50.33 117.92,52.74 C117.8,54.27 117.68,55.81 117.55,57.34 C115.17,60.55 112.95,63.87 110.71,67.18 C110.44,65.49 110.16,63.79 109.87,62.1 C108.33,62.79 106.8,63.47 105.26,64.13 C105.58,59.93 104.61,55.78 103.56,51.74 L103.56,51.74 Z" id="Shape" fill="#3C4F29"></path>
            <path d="M77.24,54.35 C79.74,52.68 82.53,51.53 85.25,50.26 C86.69,52.39 87.76,54.75 88.52,57.21 C87.09,57.89 85.66,58.57 84.24,59.26 C82,57.68 77.96,57.28 77.24,54.35 L77.24,54.35 Z" id="Shape" fill="#89BA5E"></path>
            <path d="M42.64,54.89 C44.18,55.59 45.74,56.24 47.27,56.95 C48.76,57.71 50.23,58.51 51.71,59.31 C55.69,61.46 59.76,63.43 63.85,65.36 C65.28,66.03 66.71,66.7 68.14,67.37 C68.12,70.58 68.09,73.79 68.13,77 C66.8,76.73 65.48,76.46 64.15,76.2 C63.99,77.79 63.83,79.39 63.68,80.99 C61.36,79.63 58.51,78.65 57.21,76.11 C55.7,73.3 54.02,70.55 51.56,68.45 C50.07,62.95 43.99,60.48 42.64,54.89 L42.64,54.89 Z" id="Shape" fill="#406724"></path>
            <path d="M47.27,56.95 C49.81,55.26 52.66,55.61 55.2,57.07 C54.04,57.82 52.87,58.57 51.71,59.31 C50.23,58.51 48.76,57.71 47.27,56.95 L47.27,56.95 Z" id="Shape" fill="#61963B"></path>
            <path d="M68.57,59.27 C69.72,58.62 70.88,57.97 72.04,57.33 C74.78,58.64 77.54,59.94 80.28,61.25 C76.28,63.38 72.26,65.46 68.14,67.37 C66.71,66.7 65.28,66.03 63.85,65.36 C66.67,64.23 69.47,63.07 72.25,61.87 C71.03,60.98 69.82,60.1 68.57,59.27 L68.57,59.27 Z" id="Shape" fill="#64A040"></path>
            <path d="M9.77,59.25 C12.6,60.52 15.43,61.76 18.27,63 C18.25,66.38 18.42,69.76 18.71,73.12 C19.53,73.42 20.35,73.73 21.17,74.03 C21.71,70.99 22.35,67.95 23.09,64.95 C24.15,66.09 25.45,67.08 26.2,68.48 C26.71,71.31 26.17,74.21 25.99,77.05 C24.56,76.39 23.09,75.79 21.64,75.17 C23.92,80.55 26.66,85.99 26.14,92.03 C25.05,91.51 23.96,90.99 22.88,90.46 C21.87,88.13 20.81,85.82 19.73,83.52 C18.61,85.03 17.47,86.53 16.35,88.04 C14.46,84.77 12.32,81.64 9.98,78.67 C9.9,77.1 9.83,75.52 9.75,73.95 C12.69,75.19 15.63,76.41 18.62,77.52 C17.43,73.38 13.78,71.09 10.88,68.27 C9.75,65.43 10.01,62.26 9.77,59.25 L9.77,59.25 Z" id="Shape" fill="#5F4431"></path>
            <path d="M1.15,64.28 C2.61,65.31 4.15,66.29 5.4,67.59 C6.2,70.75 5.71,74.05 5.83,77.27 C4.2,76.51 2.58,75.75 0.97,74.98 C0.93,71.42 0.97,67.85 1.15,64.28 L1.15,64.28 Z" id="Shape" fill="#71543E"></path>
            <path d="M122.28,67.23 C124.06,66.93 125.96,66.4 127.73,67.04 C130.79,68.22 132.01,72.46 130.16,75.13 C128.98,76.71 127.1,77.5 125.38,78.34 C112.64,83.97 99.83,89.41 87.17,95.21 C84.15,96.53 81.19,98.24 77.88,98.63 C73.41,98.96 70.47,92.97 73.52,89.66 C77.12,86.45 82,85.28 86.26,83.19 C98.27,77.87 110.34,72.69 122.28,67.23 L122.28,67.23 Z" id="Shape" fill="#B0AFAD"></path>
            <path d="M115.35,75.36 C118.98,73.81 122.47,71.75 126.43,71.19 C125.08,73.8 122.08,74.48 119.64,75.65 C108.09,80.73 96.55,85.85 85.04,91.03 C82.74,92.01 80.47,93.32 77.91,93.36 C78.41,91.41 80.46,90.92 82.04,90.13 C93.16,85.25 104.25,80.28 115.35,75.36 L115.35,75.36 Z" id="Shape" fill="#000000"></path>
            <path d="M0.97,74.98 C2.58,75.75 4.2,76.51 5.83,77.27 C6.72,82.21 10.91,86.51 9.83,91.73 C8.86,95.6 4.36,96.07 1.09,96.65 C0.84,89.43 0.96,82.21 0.97,74.98 L0.97,74.98 Z" id="Shape" fill="#5C4330"></path>
            <path d="M30.88,79.69 C33.56,81.03 36.37,82.08 39.15,83.18 C38.78,86.55 38.62,89.93 38.37,93.31 C35.14,89.23 31.81,84.96 30.88,79.69 L30.88,79.69 Z" id="Shape" fill="#72533D"></path>
            <path d="M42.91,85.57 C45.62,86.69 48.46,87.66 50.84,89.45 C51.7,92.47 51.04,95.64 50.81,98.71 C49.69,98.68 48.57,98.68 47.45,98.67 C46.91,99.87 46.47,101.11 45.93,102.32 C43.72,101.12 41.53,99.9 39.34,98.67 C39.15,97.24 38.96,95.82 38.77,94.4 C40.24,94.96 41.72,95.51 43.2,96.07 C43.08,92.57 42.96,89.07 42.91,85.57 L42.91,85.57 Z" id="Shape" fill="#604431"></path>
            <path d="M121.52,88.43 C123.84,87.49 126.31,86.32 128.88,86.76 C132.4,87.46 134.22,92.13 132.12,95.03 C130.34,97.32 127.44,98.24 124.93,99.46 C113.97,104.13 103.13,109.06 92.23,113.86 C88.39,115.56 84.51,117.18 80.66,118.86 C79.05,118.55 77.44,118.25 75.83,117.96 C75.21,116.08 74.32,114.21 74.3,112.2 C74.64,109.3 77.6,107.99 79.91,106.86 C93.8,100.77 107.76,94.82 121.52,88.43 L121.52,88.43 Z" id="Shape" fill="#B0AFAD"></path>
            <path d="M63.88,90.99 C65.15,91.56 66.45,92.07 67.74,92.59 C67.89,94.39 68.03,96.19 68.11,98 C68.22,101.4 68.03,104.81 67.83,108.2 C65.08,106.93 62.18,105.78 59.96,103.65 C59.64,101.31 62.02,100.19 63.46,98.86 C63.61,96.23 63.84,93.61 63.88,90.99 L63.88,90.99 Z" id="Shape" fill="#5E432E"></path>
            <path d="M83.95,109.88 C98.31,103.61 112.55,97.06 126.91,90.8 C127.13,91.24 127.57,92.12 127.79,92.56 C115.94,97.76 104.16,103.09 92.34,108.34 C88.41,110.05 84.6,112.08 80.44,113.21 C80.94,111.5 82.36,110.48 83.95,109.88 L83.95,109.88 Z" id="Shape" fill="#000000"></path>
            <path d="M14.07,91.45 C15.8,92.17 17.55,92.84 19.19,93.74 C21.87,94.9 22.05,98.19 23.06,100.57 C23.8,101.02 24.54,101.46 25.28,101.91 C25.63,100.53 25.99,99.16 26.35,97.78 C28.8,99.01 31.92,99.64 33.43,102.15 C34.99,104.74 36.47,107.4 38.32,109.81 C38.68,107.79 39.01,105.78 39.34,103.77 C42.01,105.19 44.7,106.57 47.38,107.97 C47.21,111.1 47.02,114.23 46.8,117.36 C41.35,115.06 36.14,112.22 30.62,110.12 C32.2,114.06 33.91,117.94 35.44,121.91 C33.01,121.04 30.28,120.58 28.25,118.9 C26.08,116 24.79,112.41 21.8,110.16 C19.04,108 17.27,104.96 15.64,101.92 C12.66,104.85 9.02,107.18 6.59,110.63 C5.82,112.97 5.92,115.48 5.75,117.91 C4.19,117.16 2.63,116.43 1.06,115.72 C1,112.53 0.97,109.34 0.98,106.15 C2.15,106.29 3.31,106.42 4.48,106.54 C6.07,105.28 7.75,104.14 9.36,102.91 C9.84,102.25 10.32,101.59 10.81,100.93 C11.75,100.74 12.69,100.54 13.63,100.35 C13.73,97.38 13.95,94.42 14.07,91.45 L14.07,91.45 Z" id="Shape" fill="#5F4431"></path>
            <path d="M92.23,113.86 C103.13,109.06 113.97,104.13 124.93,99.46 C125.24,100.86 125.55,102.26 125.86,103.67 C124.51,104.88 123.16,106.1 121.81,107.32 C121.83,108.63 121.86,109.95 121.89,111.27 C123.91,111.96 125.89,112.91 128.04,113.09 C130.46,112.97 132.66,111.78 134.91,110.99 C134.79,112.52 134.69,114.04 134.59,115.57 C112.59,127.11 90.21,137.93 68.04,149.14 C66.37,148.4 64.68,147.67 63,146.94 L63.16,146.23 C63.44,144.99 63.71,143.75 63.97,142.51 C65.39,142.92 66.81,143.33 68.23,143.75 C68.13,140.17 67.97,136.6 68.07,133.03 C68.13,131.58 68.25,130.13 68.38,128.68 C71.26,125.4 73.65,121.73 75.83,117.96 C77.44,118.25 79.05,118.55 80.66,118.86 C82.24,119.18 83.82,119.53 85.4,119.86 C85.86,120.92 86.31,121.98 86.75,123.04 C88.5,122.55 90.32,121.83 92.16,122.23 C94.56,122.61 97.51,124.17 99.35,121.75 C98.87,119.39 97.8,117.2 96.84,115.01 C95.29,114.66 93.76,114.27 92.23,113.86 L92.23,113.86 Z" id="Shape" fill="#322418"></path>
            <path d="M50.65,104.66 C53.61,106.02 56.54,107.46 59.34,109.12 C60.07,111.72 61.18,114.23 62.93,116.32 C63.47,115.06 64.01,113.8 64.54,112.55 C65.63,112.71 66.72,112.88 67.81,113.04 C67.91,114.28 68.02,115.53 68.14,116.77 C67.03,117.1 65.92,117.42 64.81,117.74 C64.31,118.49 63.81,119.23 63.32,119.99 C61.45,121.3 59.46,122.45 57.62,123.81 C56.89,121.78 56.13,119.75 55.36,117.74 C54.01,116.38 52.47,115.15 51.45,113.51 C50.44,110.69 50.79,107.6 50.65,104.66 L50.65,104.66 Z" id="Shape" fill="#604632"></path>
            <path d="M14.56,111.37 C18.13,115.2 20.19,120.09 21.38,125.14 C17.36,123.77 13.53,121.93 9.81,119.92 C9.8,118.33 9.79,116.75 9.78,115.17 C11.15,115.74 12.53,116.32 13.9,116.9 C14.11,115.05 14.33,113.21 14.56,111.37 L14.56,111.37 Z" id="Shape" fill="#684A38"></path>
            <path d="M80.66,118.86 C84.51,117.18 88.39,115.56 92.23,113.86 C93.76,114.27 95.29,114.66 96.84,115.01 C97.8,117.2 98.87,119.39 99.35,121.75 C97.51,124.17 94.56,122.61 92.16,122.23 C90.32,121.83 88.5,122.55 86.75,123.04 C86.31,121.98 85.86,120.92 85.4,119.86 C83.82,119.53 82.24,119.18 80.66,118.86 L80.66,118.86 Z" id="Shape" fill="#412F21"></path>
            <path d="M43.22,120.68 C46.13,122.13 47.36,124.83 47.1,128.03 C45.77,127.66 44.43,127.28 43.1,126.9 C43.12,124.83 43.16,122.75 43.22,120.68 L43.22,120.68 Z" id="Shape" fill="#6F5342"></path>
            <path d="M25.95,122.89 C30.78,125.52 35.93,127.57 40.62,130.46 C42.59,131.59 42.7,134.09 43.32,136.03 C37.11,134.16 31.58,130.69 25.77,127.91 C25.85,126.23 25.91,124.56 25.95,122.89 L25.95,122.89 Z" id="Shape" fill="#5B4436"></path>
            <path d="M60.52,124.99 C61.51,125.39 62.49,125.79 63.47,126.23 C65.13,126.99 66.75,127.84 68.38,128.68 C68.25,130.13 68.13,131.58 68.07,133.03 C65.44,132.03 62.81,131.03 60.19,130.03 C60.07,131.73 59.96,133.43 59.87,135.13 C58.61,134.31 57.36,133.49 56.11,132.67 C56.05,131.26 56.02,129.85 56,128.44 C57.18,128.43 58.36,128.41 59.54,128.4 C59.87,127.26 60.19,126.12 60.52,124.99 L60.52,124.99 Z" id="Shape" fill="#73533C"></path>
            <path d="M76.38,127.34 C79.17,126.36 81.28,129.54 82.49,131.63 C83.99,133.7 82.84,137.16 80.17,137.44 C77.48,137.81 74.14,137.91 72.17,135.7 C70.56,132.32 72.97,128.31 76.38,127.34 L76.38,127.34 Z" id="Shape" fill="#3C6413"></path>
            <path d="M74.26,134.57 C72.39,132.2 74.78,128.74 77.65,129.42 C80.22,129.97 79.72,133.07 80.23,135.02 C78.29,135.02 75.52,136.8 74.26,134.57 L74.26,134.57 Z" id="Shape" fill="#7EF81B"></path>
            <path d="M60.19,130.03 C62.81,131.03 65.44,132.03 68.07,133.03 C67.97,136.6 68.13,140.17 68.23,143.75 C66.81,143.33 65.39,142.92 63.97,142.51 C63.71,143.75 63.44,144.99 63.16,146.23 C58.5,144.42 54.06,142.14 49.66,139.78 C50.48,138.45 51.3,137.11 52.1,135.76 C54.62,137.01 57.15,138.25 59.66,139.51 C59.72,138.05 59.79,136.59 59.87,135.13 C59.96,133.43 60.07,131.73 60.19,130.03 L60.19,130.03 Z" id="Shape" fill="#5D432E"></path>
        </g>
    </g>
</svg>