<?xml version="1.0" encoding="UTF-8" ?>
<!DOCTYPE svg PUBLIC "-//W3C//DTD SVG 1.1//EN" "http://www.w3.org/Graphics/SVG/1.1/DTD/svg11.dtd">
<svg width="400pt" height="400pt" viewBox="0 0 400 400" version="1.1" xmlns="http://www.w3.org/2000/svg" id="logo">
<path fill="#000" d=" M 167.23 74.19 C 183.86 69.23 201.47 65.52 218.82 68.71 C 231.15 71.44 244.21 73.55 254.51 81.44 C 266.07 88.77 274.92 99.61 281.57 111.45 C 285.95 119.68 287.47 128.96 289.65 137.92 C 292.50 150.44 291.73 163.52 288.95 175.98 C 286.54 186.30 284.42 196.76 280.35 206.59 C 275.04 219.60 269.24 232.43 262.90 244.97 C 269.66 243.10 276.33 245.65 282.85 247.25 C 288.60 250.29 293.46 255.04 296.07 261.03 C 297.24 265.71 298.50 270.38 299.27 275.13 C 300.30 286.04 301.57 296.93 302.43 307.84 C 301.62 312.15 300.55 316.42 299.45 320.66 C 296.43 326.32 291.71 331.06 285.88 333.77 C 279.96 335.22 274.06 337.02 267.93 337.27 C 234.91 339.95 201.88 342.65 168.87 345.39 C 163.42 346.40 158.22 344.02 152.96 343.02 C 146.84 340.73 142.07 335.77 138.81 330.20 C 134.44 317.21 134.36 303.36 132.73 289.86 C 132.24 287.35 133.12 284.92 133.66 282.50 C 134.58 278.87 135.14 275.10 136.83 271.72 C 147.35 249.12 157.32 226.27 167.70 203.61 C 161.88 204.41 156.00 204.77 150.14 205.16 C 146.07 204.48 142.09 203.34 138.07 202.42 C 132.01 199.65 127.11 194.58 124.36 188.53 C 122.98 182.69 121.24 176.89 120.95 170.87 C 119.76 156.99 117.97 142.68 121.91 129.07 C 123.80 119.44 126.93 109.89 132.77 101.89 C 136.44 96.97 139.68 91.54 144.63 87.75 C 151.61 82.41 158.73 76.89 167.23 74.19 Z" />
<path fill="#ec0000" d=" M 167.23 105.28 C 178.19 97.54 191.97 95.63 205.08 95.38 C 214.11 95.58 223.28 96.75 231.64 100.36 C 246.53 106.80 257.66 120.77 261.41 136.47 C 266.40 156.80 262.10 178.24 254.21 197.25 C 242.89 224.29 229.31 250.29 216.16 276.46 C 234.43 275.11 252.66 273.40 270.93 272.08 C 272.49 284.26 273.35 296.52 274.73 308.72 C 237.65 311.91 200.54 314.84 163.44 317.89 C 162.47 307.65 161.29 297.42 160.48 287.18 C 175.71 253.09 191.62 219.29 205.66 184.68 C 210.12 172.90 214.45 160.74 214.82 148.02 C 214.55 142.84 213.90 137.36 210.95 132.95 C 208.25 128.86 202.40 127.66 198.14 129.90 C 194.65 131.45 193.09 135.43 192.79 139.01 C 191.90 150.62 194.39 162.12 194.95 173.68 C 179.79 174.90 164.61 176.02 149.48 177.47 C 148.42 163.38 145.95 149.11 148.45 135.04 C 150.96 123.37 157.31 112.18 167.23 105.28 Z" />
<path fill="#ec0000" d=" M 0.00 101.00 C 17.32 101.07 34.65 100.79 51.97 101.26 C 62.42 101.60 72.95 101.91 83.24 103.89 C 98.00 106.66 108.48 120.30 111.22 134.51 C 114.24 148.78 114.27 163.54 112.92 178.00 C 111.99 184.99 110.97 192.65 106.04 198.08 C 100.76 203.46 93.03 205.31 85.77 206.12 C 91.20 207.59 96.59 209.55 101.22 212.80 C 105.41 215.70 108.21 220.14 110.46 224.62 C 113.25 230.01 113.14 236.24 113.45 242.16 C 114.08 268.43 113.60 294.72 113.75 321.00 C 97.75 321.00 81.75 321.00 65.75 321.00 C 65.73 295.33 65.78 269.67 65.73 244.00 C 65.41 238.14 65.60 232.03 63.47 226.47 C 60.85 221.93 54.83 222.21 50.31 221.62 C 50.18 254.74 50.29 287.87 50.25 321.00 C 33.50 321.00 16.75 321.00 0.00 321.00 L 0.00 101.00 Z" />
<path fill="#ec0000" d=" M 310.25 101.00 C 339.42 101.00 368.58 101.00 397.75 101.00 C 397.74 115.75 397.75 130.50 397.75 145.25 C 385.83 145.25 373.92 145.26 362.01 145.25 C 361.99 159.08 362.00 172.92 362.00 186.75 C 372.58 186.74 383.16 186.76 393.74 186.74 C 393.76 200.75 393.74 214.75 393.75 228.75 C 383.16 228.75 372.58 228.75 362.00 228.75 C 362.00 259.50 362.00 290.25 362.00 321.00 C 344.75 321.00 327.50 321.00 310.25 321.00 C 310.25 247.66 310.25 174.33 310.25 101.00 Z" />
<path fill="#fff" d=" M 50.25 187.30 C 50.32 171.07 50.12 154.85 50.35 138.62 C 54.89 139.18 60.65 139.15 63.47 143.44 C 66.67 149.79 65.52 157.14 65.75 163.99 C 65.61 170.47 66.22 177.41 63.33 183.41 C 60.24 187.19 54.72 187.11 50.25 187.30 Z" />
</svg>
