<?xml version="1.0" encoding="UTF-8" ?>
<!DOCTYPE svg PUBLIC "-//W3C//DTD SVG 1.1//EN" "http://www.w3.org/Graphics/SVG/1.1/DTD/svg11.dtd">
<svg width="400pt" height="430pt" viewBox="0 0 400 430" version="1.1" xmlns="http://www.w3.org/2000/svg" id="logo">
<path fill="#795028" d=" M 211.93 0.00 L 218.63 0.00 C 218.57 0.62 218.45 1.86 218.39 2.48 C 217.30 3.56 216.85 6.26 214.92 5.87 C 213.36 4.20 212.11 2.28 210.90 0.36 L 211.93 0.00 Z" />
<path fill="#40280c" d=" M 195.53 1.52 C 200.06 0.09 203.51 4.23 207.94 4.21 C 208.03 3.47 208.20 1.99 208.29 1.24 C 208.94 1.02 210.24 0.58 210.90 0.36 C 212.11 2.28 213.36 4.20 214.92 5.87 C 216.85 6.26 217.30 3.56 218.39 2.48 C 218.26 4.18 218.15 5.90 218.40 7.60 C 219.59 6.19 220.82 4.79 222.03 3.38 C 226.09 10.29 229.90 17.34 233.61 24.45 C 232.01 24.50 230.41 24.54 228.82 24.57 C 228.92 31.01 229.04 37.44 228.95 43.88 C 229.52 43.89 230.66 43.91 231.23 43.93 C 231.17 44.77 231.06 46.47 231.00 47.31 C 231.71 47.18 233.14 46.92 233.85 46.79 C 234.82 47.47 235.80 48.16 236.78 48.84 C 236.80 48.01 236.85 46.36 236.88 45.53 C 238.74 45.11 240.60 44.63 242.51 44.44 C 243.50 46.14 243.05 50.31 246.07 49.10 C 246.56 47.81 246.93 46.47 247.45 45.19 C 249.25 44.11 251.74 43.99 253.53 45.18 C 253.89 47.21 253.89 49.28 254.03 51.33 C 254.72 50.26 255.34 49.15 256.10 48.13 C 257.99 47.90 259.97 48.24 261.62 49.21 C 262.04 51.81 262.03 54.48 262.70 57.04 C 261.61 58.81 261.35 60.88 261.03 62.89 C 260.08 63.38 259.17 63.94 258.32 64.57 C 257.39 71.78 257.14 79.07 256.31 86.29 C 259.31 86.39 257.45 89.89 259.21 91.39 C 258.97 92.29 258.74 93.18 258.50 94.07 C 258.80 94.03 259.40 93.95 259.70 93.91 C 259.66 92.27 259.63 90.63 259.63 88.99 C 261.63 88.31 263.72 88.07 265.73 88.85 C 265.78 91.45 265.85 94.04 265.92 96.63 L 267.18 96.61 C 267.83 92.29 265.12 85.58 270.38 83.42 C 273.93 81.58 275.77 85.58 278.33 87.08 C 280.69 88.16 281.63 90.72 282.49 92.98 C 282.14 94.78 281.19 96.40 280.56 98.11 C 287.41 98.95 294.04 101.02 300.92 101.64 C 300.93 104.30 300.94 106.97 300.99 109.64 C 315.90 113.05 330.65 117.09 345.54 120.60 C 350.16 121.68 354.89 122.53 359.31 124.34 C 359.02 126.47 359.06 128.63 358.97 130.77 C 365.27 132.08 371.53 133.64 377.78 135.18 C 379.25 135.63 380.95 135.88 381.96 137.18 C 382.75 146.12 381.28 155.00 380.86 163.92 C 383.25 162.94 385.67 162.02 388.09 161.12 C 391.91 162.11 395.76 163.04 399.60 163.97 C 398.99 170.35 398.02 176.69 396.82 182.98 C 397.30 182.94 398.25 182.87 398.73 182.83 C 392.37 188.15 384.86 191.81 377.98 196.37 C 377.18 201.90 376.92 207.48 376.10 213.00 C 381.31 210.66 387.59 211.13 392.72 213.23 C 392.15 219.25 390.28 225.09 389.85 231.14 C 384.29 234.50 378.57 237.59 373.09 241.09 C 369.62 271.46 365.55 301.76 361.22 332.02 C 361.06 333.39 361.40 334.75 361.62 336.10 C 360.41 338.40 358.40 339.98 356.07 341.05 C 346.25 347.36 336.63 353.98 326.73 360.17 C 326.57 368.76 327.13 377.38 326.72 385.97 C 321.61 391.78 316.05 397.32 312.15 404.08 C 310.07 407.80 305.81 404.24 303.33 402.88 C 305.48 402.98 307.63 403.14 309.77 403.42 C 308.96 398.66 308.41 393.84 308.56 389.01 C 308.81 381.12 308.19 373.20 309.18 365.35 C 309.71 358.69 309.99 352.01 309.90 345.33 C 307.90 345.31 305.91 345.28 303.92 345.27 C 303.94 357.84 304.76 370.43 304.21 383.01 C 303.29 389.52 303.70 396.12 302.96 402.66 C 302.50 402.34 301.58 401.72 301.12 401.40 C 301.32 392.88 301.65 384.36 301.77 375.84 C 271.95 394.05 241.61 411.45 210.46 427.27 C 209.05 427.96 207.73 428.83 206.68 430.00 L 205.25 430.00 C 204.89 428.38 203.51 427.44 202.11 426.78 C 177.04 414.13 152.56 400.33 128.40 386.02 C 125.37 390.50 122.46 395.07 119.43 399.55 C 116.86 403.83 111.09 403.19 106.93 404.73 C 96.06 393.97 85.68 382.56 77.09 369.88 C 75.79 364.53 76.58 358.81 75.91 353.33 C 71.42 350.46 66.96 347.51 62.51 344.57 C 59.44 342.56 56.56 340.16 53.06 338.90 C 50.40 336.67 50.81 333.33 50.79 330.22 C 46.77 301.79 42.82 273.33 39.64 244.78 C 36.39 243.00 33.15 241.15 30.24 238.83 C 30.03 237.61 29.83 236.40 29.64 235.18 C 24.96 232.33 19.82 230.10 15.69 226.45 C 13.47 221.20 13.76 215.28 12.11 209.85 C 16.83 207.79 21.60 205.86 26.36 203.91 C 26.30 201.10 25.80 198.21 26.44 195.44 C 28.65 193.83 31.44 193.50 34.01 192.80 C 33.73 189.62 33.41 186.43 33.05 183.26 C 28.21 185.97 23.07 182.61 18.75 180.40 C 17.67 178.14 17.32 175.62 16.67 173.23 C 11.42 176.35 5.85 173.11 0.89 171.10 C 0.60 169.18 0.29 167.28 0.00 165.37 L 0.00 160.87 C 2.24 163.58 2.09 167.16 2.31 170.47 C 4.71 171.13 7.12 171.80 9.52 172.48 C 9.40 169.69 9.30 166.91 9.14 164.13 C 5.98 163.21 2.46 162.79 0.01 160.37 C 4.27 157.65 9.00 155.80 13.88 154.55 C 13.74 152.16 13.61 149.77 13.49 147.38 C 14.79 147.23 16.09 147.09 17.40 146.96 C 21.49 148.76 28.05 150.63 30.50 145.47 C 27.08 145.79 23.73 146.59 20.41 147.43 C 19.66 146.99 18.91 146.54 18.16 146.10 C 22.17 145.57 26.08 144.52 30.02 143.65 C 29.81 140.89 29.25 138.10 29.57 135.32 C 38.47 133.01 47.66 131.60 56.85 131.09 C 56.64 128.22 56.42 125.35 56.13 122.49 C 65.56 121.62 74.80 119.30 84.25 118.45 C 84.09 114.65 83.66 110.80 84.36 107.03 C 86.35 104.88 89.46 106.40 91.90 106.69 C 93.02 110.23 94.20 114.12 92.48 117.69 C 93.97 117.35 95.47 117.02 96.97 116.70 C 95.28 113.55 95.26 109.99 95.52 106.51 C 95.81 106.13 96.40 105.38 96.70 105.00 C 96.86 103.76 97.09 102.53 97.40 101.33 C 100.02 99.01 103.73 99.13 106.86 100.16 C 107.01 102.39 107.13 104.62 107.29 106.85 C 117.04 104.53 126.88 102.49 136.86 101.43 C 136.99 97.96 136.76 94.47 137.07 91.01 C 138.33 88.12 144.52 86.82 144.99 90.99 C 146.68 91.29 149.01 91.28 149.60 93.31 C 149.86 95.56 149.73 97.84 149.77 100.10 C 152.48 100.01 155.22 99.60 157.42 97.88 C 156.59 97.08 155.80 96.23 155.08 95.34 C 155.86 94.38 156.59 93.39 157.27 92.37 L 158.21 92.08 C 158.52 93.03 158.82 94.00 159.11 94.97 C 158.61 95.10 157.60 95.38 157.10 95.52 C 158.16 96.03 159.23 96.54 160.30 97.05 C 160.41 94.63 160.47 92.22 160.39 89.81 C 160.49 84.30 158.34 78.45 160.80 73.23 C 161.45 79.82 162.06 86.42 162.30 93.04 C 162.25 96.50 164.80 99.11 166.36 101.97 C 171.19 103.44 176.14 101.90 181.05 102.18 C 178.88 103.40 176.52 104.44 173.98 104.33 C 168.88 104.25 163.62 104.17 158.84 102.16 C 160.56 102.08 162.28 102.01 164.00 101.96 C 163.13 100.46 162.27 98.95 161.43 97.43 C 160.40 98.82 159.76 100.78 158.03 101.45 C 155.40 101.42 152.76 101.20 150.16 101.65 C 149.80 103.42 149.44 105.25 148.18 106.63 C 148.04 108.16 147.94 109.69 147.84 111.23 C 147.24 111.10 146.04 110.86 145.43 110.74 C 145.32 109.12 145.20 107.51 145.07 105.90 C 144.40 105.94 143.06 106.03 142.39 106.08 C 142.06 108.41 143.72 112.56 140.00 112.39 C 139.94 109.98 139.90 107.56 139.87 105.15 C 136.72 103.67 133.23 103.64 129.88 104.34 C 124.43 105.30 118.86 105.77 113.56 107.46 C 121.74 109.12 129.86 111.01 138.01 112.83 C 141.13 113.45 144.40 114.47 147.56 113.47 C 151.67 112.37 155.83 110.68 160.17 111.36 C 170.43 112.69 180.68 114.09 190.94 115.37 C 193.76 115.81 196.40 114.48 199.09 113.89 C 202.00 112.97 205.06 113.65 207.99 114.09 C 218.25 116.03 228.61 117.47 238.82 119.74 C 240.82 120.10 242.97 120.85 244.96 119.97 C 251.60 117.56 258.21 114.98 265.06 113.20 C 269.06 111.87 272.94 114.02 276.88 114.47 C 279.04 114.20 281.08 113.35 283.16 112.73 C 280.91 111.92 278.68 111.05 276.57 109.92 C 282.66 106.70 289.32 104.89 295.70 102.36 C 290.23 101.89 284.92 100.35 279.46 99.87 C 279.48 101.71 279.53 103.56 279.43 105.40 C 275.91 106.69 277.47 101.65 276.95 99.77 C 276.09 99.61 274.36 99.30 273.50 99.14 C 273.59 101.52 273.70 103.91 273.82 106.29 C 273.07 106.36 271.57 106.48 270.81 106.54 C 270.79 104.44 270.87 102.33 270.64 100.23 C 269.33 99.20 267.71 98.68 266.22 97.98 C 265.17 101.19 264.57 104.50 264.27 107.86 C 260.94 106.47 262.66 101.91 260.20 99.57 C 259.39 100.38 258.59 101.19 257.80 102.00 C 251.01 101.88 244.11 103.15 237.45 101.32 C 233.23 100.25 229.21 102.32 225.08 102.82 C 215.06 104.05 204.93 103.79 194.90 102.83 C 191.66 102.55 188.55 101.59 185.47 100.61 C 189.99 100.54 194.48 101.28 199.00 101.44 C 199.08 96.72 198.78 91.98 199.36 87.29 C 204.99 83.53 213.06 82.42 219.12 85.81 C 219.23 90.99 219.44 96.16 219.60 101.34 C 225.07 101.17 230.51 100.45 235.98 100.25 C 240.80 100.61 245.63 101.02 250.47 100.84 C 250.43 99.89 250.35 97.99 250.30 97.04 C 251.02 97.14 252.45 97.35 253.16 97.45 C 254.15 94.01 254.03 90.42 254.21 86.88 C 254.75 78.52 255.72 70.17 257.44 61.96 C 250.75 57.07 241.43 56.64 233.99 60.01 C 234.62 72.70 235.64 85.46 234.50 98.16 C 232.23 89.30 233.85 80.07 233.26 71.05 C 222.45 70.79 211.69 68.58 200.85 69.51 C 194.84 69.85 188.92 70.95 183.00 71.91 C 182.92 81.40 183.49 90.94 182.57 100.40 C 181.07 96.11 181.07 91.50 181.01 87.00 C 180.97 78.72 181.15 70.42 181.91 62.16 C 182.87 61.75 183.82 61.34 184.79 60.93 C 184.82 56.47 184.95 52.01 184.91 47.54 C 181.00 47.38 183.08 51.59 183.82 53.67 C 175.15 50.88 165.00 50.38 156.86 54.97 C 153.64 56.41 155.96 60.01 156.26 62.51 C 157.75 62.86 158.81 63.69 159.46 64.97 C 159.08 65.06 158.32 65.23 157.95 65.32 C 156.88 64.77 155.36 64.52 155.06 63.15 C 153.84 58.88 153.51 54.42 152.97 50.02 C 154.95 49.08 157.05 48.40 159.26 48.27 C 159.67 49.61 160.10 50.94 160.53 52.28 C 160.60 50.35 160.63 48.43 160.67 46.50 C 162.54 46.02 164.40 45.52 166.25 44.98 C 166.95 46.64 167.61 48.31 168.26 49.99 C 169.33 49.96 170.41 49.93 171.49 49.90 C 171.58 48.54 171.67 47.17 171.76 45.81 C 173.82 45.62 175.87 45.39 177.93 45.21 C 178.21 47.05 178.49 48.89 178.91 50.70 C 180.17 46.30 184.42 43.28 188.96 43.34 C 188.89 40.12 188.90 36.89 189.00 33.67 C 189.23 34.50 189.68 36.16 189.91 36.99 C 190.19 36.95 190.75 36.87 191.03 36.83 C 191.94 36.04 192.88 35.27 193.83 34.51 C 193.67 36.15 193.85 37.78 193.79 39.41 C 192.48 37.98 191.14 39.34 190.28 40.27 C 190.30 43.28 192.07 45.91 192.49 48.86 L 192.71 48.87 C 193.39 46.53 192.60 42.51 195.84 42.02 C 197.69 41.91 199.98 41.95 201.35 43.40 C 202.21 45.49 201.92 48.27 204.09 49.60 C 204.04 44.28 203.57 38.98 203.53 33.66 C 203.79 33.71 204.30 33.82 204.55 33.88 C 204.83 36.56 205.00 39.26 205.17 41.95 C 207.43 41.88 209.68 41.83 211.94 41.83 C 211.92 36.16 212.09 30.49 212.09 24.82 C 210.64 24.32 209.20 23.80 207.76 23.28 C 210.08 17.95 213.54 13.23 217.22 8.76 C 217.28 8.13 217.41 6.87 217.47 6.24 C 216.70 6.38 215.16 6.68 214.39 6.82 C 215.46 10.82 211.06 11.88 208.02 11.53 C 203.91 11.69 200.93 8.35 196.93 8.02 C 197.01 9.91 197.10 11.79 197.20 13.68 C 202.25 18.16 204.97 24.56 207.32 30.73 C 207.15 31.04 206.81 31.64 206.64 31.94 C 204.29 27.15 202.14 22.25 199.72 17.49 C 198.87 18.23 198.04 18.99 197.24 19.77 C 196.77 18.03 196.28 16.29 195.91 14.52 C 195.33 10.21 195.32 5.86 195.53 1.52 Z" />
<path fill="#795028" d=" M 209.13 2.19 C 210.77 1.60 211.35 2.11 210.86 3.73 C 209.22 4.33 208.64 3.81 209.13 2.19 Z" />
<path fill="#f0d63e" d=" M 197.35 3.01 C 199.71 3.14 202.35 3.86 202.97 6.48 C 201.05 6.58 199.13 6.64 197.22 6.72 C 197.26 5.48 197.31 4.25 197.35 3.01 Z" />
<path fill="#f0d63e" d=" M 204.29 5.26 C 205.16 5.63 206.04 6.00 206.92 6.37 C 208.90 5.68 210.91 5.06 212.92 4.43 C 212.83 6.00 212.75 7.57 212.68 9.14 C 209.55 9.43 205.91 10.53 203.17 8.41 C 203.45 7.62 204.01 6.04 204.29 5.26 Z" />
<path fill="#b5b8c6" d=" M 222.99 9.61 C 225.78 13.51 226.03 18.65 229.06 22.42 C 229.13 21.80 229.27 20.55 229.34 19.93 C 229.99 20.87 230.64 21.82 231.30 22.77 C 226.86 22.47 222.41 22.57 217.97 22.68 C 218.75 18.66 219.48 14.62 220.56 10.67 C 221.31 14.59 219.54 19.02 221.93 22.50 C 222.53 18.20 221.22 13.74 222.99 9.61 Z" />
<path fill="#b5b8c6" d=" M 209.18 23.63 C 211.97 18.96 214.79 14.20 218.56 10.25 C 217.00 14.82 214.07 18.75 211.90 23.05 C 211.22 23.19 209.86 23.48 209.18 23.63 Z" />
<path fill="#40280c" d=" M 224.65 21.22 C 223.61 17.95 222.56 14.46 223.53 11.03 C 224.30 14.36 225.09 17.78 224.65 21.22 Z" />
<path fill="#542550" d=" M 184.39 33.49 C 186.22 26.23 190.06 19.30 195.91 14.52 C 196.28 16.29 196.77 18.03 197.24 19.77 C 198.04 18.99 198.87 18.23 199.72 17.49 C 202.14 22.25 204.29 27.15 206.64 31.94 C 206.81 31.64 207.15 31.04 207.32 30.73 C 207.76 32.06 208.19 33.40 208.62 34.73 C 207.26 34.44 205.90 34.16 204.55 33.88 C 204.30 33.82 203.79 33.71 203.53 33.66 C 198.73 32.70 193.79 32.89 188.93 33.31 C 187.42 33.42 185.90 33.46 184.39 33.49 Z" />
<path fill="#b5b8c6" d=" M 212.92 22.86 C 214.87 20.33 216.17 17.36 218.20 14.89 C 217.80 17.54 217.11 20.12 216.53 22.73 C 215.33 22.77 214.12 22.82 212.92 22.86 Z" />
<path fill="#b5b8c6" d=" M 186.61 32.34 C 188.26 27.35 190.67 22.37 194.43 18.62 C 191.95 23.24 189.89 28.25 186.61 32.34 Z" />
<path fill="#b5b8c6" d=" M 195.28 22.53 L 196.08 22.64 C 195.96 25.49 195.82 28.35 195.67 31.21 C 193.40 31.27 191.15 31.50 188.91 31.87 C 190.42 29.06 191.63 26.04 193.80 23.65 C 193.18 26.09 192.58 28.54 192.24 31.04 C 195.05 29.37 194.40 25.31 195.28 22.53 Z" />
<path fill="#598dc8" d=" M 198.46 22.66 C 198.95 24.58 199.06 26.62 199.95 28.42 C 200.12 27.12 200.29 25.82 200.46 24.52 C 201.38 26.97 202.33 29.41 203.21 31.88 C 201.31 31.67 199.43 31.46 197.54 31.27 C 197.51 28.37 197.66 25.46 198.46 22.66 Z" />
<path fill="#b5b8c6" d=" M 212.47 24.58 C 217.79 24.41 223.12 24.25 228.44 24.49 C 227.49 30.58 227.40 36.77 227.69 42.92 C 227.41 42.90 226.84 42.86 226.56 42.83 C 226.69 40.77 225.95 39.43 224.33 38.79 C 224.31 40.34 224.29 41.90 224.29 43.45 C 222.80 45.47 222.69 47.93 222.88 50.35 L 222.11 50.28 C 222.10 47.98 222.69 45.44 221.45 43.34 C 220.30 42.22 218.54 42.46 217.10 42.12 C 216.06 42.82 214.99 43.49 213.92 44.16 C 213.96 45.82 214.00 47.48 214.04 49.15 C 213.30 48.92 211.82 48.46 211.07 48.23 C 209.51 48.92 207.80 48.98 206.12 49.05 C 205.97 47.04 205.82 45.03 205.70 43.01 C 207.35 43.03 209.01 43.05 210.67 43.09 C 210.52 44.77 210.37 46.44 210.21 48.12 C 210.93 48.00 212.39 47.76 213.11 47.64 C 213.46 39.96 213.49 32.23 212.47 24.58 Z" />
<path fill="#40280c" d=" M 215.04 25.59 C 217.34 26.07 219.22 29.64 217.11 31.28 C 216.18 32.36 215.03 31.53 214.40 30.62 C 214.28 28.92 214.75 27.25 215.04 25.59 Z" />
<path fill="#542550" d=" M 218.62 32.32 C 222.09 32.15 223.63 38.45 219.51 38.42 C 217.42 37.02 218.43 34.34 218.62 32.32 Z" />
<path fill="#b5b8c6" d=" M 188.93 33.31 C 193.79 32.89 198.73 32.70 203.53 33.66 C 203.57 38.98 204.04 44.28 204.09 49.60 C 201.92 48.27 202.21 45.49 201.35 43.40 C 199.98 41.95 197.69 41.91 195.84 42.02 C 192.60 42.51 193.39 46.53 192.71 48.87 L 192.49 48.86 C 192.07 45.91 190.30 43.28 190.28 40.27 C 191.14 39.34 192.48 37.98 193.79 39.41 C 193.85 37.78 193.67 36.15 193.83 34.51 C 192.88 35.27 191.94 36.04 191.03 36.83 C 190.75 36.87 190.19 36.95 189.91 36.99 C 189.68 36.16 189.23 34.50 189.00 33.67 L 188.93 33.31 Z" />
<path fill="#542550" d=" M 199.19 34.10 C 200.60 35.14 201.71 36.46 202.31 38.12 C 201.11 38.65 199.29 40.33 198.11 39.02 C 197.68 37.26 198.00 35.48 199.19 34.10 Z" />
<path fill="#b5b8c6" d=" M 194.72 43.25 C 196.40 42.91 198.05 43.26 199.62 43.87 C 199.68 45.55 199.76 47.23 199.86 48.91 C 198.08 49.05 196.30 49.21 194.53 49.36 C 194.58 47.32 194.64 45.28 194.72 43.25 Z" />
<path fill="#b5b8c6" d=" M 216.88 43.57 C 217.90 43.62 219.94 43.71 220.96 43.76 C 220.92 45.86 220.85 47.96 220.80 50.06 C 219.84 49.96 217.91 49.76 216.95 49.66 C 216.91 47.63 216.90 45.60 216.88 43.57 Z" />
<path fill="#b5b8c6" d=" M 183.35 45.10 C 185.47 44.96 187.59 44.86 189.72 44.81 C 189.66 46.47 189.63 48.13 189.63 49.79 L 188.12 50.28 C 187.64 50.38 186.66 50.58 186.17 50.68 C 186.10 49.85 185.95 48.20 185.88 47.37 C 185.04 46.60 184.20 45.84 183.35 45.10 Z" />
<path fill="#b5b8c6" d=" M 224.94 44.62 C 226.54 44.72 228.14 44.83 229.74 44.95 C 229.77 47.38 229.67 49.81 229.52 52.24 C 228.02 51.74 226.52 51.23 225.01 50.75 C 225.00 48.71 224.97 46.67 224.94 44.62 Z" />
<path fill="#b5b8c6" d=" M 238.23 46.71 C 239.43 46.37 240.66 46.07 241.89 45.81 C 241.92 46.74 241.99 48.59 242.03 49.52 C 241.03 49.61 239.03 49.78 238.03 49.87 C 238.08 49.08 238.18 47.50 238.23 46.71 Z" />
<path fill="#b5b8c6" d=" M 248.22 46.07 C 249.52 46.02 250.82 45.99 252.13 45.96 C 252.17 47.34 252.20 48.72 252.23 50.10 C 250.80 49.87 249.36 49.62 247.94 49.36 C 248.01 48.54 248.15 46.89 248.22 46.07 Z" />
<path fill="#b5b8c6" d=" M 161.94 47.29 C 163.25 47.10 164.56 46.92 165.88 46.74 C 165.99 47.69 166.21 49.58 166.32 50.53 C 164.89 50.75 163.46 50.96 162.03 51.14 C 161.99 49.86 161.96 48.57 161.94 47.29 Z" />
<path fill="#b5b8c6" d=" M 172.86 47.04 C 174.22 46.92 175.58 46.80 176.95 46.69 C 176.97 47.53 177.00 49.21 177.02 50.05 C 175.71 50.02 174.39 49.99 173.08 49.96 C 173.03 49.23 172.91 47.77 172.86 47.04 Z" />
<path fill="#b5b8c6" d=" M 183.82 53.67 C 183.08 51.59 181.00 47.38 184.91 47.54 C 184.95 52.01 184.82 56.47 184.79 60.93 C 183.82 61.34 182.87 61.75 181.91 62.16 C 181.15 70.42 180.97 78.72 181.01 87.00 C 181.07 91.50 181.07 96.11 182.57 100.40 C 183.49 90.94 182.92 81.40 183.00 71.91 C 188.92 70.95 194.84 69.85 200.85 69.51 C 211.69 68.58 222.45 70.79 233.26 71.05 C 233.85 80.07 232.23 89.30 234.50 98.16 C 235.64 85.46 234.62 72.70 233.99 60.01 C 241.43 56.64 250.75 57.07 257.44 61.96 C 255.72 70.17 254.75 78.52 254.21 86.88 C 254.03 90.42 254.15 94.01 253.16 97.45 C 252.45 97.35 251.02 97.14 250.30 97.04 C 250.35 97.99 250.43 99.89 250.47 100.84 C 245.63 101.02 240.80 100.61 235.98 100.25 C 230.51 100.45 225.07 101.17 219.60 101.34 C 219.44 96.16 219.23 90.99 219.12 85.81 C 213.06 82.42 204.99 83.53 199.36 87.29 C 198.78 91.98 199.08 96.72 199.00 101.44 C 194.48 101.28 189.99 100.54 185.47 100.61 C 183.89 100.77 182.47 101.55 181.05 102.18 C 176.14 101.90 171.19 103.44 166.36 101.97 C 164.80 99.11 162.25 96.50 162.30 93.04 C 162.06 86.42 161.45 79.82 160.80 73.23 C 160.74 72.49 160.61 71.00 160.54 70.26 C 161.01 69.62 161.49 68.99 161.97 68.36 L 162.44 70.30 C 163.15 69.96 164.55 69.28 165.25 68.94 C 164.85 67.24 165.13 65.20 164.04 63.76 C 163.40 63.80 162.14 63.89 161.51 63.93 C 161.41 65.02 161.20 67.21 161.10 68.31 C 160.93 68.17 160.58 67.89 160.40 67.75 C 159.77 65.49 158.44 67.37 158.53 68.78 C 158.30 67.63 158.11 66.47 157.95 65.32 C 158.32 65.23 159.08 65.06 159.46 64.97 C 158.81 63.69 157.75 62.86 156.26 62.51 C 155.96 60.01 153.64 56.41 156.86 54.97 C 165.00 50.38 175.15 50.88 183.82 53.67 Z" />
<path fill="#b5b8c6" d=" M 230.87 51.31 C 230.09 48.32 234.15 48.17 233.20 51.27 C 232.41 52.31 231.64 52.33 230.87 51.31 Z" />
<path fill="#b5b8c6" d=" M 155.56 55.77 C 154.00 53.47 153.40 49.92 157.12 49.65 C 157.53 51.91 157.25 54.08 155.56 55.77 Z" />
<path fill="#55b155" d=" M 186.17 50.68 C 186.66 50.58 187.64 50.38 188.12 50.28 L 189.21 51.02 C 187.14 51.40 186.02 52.78 186.13 54.98 C 187.31 54.38 188.52 53.79 189.73 53.24 L 190.48 51.71 L 190.45 54.01 C 189.11 55.40 189.67 57.50 189.43 59.23 C 188.84 59.04 187.65 58.66 187.05 58.47 C 186.84 59.09 186.40 60.34 186.19 60.96 C 186.17 57.53 186.07 54.10 186.17 50.68 Z" />
<path fill="#b5b8c6" d=" M 257.74 49.70 C 258.44 49.83 259.84 50.09 260.54 50.22 C 260.52 51.49 260.49 52.76 260.47 54.03 C 258.73 53.20 257.38 51.81 257.74 49.70 Z" />
<path fill="#b5b8c6" d=" M 189.21 51.02 C 202.70 49.22 216.32 50.50 229.63 53.04 C 229.83 55.29 229.91 57.56 230.35 59.78 C 231.01 61.05 232.73 61.55 233.12 62.96 C 231.55 64.97 231.08 67.34 231.51 69.83 C 231.16 69.87 230.45 69.94 230.10 69.98 C 229.94 67.97 229.79 65.96 229.70 63.95 C 227.70 63.23 225.65 62.69 223.60 62.17 C 221.73 63.69 222.02 66.10 221.94 68.26 C 220.30 68.12 218.67 67.99 217.04 67.87 C 216.91 65.73 216.79 63.59 216.66 61.45 C 213.63 61.23 210.59 61.12 207.55 61.26 C 207.59 63.39 207.66 65.52 207.74 67.65 C 206.89 67.64 205.19 67.62 204.34 67.62 C 204.06 65.57 204.66 62.25 202.05 61.49 C 199.21 61.45 196.39 61.99 193.58 62.37 C 193.69 64.46 193.83 66.55 194.10 68.64 C 193.35 68.70 191.84 68.84 191.08 68.91 C 191.01 66.86 191.32 64.27 189.05 63.28 C 186.87 63.84 184.80 64.75 182.66 65.43 C 182.34 62.86 185.50 62.89 186.19 60.96 C 186.40 60.34 186.84 59.09 187.05 58.47 C 187.65 58.66 188.84 59.04 189.43 59.23 C 192.61 59.20 191.31 55.75 190.45 54.01 L 190.48 51.71 L 189.73 53.24 C 188.52 53.79 187.31 54.38 186.13 54.98 C 186.02 52.78 187.14 51.40 189.21 51.02 Z" />
<path fill="#b5b8c6" d=" M 234.40 52.73 C 237.44 50.56 241.39 50.81 244.95 50.71 C 250.35 50.78 256.05 52.24 260.10 55.99 C 260.09 58.21 260.61 61.06 258.57 62.60 C 257.12 59.54 254.35 57.16 251.01 56.45 C 244.58 55.21 237.21 55.68 232.13 60.25 C 231.56 57.78 231.10 55.28 230.91 52.74 C 232.07 52.76 233.23 52.75 234.40 52.73 Z" />
<path fill="#40280c" d=" M 205.57 52.69 C 208.50 51.17 207.84 55.95 208.57 57.64 C 207.31 57.90 205.62 58.93 204.56 57.70 C 203.79 56.13 203.52 53.41 205.57 52.69 Z" />
<path fill="#795028" d=" M 196.77 58.13 C 194.04 56.74 195.76 51.96 198.90 52.88 C 199.28 53.83 199.66 54.78 200.04 55.73 C 198.95 55.28 197.86 54.85 196.76 54.44 C 196.76 55.36 196.77 57.21 196.77 58.13 Z" />
<path fill="#542550" d=" M 214.50 59.53 C 212.89 57.95 212.07 54.02 214.99 53.50 C 217.47 54.10 216.97 56.96 217.23 58.90 C 216.32 59.11 215.41 59.32 214.50 59.53 Z" />
<path fill="#40280c" d=" M 189.43 59.23 C 189.67 57.50 189.11 55.40 190.45 54.01 C 191.31 55.75 192.61 59.20 189.43 59.23 Z" />
<path fill="#40280c" d=" M 222.29 54.49 C 222.93 54.43 224.21 54.31 224.85 54.25 C 225.39 55.91 226.44 57.71 225.60 59.46 C 224.33 60.04 222.64 60.56 221.84 59.01 C 221.58 57.49 222.06 55.98 222.29 54.49 Z" />
<path fill="#40280c" d=" M 188.32 57.87 C 187.49 56.58 187.69 55.74 188.91 55.35 C 189.73 56.63 189.54 57.47 188.32 57.87 Z" />
<path fill="#40280c" d=" M 196.76 54.44 C 197.86 54.85 198.95 55.28 200.04 55.73 C 200.93 58.27 198.59 58.64 196.77 59.16 L 196.77 58.13 C 196.77 57.21 196.76 55.36 196.76 54.44 Z" />
<path fill="#40280c" d=" M 169.99 56.98 C 174.40 56.33 179.80 56.82 182.59 60.77 C 178.82 59.92 175.07 58.36 171.13 58.78 C 166.77 58.83 162.68 60.44 158.72 62.11 C 161.28 58.54 165.96 57.76 169.99 56.98 Z" />
<path fill="#40280c" d=" M 167.68 62.59 C 169.00 62.54 170.32 62.48 171.64 62.42 C 171.85 64.61 171.98 66.81 171.95 69.02 C 170.68 69.03 169.42 69.03 168.15 69.03 C 167.97 66.89 167.83 64.74 167.68 62.59 Z" />
<path fill="#542550" d=" M 175.78 62.58 C 176.96 62.82 178.43 62.50 179.38 63.38 C 179.57 65.19 179.53 67.01 179.59 68.82 L 179.50 68.67 C 178.58 67.00 177.37 65.52 175.93 64.27 C 175.78 65.89 175.64 67.50 175.51 69.11 C 175.33 66.93 175.44 64.74 175.78 62.58 Z" />
<path fill="#40280c" d=" M 243.92 61.89 C 245.31 61.83 246.71 61.75 248.12 61.67 C 248.18 64.05 249.24 66.64 248.18 68.91 C 246.45 69.71 244.81 68.93 243.28 68.13 C 243.50 66.05 243.71 63.97 243.92 61.89 Z" />
<path fill="#b5b8c6" d=" M 194.76 63.35 C 196.84 63.15 198.93 63.01 201.03 62.89 C 201.05 64.57 201.08 66.24 201.12 67.92 C 199.06 67.99 197.01 68.10 194.95 68.23 C 194.88 66.60 194.81 64.98 194.76 63.35 Z" />
<path fill="#542550" d=" M 202.26 63.47 C 203.68 63.43 203.59 65.91 202.76 66.64 C 201.35 66.68 201.45 64.21 202.26 63.47 Z" />
<path fill="#b5b8c6" d=" M 208.95 62.74 C 211.17 62.83 213.39 62.92 215.62 63.01 C 215.67 64.63 215.72 66.25 215.78 67.87 C 213.52 67.74 211.27 67.62 209.02 67.47 C 209.00 65.89 208.97 64.32 208.95 62.74 Z" />
<path fill="#40280c" d=" M 237.48 63.14 C 240.57 61.56 237.72 66.37 237.48 63.14 Z" />
<path fill="#542550" d=" M 161.51 63.93 C 162.14 63.89 163.40 63.80 164.04 63.76 C 165.13 65.20 164.85 67.24 165.25 68.94 C 164.55 69.28 163.15 69.96 162.44 70.30 L 161.97 68.36 C 161.49 68.99 161.01 69.62 160.54 70.26 C 160.61 71.00 160.74 72.49 160.80 73.23 C 158.34 78.45 160.49 84.30 160.39 89.81 C 159.69 90.59 158.97 91.35 158.21 92.08 L 157.27 92.37 C 157.97 90.56 158.18 88.40 159.87 87.18 C 159.82 82.38 159.23 77.61 159.11 72.81 C 159.82 71.21 160.31 69.51 160.40 67.75 C 160.58 67.89 160.93 68.17 161.10 68.31 C 161.20 67.21 161.41 65.02 161.51 63.93 Z" />
<path fill="#b5b8c6" d=" M 224.98 63.96 C 226.15 64.27 227.33 64.58 228.51 64.89 C 228.56 66.32 228.62 67.75 228.67 69.18 C 227.80 69.09 226.07 68.91 225.21 68.82 C 225.11 67.20 225.03 65.58 224.98 63.96 Z" />
<path fill="#40280c" d=" M 251.92 69.81 C 251.23 68.11 251.06 63.81 253.73 64.34 C 255.09 65.80 254.37 68.25 254.80 70.09 C 254.08 70.02 252.64 69.88 251.92 69.81 Z" />
<path fill="#40280c" d=" M 175.93 64.27 C 177.37 65.52 178.58 67.00 179.50 68.67 C 178.50 68.78 176.51 69.00 175.51 69.11 C 175.64 67.50 175.78 65.89 175.93 64.27 Z" />
<path fill="#b5b8c6" d=" M 183.07 65.99 C 184.43 65.66 185.78 65.34 187.15 65.03 C 187.20 66.64 187.25 68.24 187.31 69.85 C 185.86 70.36 184.43 70.87 183.00 71.40 C 182.99 69.59 183.00 67.79 183.07 65.99 Z" />
<path fill="#55b155" d=" M 187.15 65.03 C 187.81 65.10 189.13 65.25 189.79 65.32 C 189.83 66.46 189.87 67.60 189.90 68.75 C 189.03 69.11 188.17 69.48 187.31 69.85 C 187.25 68.24 187.20 66.64 187.15 65.03 Z" />
<path fill="#40280c" d=" M 236.10 63.71 C 237.27 64.70 237.71 66.02 237.43 67.70 L 237.57 67.74 C 237.44 65.82 237.69 64.09 240.01 64.02 C 239.61 65.55 240.98 68.12 239.01 68.95 C 238.10 69.60 236.97 69.37 235.95 69.28 C 235.97 67.43 236.02 65.57 236.10 63.71 Z" />
<path fill="#40280c" d=" M 158.53 68.78 C 158.44 67.37 159.77 65.49 160.40 67.75 C 160.31 69.51 159.82 71.21 159.11 72.81 C 158.90 71.47 158.71 70.12 158.53 68.78 Z" />
<path fill="#40280c" d=" M 187.04 75.04 C 188.02 73.00 192.50 72.06 192.82 75.07 C 193.36 79.01 193.55 83.12 193.26 87.07 C 191.19 87.76 188.98 87.83 186.84 88.07 C 185.40 83.84 186.43 79.35 186.45 75.00 L 188.12 75.90 C 188.51 79.34 187.77 82.84 188.54 86.25 C 189.02 82.77 188.79 79.25 188.63 75.75 C 189.53 75.71 191.34 75.62 192.25 75.58 C 190.53 75.27 188.77 75.19 187.04 75.04 Z" />
<path fill="#542550" d=" M 200.38 74.07 C 200.88 73.55 201.81 73.24 202.48 72.82 C 203.10 73.14 204.35 73.78 204.98 74.10 C 204.12 75.69 203.26 77.28 202.40 78.87 C 201.71 77.27 201.01 75.68 200.38 74.07 Z" />
<path fill="#40280c" d=" M 202.48 72.82 C 203.68 73.31 206.39 72.11 206.50 74.09 C 206.68 76.36 206.30 78.63 206.02 80.88 C 204.08 80.79 201.60 81.64 200.17 79.86 C 199.80 77.94 200.17 75.98 200.38 74.07 C 201.01 75.68 201.71 77.27 202.40 78.87 C 203.26 77.28 204.12 75.69 204.98 74.10 C 204.35 73.78 203.10 73.14 202.48 72.82 Z" />
<path fill="#40280c" d=" M 213.18 73.08 C 214.53 72.97 215.75 73.07 216.87 73.38 C 216.40 73.69 215.47 74.31 215.01 74.62 C 215.49 74.73 216.45 74.94 216.93 75.05 C 217.17 76.10 217.41 77.16 217.64 78.22 C 217.54 76.82 217.72 75.46 218.19 74.15 C 220.01 75.18 218.79 78.25 218.89 80.05 C 217.18 81.25 214.93 80.19 213.02 80.11 C 213.00 77.77 213.09 75.42 213.18 73.08 Z" />
<path fill="#40280c" d=" M 225.00 74.41 C 226.67 74.31 228.35 74.22 230.03 74.14 C 230.41 74.55 231.18 75.39 231.57 75.81 C 231.26 79.47 230.98 83.14 230.86 86.82 C 228.97 87.13 227.08 87.46 225.20 87.76 C 224.98 84.05 225.00 80.33 225.17 76.62 C 226.22 76.67 228.31 76.78 229.35 76.83 C 229.27 79.92 229.15 83.04 229.51 86.12 C 229.75 82.82 229.65 79.51 229.79 76.21 C 227.93 76.08 224.81 77.41 225.00 74.41 Z" />
<path fill="#1f5d7d" d=" M 272.45 86.39 C 272.83 85.85 273.58 84.78 273.95 84.25 C 274.24 84.67 274.82 85.53 275.11 85.95 C 274.10 89.83 274.82 93.96 273.89 97.78 C 272.30 98.12 270.26 99.31 268.83 97.98 C 268.13 94.37 268.59 90.66 268.36 87.01 C 269.72 86.78 271.08 86.58 272.45 86.39 Z" />
<path fill="#795028" d=" M 204.19 86.47 C 204.70 86.30 205.73 85.97 206.24 85.80 C 206.75 90.97 204.54 96.96 207.81 101.50 C 208.15 96.30 207.94 91.09 207.99 85.88 C 208.71 85.91 210.15 85.95 210.87 85.97 C 210.52 91.21 210.70 96.45 210.86 101.69 C 207.53 101.01 203.31 103.00 200.54 100.68 C 200.33 96.41 200.00 92.06 200.59 87.82 C 201.09 87.62 202.09 87.22 202.59 87.02 C 202.24 91.48 201.68 96.05 202.74 100.46 C 202.99 100.55 203.47 100.74 203.72 100.83 C 204.69 96.11 203.25 91.19 204.19 86.47 Z" />
<path fill="#795028" d=" M 212.05 85.56 C 212.45 85.74 213.24 86.10 213.64 86.28 C 213.90 89.51 213.57 92.76 213.82 96.00 C 213.84 98.08 214.42 100.35 213.24 102.25 C 211.15 96.95 212.27 91.10 212.05 85.56 Z" />
<path fill="#795028" d=" M 215.04 85.85 C 216.17 86.29 217.31 86.76 218.44 87.25 C 216.77 92.04 218.64 97.22 216.99 101.99 C 215.27 96.81 215.52 91.23 215.04 85.85 Z" />
<path fill="#1f5d7d" d=" M 275.89 87.04 C 277.09 87.53 278.31 87.98 279.47 88.58 C 280.13 91.89 279.68 95.30 279.73 98.65 C 278.50 98.66 277.28 98.66 276.06 98.67 C 275.44 94.82 275.69 90.91 275.89 87.04 Z" />
<path fill="#1f5d7d" d=" M 138.64 90.15 C 140.33 89.70 142.08 89.61 143.82 89.75 C 143.39 94.65 143.41 99.56 143.22 104.47 C 141.59 104.26 139.97 103.99 138.35 103.67 C 138.41 99.98 138.12 96.30 137.48 92.67 C 138.93 92.27 140.38 91.87 141.82 91.47 C 140.76 91.02 139.70 90.58 138.64 90.15 Z" />
<path fill="#1f5d7d" d=" M 160.39 89.81 C 160.47 92.22 160.41 94.63 160.30 97.05 C 159.23 96.54 158.16 96.03 157.10 95.52 C 157.60 95.38 158.61 95.10 159.11 94.97 C 158.82 94.00 158.52 93.03 158.21 92.08 C 158.97 91.35 159.69 90.59 160.39 89.81 Z" />
<path fill="#1f5d7d" d=" M 260.88 89.88 C 262.68 88.64 265.14 89.60 264.53 92.01 C 264.71 94.75 264.67 97.51 264.24 100.23 C 263.68 100.30 262.58 100.42 262.02 100.49 C 259.95 97.74 260.50 93.27 260.88 89.88 Z" />
<path fill="#55b155" d=" M 256.21 93.55 C 255.31 92.65 256.44 90.52 257.70 91.15 C 258.55 92.05 257.43 94.10 256.21 93.55 Z" />
<path fill="#1f5d7d" d=" M 145.08 91.79 C 146.27 92.37 148.50 92.44 148.52 94.19 C 148.71 97.76 148.62 101.37 148.03 104.90 C 147.21 105.05 145.56 105.37 144.73 105.52 C 144.68 100.94 144.59 96.35 145.08 91.79 Z" />
<path fill="#55b155" d=" M 161.43 97.43 C 162.27 98.95 163.13 100.46 164.00 101.96 C 162.28 102.01 160.56 102.08 158.84 102.16 C 163.62 104.17 168.88 104.25 173.98 104.33 C 176.52 104.44 178.88 103.40 181.05 102.18 C 182.47 101.55 183.89 100.77 185.47 100.61 C 188.55 101.59 191.66 102.55 194.90 102.83 C 204.93 103.79 215.06 104.05 225.08 102.82 C 229.21 102.32 233.23 100.25 237.45 101.32 C 244.11 103.15 251.01 101.88 257.80 102.00 C 258.59 101.19 259.39 100.38 260.20 99.57 C 262.66 101.91 260.94 106.47 264.27 107.86 C 264.57 104.50 265.17 101.19 266.22 97.98 C 267.71 98.68 269.33 99.20 270.64 100.23 C 270.87 102.33 270.79 104.44 270.81 106.54 C 271.57 106.48 273.07 106.36 273.82 106.29 C 273.70 103.91 273.59 101.52 273.50 99.14 C 274.36 99.30 276.09 99.61 276.95 99.77 C 277.47 101.65 275.91 106.69 279.43 105.40 C 279.53 103.56 279.48 101.71 279.46 99.87 C 284.92 100.35 290.23 101.89 295.70 102.36 C 289.32 104.89 282.66 106.70 276.57 109.92 C 278.68 111.05 280.91 111.92 283.16 112.73 C 281.08 113.35 279.04 114.20 276.88 114.47 C 272.94 114.02 269.06 111.87 265.06 113.20 C 258.21 114.98 251.60 117.56 244.96 119.97 C 242.97 120.85 240.82 120.10 238.82 119.74 C 228.61 117.47 218.25 116.03 207.99 114.09 C 205.06 113.65 202.00 112.97 199.09 113.89 C 196.40 114.48 193.76 115.81 190.94 115.37 C 180.68 114.09 170.43 112.69 160.17 111.36 C 155.83 110.68 151.67 112.37 147.56 113.47 C 144.40 114.47 141.13 113.45 138.01 112.83 C 129.86 111.01 121.74 109.12 113.56 107.46 C 118.86 105.77 124.43 105.30 129.88 104.34 C 133.23 103.64 136.72 103.67 139.87 105.15 C 139.90 107.56 139.94 109.98 140.00 112.39 C 143.72 112.56 142.06 108.41 142.39 106.08 C 143.06 106.03 144.40 105.94 145.07 105.90 C 145.20 107.51 145.32 109.12 145.43 110.74 C 146.04 110.86 147.24 111.10 147.84 111.23 C 147.94 109.69 148.04 108.16 148.18 106.63 C 149.44 105.25 149.80 103.42 150.16 101.65 C 152.76 101.20 155.40 101.42 158.03 101.45 C 159.76 100.78 160.40 98.82 161.43 97.43 Z" />
<path fill="#55b155" d=" M 255.57 98.49 C 255.90 98.06 256.56 97.21 256.89 96.78 C 257.27 97.88 257.63 98.99 257.96 100.10 C 255.91 100.71 253.77 101.00 251.63 101.00 C 252.48 99.49 253.79 98.52 255.57 98.49 Z" />
<path fill="#1f5d7d" d=" M 99.67 101.41 C 101.89 100.61 104.21 100.67 106.33 101.69 C 104.88 107.97 105.81 114.47 104.90 120.78 C 102.95 122.09 100.54 121.74 98.33 121.79 C 98.15 115.62 98.43 109.46 98.33 103.29 C 100.30 103.68 102.29 103.96 104.31 104.06 C 103.07 102.71 101.21 102.30 99.67 101.41 Z" />
<path fill="#795028" d=" M 281.12 109.49 C 287.06 107.16 293.25 105.51 299.13 103.03 C 299.08 105.03 299.03 107.04 299.00 109.04 C 295.81 110.21 292.65 111.44 289.51 112.70 C 286.91 111.15 284.01 110.27 281.12 109.49 Z" />
<path fill="#1f5d7d" d=" M 85.38 109.75 C 87.17 109.27 88.95 108.78 90.73 108.29 C 90.74 112.78 90.64 117.27 90.63 121.76 C 89.21 121.90 87.80 122.03 86.39 122.17 C 86.08 118.03 85.61 113.90 85.38 109.75 Z" />
<path fill="#795028" d=" M 107.99 107.77 C 112.73 108.28 117.20 110.02 121.76 111.28 C 128.71 113.45 135.90 114.64 143.01 116.07 C 143.00 118.40 142.97 120.72 142.92 123.05 C 131.51 120.72 120.16 118.11 108.74 115.84 C 107.96 113.22 107.93 110.48 107.99 107.77 Z" />
<path fill="#55b155" d=" M 288.26 115.06 C 292.23 113.68 296.04 111.84 300.09 110.68 C 314.50 115.01 329.00 119.17 343.73 122.33 C 347.67 123.30 351.68 123.98 355.73 124.31 C 355.14 124.60 353.97 125.18 353.38 125.46 C 339.92 127.91 327.10 133.04 314.36 137.77 C 309.39 135.99 304.52 133.89 299.45 132.36 C 297.90 131.96 296.21 131.32 294.63 132.00 C 294.21 132.13 293.35 132.39 292.92 132.53 C 281.67 136.38 270.71 141.29 260.72 147.77 C 259.65 148.36 258.44 149.36 257.15 148.75 C 245.94 145.52 234.74 142.24 223.73 138.37 C 216.47 135.26 209.17 140.17 202.21 141.99 C 194.98 139.46 187.45 137.96 180.03 136.12 C 176.43 135.43 172.71 133.95 169.03 135.00 C 163.30 136.25 157.46 137.21 151.99 139.37 C 150.80 140.83 153.38 141.26 154.32 141.61 C 156.31 142.16 158.31 142.71 160.22 143.49 C 155.45 144.82 150.77 146.43 146.13 148.15 C 141.82 149.80 137.60 146.87 133.32 146.48 C 128.69 145.64 124.63 150.26 120.07 148.63 C 119.84 148.54 119.38 148.34 119.15 148.24 C 116.41 147.02 113.47 146.31 110.84 144.83 C 113.32 144.08 115.76 143.17 117.90 141.68 C 114.09 139.00 109.26 138.69 105.01 137.01 C 94.20 132.98 83.04 130.00 72.01 126.63 C 68.64 125.56 65.10 124.93 61.93 123.28 C 69.49 122.74 76.95 121.19 84.52 120.80 C 85.05 122.37 86.23 123.48 87.53 124.42 C 87.85 126.33 87.51 129.03 90.12 129.33 C 90.14 127.58 90.13 125.84 90.14 124.09 C 92.39 123.53 92.24 121.27 92.48 119.41 C 93.81 119.27 95.15 119.16 96.48 119.07 C 96.50 121.77 98.45 123.28 100.75 124.18 C 100.79 126.42 100.80 128.66 100.85 130.90 C 101.51 130.70 102.82 130.31 103.48 130.11 C 103.33 127.90 103.16 125.70 103.07 123.49 C 106.01 122.45 106.99 119.61 107.13 116.73 C 118.78 119.27 130.18 123.13 142.02 124.89 C 147.34 124.49 152.48 122.84 157.64 121.54 C 159.82 120.88 162.04 121.76 164.18 122.19 C 172.64 124.30 181.27 125.70 189.92 126.80 C 194.85 127.77 199.04 123.22 204.00 124.30 C 214.26 126.99 224.57 129.52 234.97 131.60 C 238.88 132.17 243.06 133.59 246.85 131.73 C 253.48 129.18 260.32 127.26 267.13 125.29 C 270.78 124.07 274.20 126.96 277.86 126.61 C 281.58 125.92 284.99 124.13 288.06 121.97 C 288.12 119.67 288.19 117.37 288.26 115.06 Z" />
<path fill="#795028" d=" M 159.35 113.15 C 164.93 113.60 170.30 115.25 175.70 116.63 C 175.68 118.31 175.67 119.99 175.66 121.67 C 170.14 121.72 164.76 120.41 159.34 119.58 C 159.35 117.44 159.35 115.29 159.35 113.15 Z" />
<path fill="#795028" d=" M 277.98 116.00 C 280.89 115.13 283.84 114.36 286.84 113.86 C 286.78 116.36 286.84 118.87 286.48 121.34 C 283.81 122.60 280.95 123.36 278.28 124.60 C 278.02 121.74 277.96 118.87 277.98 116.00 Z" />
<path fill="#795028" d=" M 58.00 123.80 C 67.27 127.01 76.52 130.34 85.95 133.07 C 95.28 136.14 104.91 138.22 114.20 141.43 C 111.85 142.59 109.40 143.52 106.87 144.19 C 106.80 144.87 106.65 146.23 106.57 146.91 C 104.69 146.82 102.85 146.45 101.08 145.80 C 91.14 142.51 81.20 139.20 71.38 135.56 C 67.28 134.14 63.27 132.33 58.94 131.74 C 57.80 129.24 57.97 126.47 58.00 123.80 Z" />
<path fill="#795028" d=" M 318.07 138.23 C 331.11 133.86 344.29 129.90 357.43 125.82 C 357.33 128.16 357.07 130.50 356.97 132.85 C 342.56 135.83 328.82 141.28 315.07 146.39 C 314.94 144.29 314.66 142.17 314.82 140.07 C 315.63 139.07 316.92 138.69 318.07 138.23 Z" />
<path fill="#795028" d=" M 292.92 132.53 C 293.35 132.39 294.21 132.13 294.63 132.00 C 294.67 134.85 294.73 137.69 294.77 140.54 C 291.67 141.62 286.52 141.75 286.76 146.20 L 286.72 146.33 C 281.89 146.11 277.87 142.55 272.84 143.72 C 279.63 139.25 287.93 137.61 294.57 132.99 L 292.92 132.53 Z" />
<path fill="#55b155" d=" M 35.95 135.43 C 42.71 134.79 49.42 133.73 56.12 132.60 C 60.42 132.93 64.32 135.11 68.36 136.49 C 80.72 141.06 92.99 146.24 106.03 148.48 C 106.60 151.13 106.44 153.99 107.43 156.51 C 111.30 158.69 115.55 160.19 119.81 161.42 C 123.91 162.48 127.34 159.17 131.00 157.93 C 135.33 158.09 139.08 162.11 143.58 160.68 C 150.99 158.59 158.20 155.81 165.31 152.87 C 165.44 150.69 165.49 148.51 165.49 146.33 C 168.60 145.60 171.83 143.66 175.03 144.99 C 182.50 147.36 190.04 149.53 197.62 151.54 C 199.69 152.00 201.85 152.71 203.96 152.05 C 209.14 150.63 214.30 149.09 219.46 147.56 C 220.69 147.10 222.03 147.15 223.25 147.67 C 234.17 151.77 244.77 156.89 256.10 159.83 C 261.71 158.95 266.74 155.73 271.79 153.23 C 272.06 156.84 272.03 160.48 271.95 164.10 C 273.23 165.11 274.53 166.11 275.83 167.11 C 275.77 168.85 275.72 170.60 275.70 172.34 C 276.43 172.16 277.90 171.80 278.63 171.62 C 278.53 169.23 278.85 166.85 280.70 165.14 L 280.96 164.82 C 281.34 164.60 282.10 164.16 282.49 163.94 C 282.49 165.39 282.51 166.84 282.55 168.29 C 283.33 168.20 284.90 168.01 285.69 167.91 C 285.76 166.56 285.84 165.21 285.93 163.86 C 286.44 164.09 287.47 164.53 287.98 164.76 C 288.20 159.16 288.42 153.53 288.15 147.94 C 287.80 147.53 287.08 146.73 286.72 146.33 L 286.76 146.20 C 289.91 144.95 292.87 143.28 296.00 142.02 C 302.14 143.45 307.67 147.08 314.04 147.57 C 318.88 147.50 323.32 145.24 327.87 143.86 C 337.95 140.21 348.43 137.70 358.27 133.43 C 361.11 132.24 364.10 133.83 366.92 134.32 C 370.86 135.47 375.10 135.69 378.82 137.56 C 363.19 142.36 348.19 148.93 333.09 155.14 C 315.70 162.26 298.50 169.83 281.23 177.22 C 279.23 178.01 277.41 179.44 275.26 179.73 C 256.32 171.35 237.38 162.88 218.87 153.55 C 213.29 154.85 208.03 157.42 202.43 158.50 C 197.57 156.89 192.76 155.09 188.04 153.09 C 171.71 158.35 155.65 164.57 140.35 172.36 C 138.27 173.39 135.95 174.21 134.55 176.18 C 125.18 172.04 115.66 168.25 106.03 164.77 C 84.41 156.87 62.94 148.50 41.98 138.98 C 39.97 137.85 37.03 137.71 35.95 135.43 Z" />
<path fill="#795028" d=" M 296.23 133.20 C 301.69 135.40 307.05 137.87 312.69 139.57 C 312.68 141.66 312.68 143.76 312.67 145.87 C 308.02 143.30 302.91 141.87 297.97 140.04 C 296.79 137.96 296.66 135.50 296.23 133.20 Z" />
<path fill="#795028" d=" M 30.92 135.75 C 32.30 136.00 33.74 136.14 35.00 136.80 C 54.85 147.18 75.52 155.89 96.52 163.64 C 101.39 165.79 106.72 166.94 111.26 169.80 C 110.79 169.96 109.87 170.27 109.41 170.43 C 110.67 171.09 111.86 171.88 112.65 173.12 C 111.24 173.27 109.83 173.42 108.42 173.55 C 107.93 174.69 107.44 175.84 106.95 176.99 C 102.35 176.04 98.13 173.95 93.76 172.30 C 75.39 164.49 57.11 156.44 39.05 147.91 C 36.88 146.82 34.40 146.11 32.65 144.35 C 30.36 142.08 31.13 138.63 30.92 135.75 Z" />
<path fill="#795028" d=" M 300.89 171.18 C 327.22 159.85 353.71 148.91 380.13 137.79 C 380.04 140.42 379.99 143.05 379.98 145.69 C 356.57 156.16 333.38 167.18 309.50 176.60 C 303.60 179.16 297.45 181.37 290.99 181.90 C 292.31 181.04 293.64 180.19 294.96 179.33 C 293.75 178.67 292.47 178.15 291.18 177.68 C 294.10 175.08 297.02 172.29 300.89 171.18 Z" />
<path fill="#1f5d7d" d=" M 275.50 145.29 C 276.19 144.46 278.68 144.38 278.56 145.81 C 277.87 146.67 275.35 146.73 275.50 145.29 Z" />
<path fill="#795028" d=" M 108.04 145.86 C 111.63 147.44 115.28 148.98 119.20 149.52 L 119.15 148.24 C 119.38 148.34 119.84 148.54 120.07 148.63 C 121.26 152.32 120.97 156.26 120.98 160.07 C 116.86 158.43 112.52 157.31 108.56 155.31 C 108.03 152.19 108.16 149.01 108.04 145.86 Z" />
<path fill="#1f5d7d" d=" M 273.80 147.23 C 275.47 147.52 277.13 147.81 278.80 148.10 C 279.27 153.64 276.89 160.23 280.96 164.82 L 280.70 165.14 C 278.32 165.41 274.64 165.93 273.79 162.96 C 273.40 157.73 273.82 152.47 273.80 147.23 Z" />
<path fill="#795028" d=" M 32.43 148.01 C 34.58 148.49 36.50 149.55 38.41 150.60 C 48.91 155.89 59.71 160.59 70.20 165.90 C 84.75 172.54 99.46 178.79 114.23 184.88 C 118.21 186.32 122.18 187.80 125.98 189.68 C 117.81 190.44 109.24 189.01 101.39 191.83 L 101.33 191.82 C 100.96 191.26 100.20 190.14 99.83 189.58 C 99.30 199.39 100.13 209.20 101.04 218.96 C 103.39 221.31 106.48 222.73 109.15 224.70 C 112.27 219.94 113.65 214.28 116.50 209.35 C 119.23 209.21 121.96 209.15 124.70 209.23 C 124.92 215.81 124.94 222.40 124.90 228.98 C 124.79 235.67 125.84 242.32 125.78 249.01 C 125.62 255.93 131.49 260.89 133.60 267.05 C 133.68 267.83 133.85 269.41 133.93 270.20 C 127.69 261.83 122.70 252.62 117.30 243.72 C 113.65 241.24 110.31 238.06 106.09 236.59 C 101.55 242.35 95.89 247.14 90.25 251.81 C 89.91 246.88 91.85 240.81 87.92 236.92 L 87.39 236.29 C 88.79 236.66 90.18 237.01 91.58 237.36 C 91.27 235.96 90.45 235.03 89.13 234.58 C 83.53 231.98 77.85 229.45 72.49 226.37 C 70.29 220.91 72.64 214.64 71.14 208.98 C 70.57 207.37 69.63 205.84 67.92 205.30 C 67.55 205.11 66.79 204.75 66.41 204.57 C 66.53 204.26 66.76 203.62 66.88 203.30 C 57.46 198.82 47.37 195.70 38.20 190.73 C 35.66 176.64 34.23 162.25 32.43 148.01 Z" />
<path fill="#795028" d=" M 132.00 147.93 C 135.29 148.54 138.49 149.54 141.69 150.51 C 141.76 153.56 141.74 156.61 141.64 159.65 C 138.63 158.30 135.51 157.19 132.29 156.43 C 132.11 153.59 132.02 150.76 132.00 147.93 Z" />
<path fill="#ffffff" d=" M 14.26 148.87 C 17.35 149.38 20.45 149.84 23.59 149.97 C 23.89 152.07 24.19 154.18 24.51 156.29 C 19.22 158.01 14.28 160.68 8.97 162.30 C 6.54 162.00 4.19 161.31 1.81 160.79 C 5.40 158.79 9.25 157.32 13.14 156.00 C 16.41 155.62 19.76 156.12 23.02 155.44 C 20.39 154.44 17.55 154.82 14.81 154.71 C 14.62 152.76 14.43 150.82 14.26 148.87 Z" />
<path fill="#ffffff" d=" M 24.44 150.50 C 26.47 150.22 28.43 149.61 30.40 149.05 C 30.81 159.92 31.88 170.76 32.86 181.58 C 31.99 181.90 30.24 182.54 29.37 182.86 C 29.04 177.94 28.25 173.06 27.92 168.13 C 22.35 168.70 17.44 171.60 12.43 173.83 C 11.25 170.75 11.10 167.46 10.83 164.22 C 16.05 161.72 21.35 159.40 26.66 157.08 C 25.81 154.93 25.15 152.71 24.44 150.50 Z" />
<path fill="#1f5d7d" d=" M 281.57 149.14 C 283.30 149.21 285.05 149.27 286.80 149.32 C 286.55 153.44 286.83 157.58 286.51 161.70 C 285.54 163.18 283.21 162.47 281.72 162.93 C 281.25 158.35 281.40 153.74 281.57 149.14 Z" />
<path fill="#795028" d=" M 325.72 173.79 C 343.88 165.99 361.55 157.14 379.38 148.66 C 379.18 154.43 378.64 160.21 377.17 165.82 C 366.46 170.77 356.26 176.76 345.48 181.55 C 346.01 189.12 344.41 196.77 345.61 204.27 C 348.56 206.28 351.83 207.81 355.11 209.22 C 356.80 209.98 358.54 208.99 360.08 208.32 C 364.59 206.02 368.58 202.84 372.84 200.12 C 372.90 204.97 371.51 209.70 371.61 214.56 C 358.95 220.48 346.87 227.61 335.22 235.30 C 334.21 237.58 334.70 240.21 334.53 242.65 L 334.11 242.91 C 331.82 244.33 329.56 245.78 327.33 247.29 C 326.76 254.43 326.78 261.63 325.64 268.72 C 325.26 268.56 324.50 268.24 324.12 268.08 C 324.28 264.00 324.70 259.56 322.32 255.98 C 318.16 249.35 315.01 242.16 311.07 235.41 C 307.89 236.74 304.63 238.79 302.73 241.71 C 301.84 253.43 302.05 265.24 301.50 276.99 C 299.38 277.58 297.26 278.17 295.15 278.77 C 295.03 275.58 296.43 271.67 293.86 269.13 C 289.82 264.75 286.99 259.11 281.94 255.75 C 279.12 256.10 277.00 258.83 274.43 260.10 C 274.24 258.37 274.05 256.64 273.85 254.91 C 271.03 257.04 268.56 259.57 266.12 262.13 C 265.97 253.26 266.70 244.41 266.40 235.55 C 268.87 234.42 271.28 233.14 273.60 231.72 C 273.86 222.82 274.40 213.95 274.89 205.06 C 275.20 201.46 274.56 197.71 275.59 194.20 C 292.43 187.80 309.20 181.05 325.72 173.79 Z" />
<path fill="#ffffff" d=" M 387.02 161.91 C 389.90 163.09 392.93 163.78 395.92 164.63 C 396.48 164.75 397.60 164.98 398.16 165.10 C 397.17 171.36 395.55 177.58 395.66 183.97 C 383.53 189.84 372.45 197.58 361.42 205.25 C 359.83 206.40 357.96 207.03 356.14 207.69 C 353.27 205.77 350.22 204.09 346.87 203.21 C 347.23 196.51 347.36 189.78 347.09 183.07 C 350.45 184.58 354.03 185.53 357.71 185.77 C 357.19 191.54 356.10 197.30 356.42 203.11 C 356.46 203.89 356.80 204.53 357.44 205.04 C 358.05 198.67 358.51 192.29 358.93 185.91 C 369.57 179.61 380.54 173.89 391.73 168.63 C 393.34 167.67 395.52 167.23 396.32 165.31 C 382.68 169.94 369.96 177.09 357.94 184.97 C 354.89 183.92 351.76 183.11 348.69 182.13 C 361.43 175.34 374.88 169.76 387.02 161.91 Z" />
<path fill="#598dc8" d=" M 207.78 169.65 C 211.49 168.31 215.35 167.42 219.10 166.21 C 236.24 176.30 254.06 185.39 272.81 192.12 C 274.29 195.27 273.39 198.68 273.14 201.98 C 272.82 211.34 271.55 220.67 272.31 230.05 C 270.90 231.95 268.20 232.48 266.24 233.74 C 266.19 230.89 266.14 228.03 265.97 225.18 C 265.44 230.80 265.00 236.44 264.95 242.09 C 264.89 249.11 263.90 256.11 264.25 263.14 C 264.59 264.61 263.33 265.59 262.50 266.58 C 260.52 268.66 258.60 270.79 256.78 273.02 C 256.82 282.00 256.31 290.98 256.44 299.97 C 256.62 301.80 255.73 303.41 255.23 305.11 C 256.68 306.33 256.18 308.34 256.42 309.99 C 256.06 308.73 255.70 307.48 255.32 306.24 C 252.73 303.70 251.98 299.99 249.77 297.20 C 244.99 291.02 239.52 285.43 234.14 279.80 C 234.26 265.85 234.69 251.89 234.18 237.95 C 234.01 234.29 236.11 230.09 233.14 227.06 C 232.87 231.41 234.13 235.66 233.81 240.01 C 233.42 253.02 233.27 266.03 233.11 279.05 C 233.23 280.89 232.16 282.45 231.56 284.11 C 230.67 299.37 230.55 314.69 229.70 329.96 C 229.61 336.39 229.87 342.83 229.57 349.26 L 229.19 348.18 C 228.41 326.25 228.56 304.30 229.41 282.38 C 223.86 288.21 218.27 294.06 213.47 300.52 C 212.56 297.41 212.51 294.17 212.56 290.96 C 211.42 299.77 211.45 308.76 209.37 317.44 C 206.44 317.38 203.52 317.32 200.59 317.26 C 200.59 312.53 200.77 307.75 199.94 303.09 C 199.00 300.86 197.07 299.27 195.46 297.53 C 190.85 293.05 187.24 287.62 182.24 283.53 C 183.13 298.14 182.73 312.79 182.75 327.43 C 182.13 329.35 181.42 331.25 180.84 333.19 C 181.39 318.80 181.24 304.38 181.00 289.98 C 181.24 287.09 179.67 284.73 177.48 283.06 C 176.38 284.70 175.20 286.29 173.96 287.83 C 173.67 281.89 173.85 275.94 173.47 270.01 C 173.00 276.29 173.66 282.64 172.99 288.88 C 170.84 294.03 167.34 298.50 164.82 303.45 C 164.42 308.22 164.72 313.02 164.49 317.79 C 161.02 317.70 157.57 318.07 154.14 318.50 C 154.11 314.30 154.38 310.10 154.14 305.90 C 151.63 299.99 147.52 294.87 144.68 289.14 C 144.91 281.76 145.05 274.37 145.29 266.99 C 145.11 262.31 143.79 257.73 143.75 253.03 C 143.42 238.05 143.15 223.07 142.92 208.08 C 144.55 208.08 146.19 208.09 147.83 208.11 C 147.27 226.73 146.87 245.39 146.62 264.03 C 146.71 267.63 146.42 271.33 147.34 274.85 C 150.59 280.38 154.72 285.34 158.45 290.56 C 159.39 291.54 161.37 293.79 162.33 291.59 C 163.55 284.46 163.26 277.14 163.40 269.93 C 164.30 270.98 165.21 272.04 166.13 273.09 C 169.43 270.38 172.47 267.38 175.80 264.71 C 176.04 268.21 176.50 271.69 176.78 275.19 C 177.81 276.03 178.82 276.92 179.98 277.59 C 182.24 277.03 183.85 275.08 185.67 273.72 C 191.05 268.88 196.99 264.69 202.22 259.68 C 200.27 255.93 196.51 253.78 193.95 250.53 C 196.65 248.91 199.29 247.16 201.69 245.10 C 201.45 243.65 201.22 242.22 200.99 240.79 C 197.78 238.39 194.23 236.54 190.85 234.41 C 190.91 227.86 191.81 221.34 191.57 214.79 C 196.03 215.78 200.30 218.13 204.98 217.71 C 192.73 213.23 180.03 210.04 168.00 204.96 C 167.95 200.19 169.09 194.11 164.04 191.36 C 155.93 190.59 147.67 190.86 139.60 189.75 C 153.04 182.29 167.07 175.97 181.31 170.19 C 183.93 169.27 186.25 167.41 189.01 167.00 C 192.69 168.22 196.07 170.36 199.94 171.01 C 202.64 171.49 205.27 170.54 207.78 169.65 Z" />
<path fill="#ffffff" d=" M 18.07 172.76 C 20.75 171.65 23.44 170.55 26.10 169.41 C 26.62 173.78 26.89 178.18 27.67 182.51 C 25.04 181.43 22.35 180.49 19.62 179.70 C 19.09 177.39 18.59 175.07 18.07 172.76 Z" />
<path fill="#ffffff" d=" M 101.33 191.82 L 101.39 191.83 C 109.54 192.72 117.80 191.72 125.99 191.91 C 138.34 191.92 150.66 192.59 162.99 193.16 C 162.71 199.73 161.96 206.30 162.44 212.88 C 161.85 211.92 161.25 210.96 160.75 209.96 C 160.28 205.11 160.56 200.23 160.67 195.38 C 155.05 195.96 149.57 194.25 143.96 194.41 C 136.96 194.29 129.91 194.82 122.94 193.86 C 116.06 193.27 109.14 193.76 102.25 193.65 C 102.12 200.52 103.24 207.33 103.29 214.18 C 103.07 214.83 102.82 215.47 102.54 216.10 C 102.35 208.00 101.42 199.92 101.33 191.82 Z" />
<path fill="#ffffff" d=" M 28.16 196.18 C 31.72 194.92 35.53 194.62 39.04 193.17 C 47.97 197.40 57.05 201.36 66.41 204.57 C 66.79 204.75 67.55 205.11 67.92 205.30 L 67.95 205.73 C 65.45 207.56 62.34 208.32 59.77 210.07 C 49.16 205.62 38.58 201.07 28.16 196.18 Z" />
<path fill="#795028" d=" M 164.23 192.94 C 165.28 194.50 167.13 195.87 166.98 197.95 C 166.75 205.09 166.60 212.23 166.94 219.36 C 165.78 218.08 163.81 217.02 164.03 215.01 C 163.76 207.65 164.63 200.30 164.23 192.94 Z" />
<path fill="#f0d63e" d=" M 102.25 193.65 C 109.14 193.76 116.06 193.27 122.94 193.86 C 129.91 194.82 136.96 194.29 143.96 194.41 C 149.57 194.25 155.05 195.96 160.67 195.38 C 160.56 200.23 160.28 205.11 160.75 209.96 C 159.28 207.44 157.87 204.89 156.51 202.32 C 150.09 201.48 143.61 201.34 137.13 201.28 C 137.19 223.51 135.47 245.84 138.09 267.99 C 137.90 268.18 137.50 268.54 137.31 268.73 C 134.84 263.99 131.84 259.57 129.08 255.01 C 127.30 252.36 128.34 248.98 127.96 246.00 C 126.84 231.20 126.97 216.31 125.09 201.58 C 119.42 201.73 113.72 201.78 108.08 202.42 C 106.21 206.22 104.89 210.26 103.29 214.18 C 103.24 207.33 102.12 200.52 102.25 193.65 Z" />
<path fill="#40280c" d=" M 239.96 205.77 C 249.73 201.80 259.55 197.85 269.78 195.22 C 253.21 202.21 236.11 207.98 219.93 215.88 C 217.68 216.93 215.38 217.88 213.06 218.75 C 221.50 213.40 230.78 209.61 239.96 205.77 Z" />
<path fill="#ffffff" d=" M 26.81 197.11 C 37.55 202.06 47.97 208.37 59.67 210.78 C 59.72 217.56 59.15 224.46 60.57 231.15 C 66.58 235.73 73.82 238.19 80.25 241.97 C 82.82 242.05 84.78 239.77 86.96 238.69 C 87.54 239.13 88.11 239.58 88.68 240.04 C 88.23 244.72 88.13 249.43 88.41 254.13 C 86.28 256.34 84.07 258.47 81.88 260.63 C 81.41 255.11 81.73 249.16 80.75 243.95 L 80.17 243.93 L 79.68 244.12 C 79.68 250.13 79.88 256.14 80.33 262.13 C 79.38 261.72 78.43 261.32 77.48 260.92 C 66.32 255.16 54.53 250.65 43.61 244.39 C 39.55 242.67 35.63 240.65 31.72 238.60 C 31.60 237.95 31.35 236.66 31.23 236.01 C 33.14 236.69 34.96 237.63 36.94 238.11 C 40.78 238.23 42.85 233.82 46.44 233.23 C 45.65 228.10 45.11 222.94 44.44 217.79 C 39.31 215.86 34.15 213.99 29.22 211.58 C 28.30 206.78 27.99 201.86 26.81 197.11 Z" />
<path fill="#795028" d=" M 138.77 203.07 C 144.22 202.99 149.67 202.97 155.11 202.87 C 155.73 203.83 156.22 204.86 156.58 205.97 C 152.09 206.74 147.50 207.38 142.96 206.82 C 141.18 206.08 140.03 204.44 138.77 203.07 Z" />
<path fill="#795028" d=" M 103.51 218.97 C 105.61 214.04 106.51 208.58 109.36 203.99 C 111.15 205.61 113.01 207.14 115.00 208.50 C 112.52 212.88 110.57 217.53 108.86 222.26 C 107.07 221.17 105.29 220.06 103.51 218.97 Z" />
<path fill="#795028" d=" M 111.50 203.67 C 115.81 203.38 120.13 203.44 124.44 203.61 C 124.27 204.97 124.13 206.34 124.01 207.71 C 121.67 207.85 119.32 208.12 116.97 207.95 C 114.67 207.28 113.08 205.34 111.50 203.67 Z" />
<path fill="#ffffff" d=" M 14.01 210.33 C 18.44 209.04 22.69 207.26 26.67 204.94 C 27.00 207.07 27.34 209.28 26.55 211.36 C 31.49 214.55 36.76 217.77 42.75 218.37 C 39.90 219.75 37.24 221.53 34.30 222.68 C 27.29 219.00 20.32 215.14 14.01 210.33 Z" />
<path fill="#795028" d=" M 138.82 205.39 C 139.88 206.24 140.94 207.10 142.00 207.97 C 142.08 228.99 141.99 250.01 141.62 271.02 C 140.75 270.34 139.86 269.67 138.96 269.03 C 138.55 268.96 137.72 268.80 137.31 268.73 C 137.50 268.54 137.90 268.18 138.09 267.99 L 139.47 266.93 C 139.61 255.30 138.46 243.70 138.58 232.06 C 138.69 223.17 138.28 214.27 138.82 205.39 Z" />
<path fill="#ffffff" d=" M 60.78 210.83 C 63.70 209.56 66.59 208.25 69.40 206.76 C 70.06 213.36 69.59 220.01 69.93 226.64 C 67.23 227.90 64.55 229.22 61.72 230.17 C 60.94 223.75 61.24 217.27 60.78 210.83 Z" />
<path fill="#598dc8" d=" M 168.00 206.72 C 175.36 209.40 182.74 212.02 190.21 214.39 L 191.06 215.03 C 191.03 221.31 190.07 227.56 190.02 233.85 C 185.31 231.62 180.87 228.89 176.22 226.57 C 176.05 228.42 175.89 230.28 175.71 232.14 C 174.40 230.49 173.19 228.76 171.98 227.04 C 168.48 229.10 165.18 231.45 161.92 233.87 C 161.55 230.52 161.73 227.11 161.17 223.79 C 160.02 221.29 157.86 219.42 156.71 216.92 C 156.49 213.80 156.70 210.68 156.86 207.56 C 160.78 211.92 162.60 217.94 167.25 221.80 C 168.36 216.84 167.91 211.75 168.00 206.72 Z" />
<path fill="#598dc8" d=" M 149.35 208.01 C 151.50 207.99 153.66 208.00 155.82 208.00 C 155.81 210.46 155.70 212.92 155.54 215.38 C 153.01 213.35 151.09 210.72 149.35 208.01 Z" />
<path fill="#40280c" d=" M 331.45 210.40 C 335.81 206.85 341.59 209.62 346.27 210.98 C 346.41 214.46 346.47 217.95 346.59 221.44 C 344.64 223.38 342.43 225.02 340.06 226.40 C 336.71 225.36 333.31 224.52 329.85 223.99 C 329.65 219.50 328.68 214.29 331.45 210.40 Z" />
<path fill="#ffffff" d=" M 148.31 208.78 C 150.93 212.48 153.79 215.98 156.64 219.49 C 157.18 225.43 156.75 231.48 156.80 237.46 C 155.43 231.92 155.65 226.18 155.52 220.51 C 153.03 217.79 150.66 214.92 148.83 211.70 C 148.70 210.97 148.44 209.51 148.31 208.78 Z" />
<path fill="#ffffff" d=" M 332.05 211.56 C 332.81 211.10 334.34 210.17 335.11 209.71 C 338.36 210.42 341.71 210.88 344.75 212.32 C 344.73 215.29 344.77 218.27 345.00 221.24 C 343.42 222.24 341.87 223.30 340.33 224.35 C 340.33 221.27 340.36 218.20 340.12 215.13 C 340.63 214.21 341.13 213.27 341.60 212.33 C 338.55 214.80 335.08 212.59 332.05 211.56 Z" />
<path fill="#f0d63e" d=" M 148.83 211.70 C 150.66 214.92 153.03 217.79 155.52 220.51 C 155.65 226.18 155.43 231.92 156.80 237.46 C 156.88 237.85 157.04 238.61 157.12 239.00 C 157.67 238.65 158.79 237.95 159.34 237.60 C 159.39 237.57 159.49 237.51 159.53 237.49 L 160.52 237.14 C 163.93 236.08 166.88 234.04 169.78 232.04 C 169.82 241.77 169.00 251.70 171.36 261.24 C 168.66 263.27 166.34 265.72 164.00 268.14 C 163.98 260.42 163.98 252.69 163.64 244.97 C 163.43 243.25 164.14 241.67 164.65 240.08 C 161.97 241.64 159.64 243.68 157.09 245.42 C 156.66 258.97 157.25 272.53 156.96 286.07 C 154.00 282.06 151.37 277.81 148.24 273.92 C 147.73 257.61 149.01 241.29 148.93 224.97 C 148.87 220.55 148.58 216.12 148.83 211.70 Z" />
<path fill="#ffffff" d=" M 13.97 211.88 C 20.51 216.66 27.26 221.43 34.91 224.27 C 35.17 228.32 35.19 232.45 36.57 236.32 C 29.74 233.86 23.77 229.64 17.18 226.66 C 15.76 221.81 15.10 216.79 13.97 211.88 Z" />
<path fill="#ffffff" d=" M 331.78 213.01 C 334.07 213.80 336.41 214.45 338.80 214.91 C 338.80 217.95 338.73 220.98 338.77 224.02 C 336.34 223.36 333.91 222.75 331.48 222.12 C 331.49 219.08 331.62 216.04 331.78 213.01 Z" />
<path fill="#ffffff" d=" M 337.87 235.66 C 351.76 226.94 366.32 219.37 381.12 212.34 C 384.27 212.36 387.39 213.27 390.55 213.49 C 389.93 214.34 389.12 214.93 388.13 215.27 C 375.54 220.34 363.51 226.79 352.12 234.17 C 349.73 235.59 347.68 237.77 344.89 238.35 C 342.55 237.45 340.26 236.42 337.87 235.66 Z" />
<path fill="#ffffff" d=" M 385.10 218.20 C 387.37 217.03 389.55 215.66 391.55 214.05 C 390.20 219.63 388.39 225.18 388.46 230.99 C 382.72 234.71 376.34 237.20 370.20 240.15 C 362.15 244.59 354.50 249.92 345.85 253.16 C 345.94 248.64 346.04 244.12 346.22 239.61 C 350.10 237.81 353.66 235.43 357.34 233.27 C 366.39 227.88 375.75 223.05 385.10 218.20 Z" />
<path fill="#ffffff" d=" M 36.29 223.69 C 38.39 221.84 41.31 221.00 43.51 219.18 C 43.25 223.35 43.76 227.52 44.82 231.55 C 42.53 233.01 40.12 234.25 37.66 235.41 C 37.02 231.53 36.50 227.62 36.29 223.69 Z" />
<path fill="#795028" d=" M 157.72 221.36 C 161.67 223.54 160.32 228.26 160.53 231.93 C 160.67 233.58 160.41 235.24 159.14 236.42 C 159.05 231.37 158.79 226.31 157.72 221.36 Z" />
<path fill="#ffffff" d=" M 63.52 231.28 C 65.97 230.30 68.35 229.11 70.37 227.38 C 75.82 230.77 81.82 233.24 87.39 236.29 L 87.92 236.92 C 85.72 237.72 83.66 238.84 81.67 240.08 C 75.52 237.37 69.35 234.64 63.52 231.28 Z" />
<path fill="#f0d63e" d=" M 176.80 228.51 C 181.45 231.38 186.33 233.94 190.80 237.08 L 191.81 238.08 C 193.27 239.22 194.91 240.11 196.54 241.01 C 191.79 244.11 186.44 246.72 182.92 251.31 C 181.38 253.89 182.26 257.05 182.48 259.86 C 186.51 258.00 190.14 255.41 193.86 253.01 C 195.32 254.43 196.79 255.85 198.17 257.36 C 190.61 261.81 183.73 267.39 177.58 273.63 C 178.06 268.75 177.28 263.88 177.17 259.00 C 176.83 248.84 177.15 238.67 176.80 228.51 Z" />
<path fill="#ffffff" d=" M 160.52 237.14 C 164.02 234.26 167.72 231.65 171.29 228.86 C 170.63 239.65 171.04 250.46 171.36 261.24 C 169.00 251.70 169.82 241.77 169.78 232.04 C 166.88 234.04 163.93 236.08 160.52 237.14 Z" />
<path fill="#795028" d=" M 172.65 231.11 C 176.47 233.89 175.07 238.98 175.07 242.97 C 175.06 249.60 174.63 256.27 175.48 262.86 C 172.25 265.13 169.13 267.59 166.50 270.55 C 166.21 270.32 165.62 269.86 165.33 269.63 C 167.81 266.68 171.55 264.55 173.16 261.03 C 173.25 251.05 172.44 241.08 172.65 231.11 Z" />
<path fill="#40280c" d=" M 268.84 237.04 C 271.26 234.86 274.29 234.49 277.19 235.96 C 277.17 238.24 277.09 240.53 276.99 242.82 C 274.75 243.69 272.56 245.77 270.02 245.09 C 267.56 243.15 268.99 239.68 268.84 237.04 Z" />
<path fill="#598dc8" d=" M 271.22 237.83 C 270.81 236.56 272.88 235.50 273.89 236.13 C 274.31 237.39 272.23 238.46 271.22 237.83 Z" />
<path fill="#b5b8c6" d=" M 159.34 237.60 C 159.39 237.57 159.49 237.51 159.53 237.49 C 159.49 237.51 159.39 237.57 159.34 237.60 Z" />
<path fill="#40280c" d=" M 182.17 237.98 C 181.94 236.01 184.16 237.13 184.94 237.72 C 186.47 238.66 187.82 239.87 189.14 241.09 C 187.15 242.84 184.86 244.21 182.29 244.91 C 182.04 242.61 181.84 240.28 182.17 237.98 Z" />
<path fill="#ffffff" d=" M 190.80 237.08 C 193.78 238.24 196.63 239.71 199.61 240.89 C 193.54 243.52 188.30 247.56 182.92 251.31 C 186.44 246.72 191.79 244.11 196.54 241.01 C 194.91 240.11 193.27 239.22 191.81 238.08 L 190.80 237.08 Z" />
<path fill="#598dc8" d=" M 272.24 239.18 C 273.48 238.40 274.71 237.61 275.96 236.85 C 275.92 239.73 275.56 242.83 272.22 243.54 C 272.22 242.08 272.23 240.63 272.24 239.18 Z" />
<path fill="#ffffff" d=" M 336.06 236.74 C 338.93 237.77 341.81 238.77 344.73 239.67 C 344.14 244.50 343.88 249.38 344.35 254.24 L 344.00 254.08 C 341.42 252.74 338.60 252.02 335.78 251.40 C 336.00 246.51 336.15 241.63 336.06 236.74 Z" />
<path fill="#795028" d=" M 304.07 241.48 C 306.16 240.19 308.25 238.91 310.40 237.72 C 309.13 254.71 308.81 271.74 309.03 288.77 C 306.95 289.20 304.89 289.65 302.83 290.11 C 304.06 273.92 304.05 257.70 304.07 241.48 Z" />
<path fill="#ffffff" d=" M 106.69 238.48 C 107.10 239.24 107.51 240.01 107.91 240.78 C 104.14 243.31 101.33 246.93 97.93 249.89 C 92.00 255.24 86.60 261.16 80.57 266.40 C 79.43 273.22 79.22 280.13 79.31 287.03 C 78.80 293.44 78.36 299.86 78.11 306.29 C 78.06 296.85 78.60 287.42 78.53 277.98 C 78.73 274.25 78.23 270.42 78.89 266.74 C 87.58 256.78 98.37 248.77 106.69 238.48 Z" />
<path fill="#795028" d=" M 184.05 239.45 C 185.38 238.64 186.78 240.92 185.62 241.86 C 184.24 242.77 182.86 240.39 184.05 239.45 Z" />
<path fill="#1f5d7d" d=" M 270.30 239.41 C 271.74 239.35 271.53 241.88 270.75 242.62 C 269.33 242.66 269.51 240.14 270.30 239.41 Z" />
<path fill="#f0d63e" d=" M 310.99 239.51 L 311.72 239.54 L 311.73 240.30 C 311.49 244.85 314.29 248.76 315.95 252.82 C 317.40 256.59 320.97 259.73 320.57 264.04 C 319.85 272.95 317.87 282.54 321.59 291.04 C 322.13 293.37 322.21 296.04 321.24 298.26 C 320.39 299.15 319.52 300.02 318.65 300.90 C 312.29 305.22 306.69 310.56 301.23 315.94 C 301.66 316.44 302.54 317.43 302.98 317.93 C 309.32 325.55 316.24 332.67 323.32 339.59 C 323.94 352.79 322.38 366.21 324.73 379.35 C 324.96 381.42 324.86 383.51 324.81 385.60 C 319.56 390.51 314.90 396.07 311.13 402.19 C 310.95 382.84 311.26 363.43 311.91 344.12 C 305.57 337.09 299.00 330.20 292.50 323.30 C 292.52 332.54 292.43 341.78 292.78 351.01 C 289.06 354.81 285.42 358.67 282.01 362.74 C 282.36 331.50 282.16 300.26 281.99 269.01 C 281.96 266.25 281.97 263.49 282.29 260.75 C 285.75 264.03 288.09 268.27 291.50 271.60 C 291.66 279.40 291.34 287.21 291.54 295.01 C 291.56 296.98 292.18 298.87 292.71 300.76 C 293.08 302.32 292.95 303.94 293.05 305.54 C 295.07 304.96 296.49 303.39 297.87 301.91 C 301.17 298.32 304.91 295.17 308.13 291.51 C 308.47 291.19 309.16 290.56 309.50 290.24 C 309.86 289.92 310.59 289.26 310.96 288.93 C 310.37 272.46 311.24 255.98 310.99 239.51 Z" />
<path fill="#f0d63e" d=" M 97.93 249.89 C 101.33 246.93 104.14 243.31 107.91 240.78 C 108.43 241.52 108.80 242.33 109.02 243.21 C 109.47 245.21 109.99 247.23 110.99 249.05 C 116.48 259.17 122.36 269.17 129.88 277.93 C 127.16 281.01 123.53 283.59 122.41 287.75 C 120.75 290.46 118.18 292.48 116.14 294.89 C 115.77 288.97 116.29 283.03 115.79 277.13 C 113.30 272.57 110.24 268.32 106.95 264.31 C 102.33 269.91 96.04 274.07 91.93 280.07 C 91.85 300.05 91.46 320.05 92.28 340.02 C 92.89 347.30 92.92 354.61 93.35 361.90 C 93.32 363.12 94.21 364.07 94.84 365.03 C 98.15 369.40 101.94 373.39 105.96 377.11 C 109.81 372.54 113.28 367.66 116.60 362.70 C 117.40 358.20 116.94 353.57 116.93 349.02 C 122.14 345.24 126.19 340.18 130.84 335.78 C 130.72 346.82 129.28 358.04 131.63 368.95 C 122.27 379.02 114.37 390.31 107.07 401.92 C 105.87 401.68 105.26 400.35 104.37 399.62 C 95.57 390.32 87.13 380.67 79.30 370.55 C 78.12 369.29 78.39 367.50 78.28 365.94 C 77.85 346.06 77.78 326.17 78.11 306.29 C 78.36 299.86 78.80 293.44 79.31 287.03 C 79.22 280.13 79.43 273.22 80.57 266.40 C 86.60 261.16 92.00 255.24 97.93 249.89 Z" />
<path fill="#795028" d=" M 109.27 240.52 C 112.19 242.17 115.74 243.54 117.22 246.80 C 123.03 257.92 129.89 268.44 137.33 278.52 C 135.11 278.15 132.74 277.62 131.55 275.49 C 124.92 266.24 118.90 256.57 112.82 246.95 C 111.42 244.93 110.23 242.78 109.27 240.52 Z" />
<path fill="#ffffff" d=" M 311.73 240.30 C 315.02 247.04 318.45 253.72 322.37 260.12 C 322.38 270.41 322.02 280.74 321.59 291.04 C 317.87 282.54 319.85 272.95 320.57 264.04 C 320.97 259.73 317.40 256.59 315.95 252.82 C 314.29 248.76 311.49 244.85 311.73 240.30 Z" />
<path fill="#795028" d=" M 184.20 252.29 C 189.56 249.06 194.56 245.23 200.14 242.38 C 200.61 245.00 198.17 246.06 196.40 247.27 C 192.07 249.96 188.12 253.19 183.98 256.14 C 184.04 254.86 184.11 253.57 184.20 252.29 Z" />
<path fill="#542550" d=" M 327.33 247.29 C 329.56 245.78 331.82 244.33 334.11 242.91 C 334.06 245.80 333.47 248.82 334.39 251.63 C 336.86 253.98 340.67 255.41 344.00 254.08 L 344.35 254.24 C 344.83 254.46 345.77 254.91 346.24 255.13 C 353.95 252.69 360.59 247.90 367.77 244.32 C 367.74 249.94 366.35 255.44 366.43 261.09 C 364.75 269.94 364.64 278.97 363.37 287.88 C 361.76 298.55 361.42 309.37 359.83 320.05 C 359.07 324.98 359.18 330.00 358.58 334.94 C 358.49 337.02 355.94 337.56 354.59 338.70 C 345.08 344.23 336.11 350.70 326.41 355.88 C 326.42 350.05 326.70 344.21 326.17 338.39 L 324.37 338.17 C 323.91 337.80 323.45 337.42 323.00 337.05 C 322.31 335.47 321.80 333.74 320.49 332.56 C 314.92 326.98 309.19 321.59 303.45 316.19 C 308.32 310.89 314.78 307.06 318.65 300.90 C 319.52 300.02 320.39 299.15 321.24 298.26 C 321.84 298.17 323.03 297.99 323.62 297.90 C 323.55 287.95 324.06 278.02 324.12 268.08 C 324.50 268.24 325.26 268.56 325.64 268.72 C 326.78 261.63 326.76 254.43 327.33 247.29 Z" />
<path fill="#ffffff" d=" M 109.02 243.21 C 116.11 255.16 123.17 267.18 131.58 278.28 C 128.53 281.45 125.71 284.84 122.41 287.75 C 123.53 283.59 127.16 281.01 129.88 277.93 C 122.36 269.17 116.48 259.17 110.99 249.05 C 109.99 247.23 109.47 245.21 109.02 243.21 Z" />
<path fill="#795028" d=" M 159.01 246.19 C 159.99 245.47 160.96 244.75 161.94 244.04 C 161.78 255.04 161.61 266.04 161.54 277.04 C 161.66 281.72 160.11 286.26 160.54 290.95 C 158.98 288.59 159.45 285.69 159.43 283.03 C 159.69 270.75 159.26 258.46 159.01 246.19 Z" />
<path fill="#542550" d=" M 44.27 247.43 C 53.61 252.04 62.92 256.74 72.67 260.45 C 74.18 261.16 75.87 260.81 77.48 260.92 C 78.43 261.32 79.38 261.72 80.33 262.13 C 78.89 263.84 76.82 265.48 76.92 267.95 C 76.49 276.66 76.87 285.39 76.40 294.11 C 75.50 312.38 75.75 330.69 75.64 348.98 C 68.12 344.66 60.97 339.73 53.45 335.41 C 53.02 319.88 50.58 304.49 49.03 289.03 C 47.75 279.51 47.38 269.87 45.73 260.40 C 45.23 256.07 45.44 251.66 44.27 247.43 Z" />
<path fill="#ffffff" d=" M 281.61 257.56 C 281.59 257.45 281.56 257.24 281.55 257.14 C 286.04 261.58 289.03 267.33 293.87 271.44 C 293.58 281.22 292.98 290.98 292.71 300.76 C 292.18 298.87 291.56 296.98 291.54 295.01 C 291.34 287.21 291.66 279.40 291.50 271.60 C 288.09 268.27 285.75 264.03 282.29 260.75 C 282.08 259.89 281.88 259.04 281.70 258.18 L 281.61 257.56 Z" />
<path fill="#795028" d=" M 186.01 269.01 C 190.57 265.25 195.16 261.49 199.98 258.06 C 199.87 259.32 199.51 260.59 198.33 261.25 C 193.63 264.92 188.80 268.43 184.42 272.48 C 182.84 273.97 180.98 275.13 178.95 275.92 C 180.49 272.91 183.82 271.48 186.01 269.01 Z" />
<path fill="#ffffff" d=" M 264.47 266.44 C 267.23 263.50 269.92 260.48 272.87 257.73 C 272.81 275.33 272.63 292.93 272.79 310.53 C 270.07 301.26 270.59 291.52 270.49 281.97 C 270.49 275.31 270.42 268.64 270.67 261.98 C 268.03 265.27 265.62 268.93 261.85 271.06 C 261.82 269.10 263.31 267.78 264.47 266.44 Z" />
<path fill="#795028" d=" M 275.41 261.48 C 277.34 259.97 279.38 258.59 281.61 257.56 L 281.70 258.18 C 280.65 264.07 281.11 270.06 280.97 276.01 C 280.86 283.34 280.29 290.65 280.36 297.98 C 280.37 319.91 279.88 341.84 279.84 363.77 C 278.66 363.73 277.48 363.70 276.31 363.67 C 276.70 345.10 275.33 326.56 274.99 308.00 C 274.87 292.49 275.07 276.98 275.41 261.48 Z" />
<path fill="#f0d63e" d=" M 261.85 271.06 C 265.62 268.93 268.03 265.27 270.67 261.98 C 270.42 268.64 270.49 275.31 270.49 281.97 C 270.59 291.52 270.07 301.26 272.79 310.53 C 273.24 317.68 272.91 324.89 273.48 332.05 C 269.89 335.98 266.22 339.89 263.52 344.51 C 258.76 337.41 254.51 329.99 250.19 322.62 C 249.04 320.65 247.76 318.75 246.18 317.11 C 245.82 327.09 246.08 337.08 246.24 347.06 C 246.34 348.46 244.79 349.15 244.07 350.15 C 241.09 352.95 238.68 356.25 235.99 359.31 C 235.11 334.76 235.10 310.17 235.77 285.62 C 239.38 290.21 243.77 294.13 247.45 298.65 C 251.48 306.75 254.51 315.76 260.95 322.36 C 261.61 323.03 262.30 323.69 263.01 324.33 C 263.01 318.55 263.05 312.76 262.67 306.99 C 261.95 295.02 262.14 283.03 261.85 271.06 Z" />
<path fill="#795028" d=" M 106.37 266.89 C 108.75 267.31 109.22 270.42 110.60 272.09 C 107.44 275.55 104.65 279.46 101.02 282.44 C 98.64 282.07 95.71 281.87 94.17 279.77 C 97.90 275.20 102.45 271.32 106.37 266.89 Z" />
<path fill="#542550" d=" M 133.60 267.05 C 136.34 270.25 140.16 272.23 143.19 275.05 C 143.03 279.17 142.73 283.28 142.77 287.42 C 141.61 286.44 140.46 285.46 139.30 284.50 C 141.43 283.23 142.77 280.96 141.30 278.61 L 141.28 278.56 C 141.50 278.16 141.95 277.35 142.17 276.95 C 140.81 273.20 134.75 274.53 133.93 270.20 C 133.85 269.41 133.68 267.83 133.60 267.05 Z" />
<path fill="#795028" d=" M 257.99 273.14 C 258.57 272.75 259.74 271.97 260.33 271.59 C 259.70 287.21 261.25 302.81 260.86 318.42 C 258.07 314.94 258.34 310.24 258.07 306.04 C 257.91 295.08 258.06 284.11 257.99 273.14 Z" />
<path fill="#542550" d=" M 111.53 273.88 C 112.61 274.58 113.96 275.31 113.66 276.87 C 113.71 284.46 114.10 292.08 113.36 299.65 C 115.74 300.87 118.20 301.93 120.72 302.81 C 126.08 296.58 131.02 289.97 136.76 284.06 C 137.06 286.33 137.33 288.61 137.28 290.90 C 137.09 303.72 137.63 316.54 137.39 329.36 C 135.72 329.28 133.60 327.59 132.21 329.19 C 126.71 334.41 121.49 339.93 116.72 345.83 C 112.47 350.41 115.91 357.13 114.38 362.51 C 113.10 364.70 111.55 366.72 110.20 368.87 C 107.44 366.74 105.02 364.07 103.38 360.99 C 102.25 356.40 102.70 351.62 102.39 346.94 C 102.06 328.98 102.48 311.02 102.18 293.05 C 102.16 290.06 101.78 287.04 102.19 284.05 C 105.05 280.45 108.66 277.50 111.53 273.88 Z" />
<path fill="#598dc8" d=" M 137.19 274.99 C 138.88 275.75 140.47 276.80 141.28 278.56 L 141.30 278.61 C 141.12 279.55 140.78 281.41 140.60 282.34 C 140.13 279.53 139.70 276.75 137.19 274.99 Z" />
<path fill="#542550" d=" M 295.15 278.77 C 297.26 278.17 299.38 277.58 301.50 276.99 C 301.43 281.58 301.51 286.17 301.46 290.76 C 299.33 292.71 297.21 294.66 295.02 296.53 C 294.81 290.61 295.19 284.69 295.15 278.77 Z" />
<path fill="#795028" d=" M 133.33 278.87 C 134.62 279.30 135.91 279.75 137.20 280.21 C 132.35 286.36 126.79 291.94 122.33 298.41 C 121.46 299.28 120.98 301.24 119.39 300.72 C 117.68 300.52 116.28 299.49 114.88 298.58 C 121.33 292.30 127.09 285.36 133.33 278.87 Z" />
<path fill="#598dc8" d=" M 138.17 281.22 C 141.48 281.36 136.63 284.23 138.17 281.22 Z" />
<path fill="#795028" d=" M 94.00 281.46 C 96.25 282.45 98.48 283.50 100.75 284.47 C 101.16 301.65 100.15 318.83 100.05 336.00 C 100.10 344.34 100.89 352.65 100.95 360.99 C 99.01 361.40 97.05 361.70 95.09 361.99 C 95.40 346.95 93.74 331.98 94.00 316.95 C 94.00 305.12 94.00 293.29 94.00 281.46 Z" />
<path fill="#40280c" d=" M 213.47 300.52 C 218.27 294.06 223.86 288.21 229.41 282.38 C 228.56 304.30 228.41 326.25 229.19 348.18 C 228.99 350.55 229.02 353.32 226.76 354.76 C 223.06 357.70 220.01 361.34 216.40 364.35 C 214.56 364.67 212.69 364.30 210.86 364.21 C 210.31 374.55 209.83 384.91 208.98 395.23 C 207.88 384.90 209.71 374.55 209.28 364.21 C 204.87 364.08 200.47 364.66 196.06 364.57 C 193.73 363.54 192.19 361.29 190.35 359.58 C 188.03 356.99 185.13 354.81 183.45 351.72 C 182.39 343.67 183.76 335.50 182.75 327.43 C 182.73 312.79 183.13 298.14 182.24 283.53 C 187.24 287.62 190.85 293.05 195.46 297.53 C 197.07 299.27 199.00 300.86 199.94 303.09 C 200.77 307.75 200.59 312.53 200.59 317.26 C 200.37 326.57 200.58 335.90 200.58 345.22 C 203.86 345.29 207.15 345.37 210.45 345.44 C 210.97 334.96 211.51 324.47 211.81 313.98 C 212.13 309.48 211.74 304.79 213.47 300.52 Z" />
<path fill="#795028" d=" M 232.03 285.93 C 231.76 284.53 233.22 283.74 233.87 282.72 C 234.21 291.83 233.93 300.94 233.62 310.04 C 233.46 326.02 233.26 342.00 233.57 357.97 C 233.44 359.38 233.99 361.25 232.50 362.12 C 232.15 344.10 232.01 326.07 232.00 308.05 C 231.90 300.67 232.55 293.30 232.03 285.93 Z" />
<path fill="#ffffff" d=" M 235.34 282.85 C 239.44 286.73 242.41 291.62 246.47 295.54 C 249.19 298.03 250.24 301.65 251.84 304.85 C 254.58 310.83 257.70 316.63 260.95 322.36 C 254.51 315.76 251.48 306.75 247.45 298.65 C 243.77 294.13 239.38 290.21 235.77 285.62 C 235.66 284.93 235.45 283.54 235.34 282.85 Z" />
<path fill="#795028" d=" M 177.98 285.59 C 180.63 286.17 179.95 289.04 180.04 291.03 C 179.69 304.34 178.85 317.63 179.00 330.95 C 179.12 341.20 178.57 351.45 178.66 361.70 C 178.33 361.71 177.68 361.72 177.35 361.73 C 177.58 336.35 176.69 310.95 177.98 285.59 Z" />
<path fill="#ffffff" d=" M 219.69 296.07 C 222.35 292.69 225.23 289.50 227.82 286.06 C 226.13 301.41 226.55 316.90 226.48 332.31 C 224.59 318.57 225.34 304.65 225.74 290.83 C 223.96 292.82 222.25 295.05 219.69 296.07 Z" />
<path fill="#ffffff" d=" M 138.32 287.75 C 141.63 292.94 144.91 298.15 148.30 303.29 C 148.76 307.19 148.40 311.16 148.19 315.08 C 145.58 310.73 148.33 305.02 144.90 301.12 C 142.84 298.25 140.84 295.33 138.80 292.45 C 138.62 290.88 138.45 289.31 138.32 287.75 Z" />
<path fill="#795028" d=" M 146.82 298.11 C 145.06 294.74 142.91 291.59 141.09 288.24 C 146.61 292.00 148.06 298.91 151.76 304.12 C 149.11 303.15 148.14 300.35 146.82 298.11 Z" />
<path fill="#ffffff" d=" M 166.42 303.51 C 169.94 298.28 173.36 292.99 176.67 287.63 C 175.50 300.16 176.07 312.78 175.28 325.33 C 173.44 314.65 174.79 303.73 174.78 292.96 C 172.34 297.26 169.20 301.10 166.58 305.28 C 166.54 304.83 166.46 303.95 166.42 303.51 Z" />
<path fill="#ffffff" d=" M 183.97 287.25 C 187.77 291.59 191.21 296.27 195.42 300.23 C 195.35 314.15 195.36 328.08 195.04 341.99 C 193.10 328.22 194.00 314.28 193.66 300.43 C 190.48 297.22 187.74 293.59 184.36 290.59 C 184.21 289.47 184.08 288.36 183.97 287.25 Z" />
<path fill="#795028" d=" M 302.01 292.00 C 304.04 290.20 306.96 290.37 309.50 290.24 C 309.16 290.56 308.47 291.19 308.13 291.51 C 302.47 293.32 299.29 298.72 294.92 302.36 C 294.94 301.02 294.97 299.68 295.01 298.35 C 297.53 296.44 299.66 294.10 302.01 292.00 Z" />
<path fill="#f0d63e" d=" M 184.36 290.59 C 187.74 293.59 190.48 297.22 193.66 300.43 C 194.00 314.28 193.10 328.22 195.04 341.99 C 195.64 344.53 194.25 348.16 195.94 350.06 C 202.88 350.12 209.83 349.97 216.78 349.95 C 216.44 333.41 216.14 316.85 216.29 300.31 C 217.68 299.95 219.51 299.00 219.19 297.29 L 219.13 296.36 L 219.69 296.07 C 222.25 295.05 223.96 292.82 225.74 290.83 C 225.34 304.65 224.59 318.57 226.48 332.31 C 226.81 338.91 226.73 345.53 227.03 352.14 C 223.45 355.32 219.75 358.39 216.48 361.91 C 210.67 362.56 204.81 362.26 198.98 362.59 C 197.21 362.80 195.44 362.18 194.24 360.85 C 191.39 358.01 188.55 355.15 185.74 352.27 C 184.46 351.21 184.99 349.42 184.90 348.00 C 185.20 328.87 185.54 309.70 184.36 290.59 Z" />
<path fill="#1f5d7d" d=" M 212.56 290.96 C 212.51 294.17 212.56 297.41 213.47 300.52 C 211.74 304.79 212.13 309.48 211.81 313.98 C 211.51 324.47 210.97 334.96 210.45 345.44 C 207.15 345.37 203.86 345.29 200.58 345.22 C 200.58 335.90 200.37 326.57 200.59 317.26 C 203.52 317.32 206.44 317.38 209.37 317.44 C 211.45 308.76 211.42 299.77 212.56 290.96 Z" />
<path fill="#f0d63e" d=" M 138.80 292.45 C 140.84 295.33 142.84 298.25 144.90 301.12 C 148.33 305.02 145.58 310.73 148.19 315.08 C 148.67 316.63 148.37 318.29 148.40 319.89 C 154.48 320.13 160.55 319.94 166.62 319.62 C 166.75 314.84 166.28 310.05 166.58 305.28 C 169.20 301.10 172.34 297.26 174.78 292.96 C 174.79 303.73 173.44 314.65 175.28 325.33 C 175.61 335.94 174.82 346.60 174.94 357.23 C 172.18 353.86 169.63 350.26 166.14 347.59 C 166.30 341.44 166.21 335.27 166.90 329.15 C 160.72 328.79 154.60 329.93 148.44 329.88 C 148.44 335.80 148.76 341.71 148.89 347.64 C 145.37 350.36 142.76 353.97 140.04 357.43 C 139.96 335.76 139.08 314.11 138.80 292.45 Z" />
<path fill="#ffffff" d=" M 216.29 300.31 C 216.02 298.93 217.76 296.93 219.19 297.29 C 219.51 299.00 217.68 299.95 216.29 300.31 Z" />
<path fill="#40280c" d=" M 301.23 315.94 C 306.69 310.56 312.29 305.22 318.65 300.90 C 314.78 307.06 308.32 310.89 303.45 316.19 C 309.19 321.59 314.92 326.98 320.49 332.56 C 321.80 333.74 322.31 335.47 323.00 337.05 C 315.72 331.33 309.72 324.23 302.98 317.93 C 302.54 317.43 301.66 316.44 301.23 315.94 Z" />
<path fill="#795028" d=" M 197.01 301.84 C 197.52 302.17 198.52 302.82 199.02 303.15 C 198.94 316.78 199.16 330.42 198.69 344.05 C 198.77 345.15 198.04 346.03 197.50 346.91 C 197.30 331.89 197.45 316.87 197.01 301.84 Z" />
<path fill="#795028" d=" M 150.16 305.08 C 151.14 305.76 152.13 306.45 153.11 307.15 C 152.76 311.29 152.25 315.43 151.81 319.56 C 150.57 319.15 149.99 318.31 150.08 317.04 C 149.88 313.05 150.03 309.06 150.16 305.08 Z" />
<path fill="#ffffff" d=" M 302.98 317.93 C 309.72 324.23 315.72 331.33 323.00 337.05 C 323.45 337.42 323.91 337.80 324.37 338.17 C 325.37 339.57 324.66 341.44 324.84 343.05 C 324.35 355.14 324.83 367.25 324.73 379.35 C 322.38 366.21 323.94 352.79 323.32 339.59 C 316.24 332.67 309.32 325.55 302.98 317.93 Z" />
<path fill="#795028" d=" M 248.72 327.39 C 247.47 325.81 248.24 323.78 248.38 321.99 C 252.09 330.03 256.96 337.46 261.16 345.23 C 258.15 344.70 257.18 341.62 255.82 339.32 C 253.62 335.24 251.12 331.34 248.72 327.39 Z" />
<path fill="#1f5d7d" d=" M 180.84 333.19 C 181.42 331.25 182.13 329.35 182.75 327.43 C 183.76 335.50 182.39 343.67 183.45 351.72 C 185.13 354.81 188.03 356.99 190.35 359.58 C 192.19 361.29 193.73 363.54 196.06 364.57 C 200.47 364.66 204.87 364.08 209.28 364.21 C 209.71 374.55 207.88 384.90 208.98 395.23 C 209.83 384.91 210.31 374.55 210.86 364.21 C 212.69 364.30 214.56 364.67 216.40 364.35 C 220.01 361.34 223.06 357.70 226.76 354.76 C 229.02 353.32 228.99 350.55 229.19 348.18 L 229.57 349.26 C 230.97 353.64 230.03 358.40 230.89 362.92 C 232.65 363.12 234.67 363.56 235.77 361.77 C 239.74 356.96 244.11 352.50 248.28 347.89 C 248.13 341.70 247.77 335.50 248.11 329.31 C 250.80 332.73 252.35 336.84 254.61 340.53 C 255.52 342.26 256.85 343.93 256.87 345.98 C 257.46 362.25 256.59 378.54 257.45 394.80 C 257.37 395.84 257.29 396.89 257.21 397.94 C 249.54 402.62 241.74 407.16 233.73 411.25 C 232.15 401.87 232.57 392.37 232.24 382.92 C 231.20 387.82 231.93 392.88 231.01 397.81 C 230.18 402.86 230.43 407.99 230.57 413.09 L 230.58 413.50 C 223.58 417.07 217.33 421.96 210.11 425.09 C 208.23 426.38 205.92 427.78 203.71 426.28 C 199.03 423.23 194.37 420.13 189.43 417.51 L 189.45 417.11 C 190.35 408.37 187.83 399.76 188.62 391.01 C 187.35 399.02 185.85 407.03 186.32 415.18 C 178.22 410.88 170.29 406.26 162.38 401.62 C 159.11 399.61 155.14 398.43 152.43 395.68 C 150.64 383.53 152.81 371.19 151.48 359.01 C 150.76 365.82 150.22 372.65 150.02 379.50 C 147.85 378.60 145.73 377.62 143.56 376.74 C 143.36 376.33 142.97 375.52 142.77 375.12 C 142.54 371.53 142.14 367.84 142.81 364.29 C 146.51 358.65 151.17 353.66 154.77 347.97 C 155.26 342.43 154.61 336.81 155.06 331.25 C 158.22 331.08 161.38 330.97 164.54 330.91 C 164.92 336.48 164.09 342.05 164.48 347.61 C 165.80 349.99 168.99 351.23 169.51 354.09 C 169.59 357.02 169.37 359.95 169.48 362.89 C 169.67 360.16 169.23 357.25 170.57 354.75 C 172.87 357.14 174.41 360.10 176.35 362.77 C 177.41 364.05 179.23 362.76 180.59 362.77 C 180.74 352.91 180.23 343.02 180.84 333.19 Z" />
<path fill="#795028" d=" M 294.33 327.91 C 299.66 332.89 303.97 338.86 309.22 343.94 C 306.90 343.97 304.60 343.97 302.29 343.92 C 299.89 340.64 296.97 337.77 294.54 334.52 C 294.10 332.35 294.32 330.11 294.33 327.91 Z" />
<path fill="#795028" d=" M 133.96 329.84 C 135.20 330.37 136.44 330.90 137.68 331.44 C 137.73 343.51 137.59 355.57 137.62 367.64 C 136.54 367.64 135.46 367.64 134.38 367.65 C 134.52 355.04 133.81 342.45 133.96 329.84 Z" />
<path fill="#795028" d=" M 150.39 331.40 C 151.49 331.40 152.59 331.40 153.70 331.41 C 152.93 336.68 152.98 342.02 152.94 347.33 C 151.62 347.07 150.51 346.26 150.67 344.80 C 150.41 340.34 150.46 335.86 150.39 331.40 Z" />
<path fill="#ffffff" d=" M 116.93 349.02 C 121.20 343.15 126.61 338.21 131.60 332.95 C 131.43 344.95 131.92 356.96 131.63 368.95 C 129.28 358.04 130.72 346.82 130.84 335.78 C 126.19 340.18 122.14 345.24 116.93 349.02 Z" />
<path fill="#542550" d=" M 264.13 346.23 C 267.54 342.57 270.35 338.38 274.00 334.94 C 274.92 343.92 274.10 352.96 274.40 361.97 C 274.30 365.38 278.38 366.01 280.96 366.38 C 284.63 362.24 288.17 357.98 292.22 354.19 C 293.10 353.18 294.56 352.35 294.44 350.83 C 294.47 346.37 294.39 341.90 294.74 337.45 C 297.36 339.85 299.22 342.93 301.85 345.33 C 302.05 354.09 301.93 362.89 301.51 371.64 C 287.03 380.84 272.02 389.25 257.21 397.94 C 257.29 396.89 257.37 395.84 257.45 394.80 C 259.26 388.05 258.37 380.94 258.72 374.04 C 259.15 364.78 258.06 355.55 258.31 346.31 C 260.21 346.48 262.68 348.14 264.13 346.23 Z" />
<path fill="#795028" d=" M 303.92 345.27 C 305.91 345.28 307.90 345.31 309.90 345.33 C 309.99 352.01 309.71 358.69 309.18 365.35 C 308.19 373.20 308.81 381.12 308.56 389.01 C 308.41 393.84 308.96 398.66 309.77 403.42 C 307.63 403.14 305.48 402.98 303.33 402.88 C 303.24 402.83 303.06 402.71 302.96 402.66 C 303.70 396.12 303.29 389.52 304.21 383.01 C 304.76 370.43 303.94 357.84 303.92 345.27 Z" />
<path fill="#795028" d=" M 198.93 347.53 C 202.64 347.11 206.40 346.97 210.11 347.56 C 206.39 347.91 202.65 347.82 198.93 347.53 Z" />
<path fill="#795028" d=" M 147.91 350.98 C 148.81 349.55 150.50 349.25 152.01 348.86 C 149.33 352.80 146.20 356.42 143.56 360.40 C 142.88 361.76 141.29 361.52 140.03 361.75 C 142.22 357.86 145.13 354.45 147.91 350.98 Z" />
<path fill="#795028" d=" M 101.71 362.54 C 104.03 365.11 105.99 367.98 108.45 370.43 C 107.70 371.57 106.95 372.71 106.21 373.86 C 102.54 370.72 99.13 367.27 95.99 363.60 C 97.91 363.34 99.83 363.00 101.71 362.54 Z" />
<path fill="#542550" d=" M 139.38 362.91 C 140.57 363.12 141.15 363.84 141.15 365.06 C 141.83 368.39 141.14 372.02 142.77 375.12 C 142.97 375.52 143.36 376.33 143.56 376.74 C 144.81 379.11 147.44 380.08 149.64 381.32 C 149.51 385.89 150.48 390.39 150.96 394.92 C 144.46 391.08 137.80 387.51 131.44 383.44 C 131.41 383.12 131.35 382.48 131.32 382.16 C 133.61 377.92 137.01 374.31 138.77 369.77 C 139.46 367.55 139.25 365.20 139.38 362.91 Z" />
<path fill="#40280c" d=" M 158.55 366.52 C 161.67 365.56 164.23 367.81 166.83 369.14 C 166.69 372.45 167.93 376.93 163.92 378.41 C 162.04 377.39 160.14 376.41 158.23 375.47 C 158.10 372.48 158.25 369.49 158.55 366.52 Z" />
<path fill="#598dc8" d=" M 160.37 367.30 C 161.81 366.39 162.41 368.87 162.80 369.76 C 163.37 369.52 164.52 369.05 165.09 368.81 C 163.68 370.97 163.15 373.49 162.69 375.99 C 161.55 375.57 160.43 375.12 159.32 374.67 C 159.64 372.26 158.48 369.22 160.37 367.30 Z" />
<path fill="#1f5d7d" d=" M 165.15 371.38 C 166.60 371.29 166.32 373.85 165.56 374.58 C 164.11 374.66 164.37 372.09 165.15 371.38 Z" />
<path fill="#598dc8" d=" M 231.01 397.81 C 231.93 392.88 231.20 387.82 232.24 382.92 C 232.57 392.37 232.15 401.87 233.73 411.25 L 233.78 411.61 C 232.70 412.09 231.63 412.59 230.57 413.09 C 230.43 407.99 230.18 402.86 231.01 397.81 Z" />
<path fill="#598dc8" d=" M 188.62 391.01 C 187.83 399.76 190.35 408.37 189.45 417.11 C 188.40 416.59 187.36 416.07 186.32 415.56 L 186.32 415.18 C 185.85 407.03 187.35 399.02 188.62 391.01 Z" />
</svg>
