<?xml version="1.0" standalone="no"?>
<!DOCTYPE svg PUBLIC "-//W3C//DTD SVG 20010904//EN"
 "http://www.w3.org/TR/2001/REC-SVG-20010904/DTD/svg10.dtd">
<svg version="1.0" xmlns="http://www.w3.org/2000/svg"
 width="256.000000pt" height="256.000000pt" viewBox="0 0 256.000000 256.000000"
 preserveAspectRatio="xMidYMid meet">
<metadata>
Created by potrace 1.13, written by Peter Selinger 2001-2015
</metadata>
<g transform="translate(0.000000,256.000000) scale(0.100000,-0.100000)"
fill="#000000" stroke="none">
<path d="M154 2518 c3 -24 49 -533 101 -1133 53 -600 98 -1099 100 -1111 4
-18 60 -36 464 -147 l460 -128 461 128 c401 111 461 130 465 148 2 11 47 510
100 1110 52 600 98 1109 101 1133 l6 42 -1132 0 -1132 0 6 -42z m1831 -450
c-3 -24 -32 -346 -65 -717 -33 -371 -62 -676 -65 -679 -2 -2 -133 -40 -290
-84 l-285 -79 -286 80 c-157 44 -287 81 -289 83 -2 2 -10 86 -19 188 -9 102
-19 200 -22 218 l-5 32 144 0 144 0 9 -112 9 -111 157 -43 158 -42 157 42 158
42 11 115 c6 63 14 144 17 182 l6 67 -328 0 -328 0 -7 48 c-3 26 -9 91 -12
145 l-7 97 355 0 355 0 7 98 c4 53 9 118 13 145 l6 47 -542 0 c-297 0 -541 3
-542 8 0 4 -6 65 -13 135 -6 70 -10 130 -7 132 2 3 321 5 708 5 l704 0 -6 -42z"/>
</g>
</svg>
