<?xml version="1.0" standalone="no"?>
<!DOCTYPE svg PUBLIC "-//W3C//DTD SVG 20010904//EN"
 "http://www.w3.org/TR/2001/REC-SVG-20010904/DTD/svg10.dtd">
<svg version="1.0" xmlns="http://www.w3.org/2000/svg"
 width="256.000000pt" height="256.000000pt" viewBox="0 0 256.000000 256.000000"
 preserveAspectRatio="xMidYMid meet">
<metadata>
Created by potrace 1.13, written by Peter Selinger 2001-2015
</metadata>
<g transform="translate(0.000000,256.000000) scale(0.100000,-0.100000)"
fill="#000000" stroke="none">
<path d="M157 2518 c2 -24 48 -539 102 -1146 54 -607 102 -1107 107 -1111 5
-5 212 -65 460 -135 l451 -127 454 127 c250 70 458 130 463 135 5 4 53 504
107 1111 54 607 100 1122 102 1146 l5 42 -1128 0 -1128 0 5 -42z m1829 -445
c-2 -10 -7 -58 -11 -108 -3 -49 -9 -105 -12 -122 l-5 -33 -540 0 -540 0 6 -27
c3 -16 8 -73 11 -128 4 -55 9 -108 11 -117 5 -17 38 -18 520 -18 l515 0 -6
-32 c-3 -18 -21 -213 -41 -433 -20 -220 -37 -401 -39 -403 -1 -1 -132 -38
-290 -82 l-288 -80 -284 79 c-156 43 -287 81 -289 84 -3 3 -12 83 -20 179 -7
95 -15 192 -17 216 l-5 42 138 0 138 0 6 -27 c3 -16 8 -65 11 -110 l7 -82 52
-15 c28 -8 99 -27 157 -42 l106 -28 145 38 c80 21 151 42 158 46 13 8 53 345
43 363 -2 4 -222 7 -488 7 l-484 0 -5 33 c-3 17 -19 196 -36 397 -17 201 -32
377 -35 393 l-4 27 710 0 c672 0 710 -1 705 -17z"/>
</g>
</svg>
